*
G04 Mass Parameters ***
*
G04 Image ***
*
%IND:\DESIGN\ITS-HW\CONTROL BOX\!__PCB\VER2008\FRONT\FRONT8.TOP*%
%ICAS*%
%MOIN*%
%IPPOS*%
%ASAXBY*%
G74*%FSLAN2X34Y34*%
*
G04 Aperture Definitions ***
*
%ADD10C,0.0708*%
%ADD11C,0.1160*%
%ADD12C,0.0620*%
%ADD13R,0.0620X0.0620*%
%ADD14C,0.1000*%
%ADD15R,0.1000X0.1000*%
%ADD16C,0.3543*%
%ADD17C,0.1614*%
%ADD18C,0.1299*%
%ADD19C,0.0397*%
%ADD20C,0.0394*%
%ADD21C,0.0472*%
%ADD22C,0.0300*%
%ADD23C,0.0198*%
%ADD24C,0.0794*%
*
G04 Plot Data ***
*
G54D19*
G01X0064400Y0006000D02*
Y0003600D01*
X0064500Y0003500D01*
X0009500Y0016000D02*
X0010500D01*
X0014400Y0012100D01*
Y0004000D01*
X0020600Y-0002200D01*
X0053300D01*
X0064400Y-0001000D02*
Y0002400D01*
X0064500Y0002500D01*
X0123500Y0011500D02*
X0119000Y0007000D01*
X0116500D01*
X0107400Y-0002100D01*
Y-0002200D01*
X0107300Y-0002100D01*
Y-0002200D01*
X0084400D01*
X0083740Y-0001540D01*
Y-0000945D01*
G54D20*
G01X0051575Y0010335D02*
X0053243D01*
X0054600Y0011692D01*
Y0013800D01*
X0055000Y0014200D01*
X0055500D01*
Y0014260D01*
X0055512Y0014272D01*
X0059500Y0008000D02*
Y0003500D01*
X0061500Y0000100D02*
Y0002500D01*
X0057205Y0000000D02*
Y0000305D01*
X0057400Y0000500D01*
Y0002400D01*
X0057500Y0002500D01*
X0029134Y0000000D02*
X0029100Y-0000034D01*
Y-0000900D01*
X0029500Y-0001300D01*
X0033000D01*
X0041500Y0007200D01*
X0047500D01*
X0047700Y0007400D01*
Y0007450D01*
X0050525Y0010275D01*
X0051575D01*
Y0010335D01*
X0059449Y0009351D02*
X0058949D01*
X0058200Y0010100D01*
Y0014536D01*
X0055512Y0017225D01*
X0063500Y0003500D02*
Y0011100D01*
X0065800Y0013400D01*
X0068600D01*
X0073900Y0008100D01*
X0094500D01*
X0099700Y0013300D01*
X0113969D01*
X0114094Y0013425D01*
X0059449Y0009351D02*
X0057500Y0007402D01*
Y0003500D01*
X0062500Y0002500D02*
X0062300D01*
X0062500Y0002300D01*
Y0000700D01*
X0115354Y0010630D02*
X0115284Y0010700D01*
X0098800D01*
X0092600Y0004500D01*
X0075700D01*
Y0004400D01*
X0069400Y-0001900D01*
X0063900D01*
X0063500Y-0001500D01*
Y0002500D01*
X0029134Y0014272D02*
Y0014266D01*
X0029200Y0014200D01*
X0030200D01*
X0030800Y0013600D01*
Y0012400D01*
X0030827Y0012373D01*
Y0004627D01*
X0027400Y0001200D01*
Y-0000041D01*
X0027441Y0000000D01*
G54D23*
G01X0057205D02*
Y-0002895D01*
X0057200Y-0002900D01*
Y-0003100D01*
X0067500Y0003500D02*
X0067400Y0003600D01*
Y0008700D01*
X0068900Y0010800D02*
X0069100Y0010600D01*
Y0002200D01*
X0068400Y0001500D01*
X0067100D01*
X0066500Y0002100D01*
Y0002500D01*
X0065000Y0006800D02*
Y0003000D01*
X0065500Y0002500D01*
X0066500Y0011900D02*
Y0003500D01*
X0068200Y0008300D02*
Y0003000D01*
X0067700Y0002500D01*
X0067500D01*
X0065500Y0007400D02*
Y0003500D01*
G54D24*
G01X0059500Y0002500D02*
X0059400Y0002400D01*
Y-0001300D01*
X0061300Y-0003200D01*
X0114900D01*
X0117047Y-0001053D01*
Y0000000D01*
G54D10*
X0115354Y0020964D03*
Y0019980D03*
X0085433Y0020964D03*
Y0019980D03*
X0055512Y0014272D03*
Y0013288D03*
X0059449Y0010335D03*
Y0009351D03*
X0055512Y0018209D03*
Y0017225D03*
X0051575Y0010335D03*
Y0009351D03*
X0000000Y0010335D03*
Y0009351D03*
X0029134Y0014272D03*
Y0013288D03*
Y0018209D03*
Y0017225D03*
G54D11*
X0071000Y0003100D03*
X0045000D03*
G54D12*
X0067500Y0002500D03*
X0066500Y0003500D03*
Y0002500D03*
X0065500Y0003500D03*
Y0002500D03*
X0064500Y0003500D03*
Y0002500D03*
X0063500Y0003500D03*
X0062500D03*
Y0002500D03*
X0061500Y0003500D03*
Y0002500D03*
X0060500Y0003500D03*
Y0002500D03*
X0059500Y0003500D03*
Y0002500D03*
X0058500Y0003500D03*
X0057500D03*
Y0002500D03*
X0056500Y0003500D03*
Y0002500D03*
X0055500Y0003500D03*
Y0002500D03*
X0054500Y0003500D03*
Y0002500D03*
X0053500Y0003500D03*
X0052500D03*
Y0002500D03*
X0051500Y0003500D03*
Y0002500D03*
X0050500Y0003500D03*
Y0002500D03*
X0049500Y0003500D03*
Y0002500D03*
X0048500Y0003500D03*
Y0002500D03*
G54D13*
X0067500Y0003500D03*
X0063500Y0002500D03*
X0058500D03*
X0053500D03*
G54D14*
X0009500Y0012000D03*
X0123500Y0011500D03*
G54D15*
X0009500Y0016000D03*
X0123500Y0015500D03*
G54D16*
X0133465Y0009843D03*
Y0017717D03*
X0019685Y0009843D03*
Y0017717D03*
G54D17*
X0093307Y0010630D03*
X0092047Y0013425D03*
X0094567D03*
X0077559Y0010630D03*
X0076299Y0013425D03*
X0078819D03*
X0115354Y0010630D03*
X0114094Y0013425D03*
X0116614D03*
G54D18*
X-0001693Y0000945D03*
X0000000D03*
X0001693D03*
X-0001693Y-0000906D03*
X0000000Y-0000945D03*
X0001693D03*
X0057205Y0000000D03*
X0055512D03*
X0053819D03*
X0117047D03*
X0115354D03*
X0113661D03*
X0087126Y-0000945D03*
X0085433D03*
X0083740D03*
X0087126Y0000906D03*
X0085433Y0000945D03*
X0083740D03*
X0027441Y0000000D03*
X0029134D03*
X0030827D03*
G54D21*
X0059500Y0008000D03*
X0061500Y0000100D03*
X0062500Y0000700D03*
X0064400Y0006000D03*
X0053300Y-0002200D03*
X0064400Y-0001000D03*
G54D22*
X0057200Y-0003100D03*
X0067400Y0008700D03*
X0068900Y0010800D03*
X0065000Y0006800D03*
X0066500Y0011900D03*
X0068200Y0008300D03*
X0065500Y0007400D03*
M02*
