*
G04 Mass Parameters ***
*
G04 Image ***
*
%IND:\DESIGN\ITS-HW\CONTROL BOX\!__PCB\VER2008\FRONT\FRONT8.BOT*%
%ICAS*%
%MOIN*%
%IPPOS*%
%ASAXBY*%
G74*%FSLAN2X34Y34*%
*
G04 Aperture Definitions ***
*
%ADD10C,0.0708*%
%ADD11C,0.1160*%
%ADD12C,0.0620*%
%ADD13R,0.0620X0.0620*%
%ADD14C,0.1000*%
%ADD15R,0.1000X0.1000*%
%ADD16C,0.3543*%
%ADD17C,0.1614*%
%ADD18C,0.1299*%
%ADD19C,0.0397*%
%ADD20C,0.0394*%
%ADD21C,0.0472*%
%ADD22C,0.0300*%
%ADD23C,0.0198*%
%ADD24C,0.0794*%
%ADD25C,0.0708*%
%ADD26C,0.1160*%
%ADD27C,0.0620*%
%ADD28R,0.0620X0.0620*%
%ADD29C,0.1000*%
%ADD30R,0.1000X0.1000*%
%ADD31C,0.3543*%
%ADD32C,0.1614*%
%ADD33R,0.0600X0.0600*%
%ADD34C,0.1299*%
%ADD35C,0.0787*%
%ADD36C,0.0100*%
*
G04 Plot Data ***
*
G54D19*
G01X0060500Y0003500D02*
X0061500Y0002500D01*
X0009500Y0012000D02*
Y0011900D01*
X0015400Y0006000D01*
X0064400D01*
X0123500Y0015500D02*
Y0017800D01*
X0118500Y0022800D01*
X0101300D01*
X0092047Y0013547D01*
Y0013425D01*
X0053300Y-0002200D02*
X0061900D01*
X0063000Y-0001100D01*
X0064200D01*
X0064300Y-0001000D01*
X0064400D01*
X0059500Y0003500D02*
X0060500Y0002500D01*
X0061500Y0003500D02*
X0062500Y0002500D01*
G54D20*
G01X0109200Y0021500D02*
Y0020200D01*
X0109100D01*
Y0020000D01*
X0088155Y-0000945D01*
X0087126D01*
X0000000Y0010335D02*
Y0010300D01*
X0001100D01*
X0009200Y0002200D01*
X0028100D01*
X0029134Y0001166D01*
Y0000000D01*
X0051575Y0010335D02*
X0052365D01*
X0054700Y0008000D01*
X0059500D01*
X0085433Y-0000945D02*
Y-0001567D01*
X0084700Y-0002300D01*
X0068100D01*
X0065900Y-0000100D01*
X0061700D01*
X0061500Y0000100D01*
X0029134Y0013288D02*
X0026846Y0011000D01*
X0026000D01*
X0055512Y0017225D02*
X0047575D01*
X0041000Y0023800D01*
X0006900D01*
X-0005150Y0011750D01*
Y0011150D01*
X0093307Y0010630D02*
X0093177Y0010500D01*
X0087200D01*
X0059449Y0010335D02*
Y0010272D01*
X0059476Y0010300D01*
X0065700D01*
X0065900Y0010500D01*
X0109200Y0021500D02*
Y0020000D01*
X0111600D01*
X0116614Y0014986D01*
Y0013425D01*
X0117047Y0000000D02*
X0119200Y0002153D01*
Y0018000D01*
X0116236Y0020964D01*
X0115354D01*
X0062500Y0000700D02*
X0072000D01*
X0074100Y0002800D01*
Y0010800D01*
X0075500Y0012200D01*
X0079600D01*
X0084400Y0017000D01*
Y0018947D01*
X0085433Y0019980D01*
X0029134Y0017225D02*
X0027875D01*
X0026100Y0019000D01*
X0025800D01*
X0048200Y0019500D02*
X0049491Y0018209D01*
X0055512D01*
X0051575Y0009351D02*
Y0009425D01*
X0050875D01*
X0049300Y0011000D01*
X0048200D01*
X0000000Y0009351D02*
X-0000049Y0009400D01*
X-0002800D01*
X-0003850Y0010450D01*
Y0011150D01*
X0115354Y0019980D02*
X0114420D01*
X0112900Y0021500D01*
X0110500D01*
X0077559Y0010630D02*
X0077689Y0010500D01*
X0081400D01*
X0082700D02*
X0087126Y0006074D01*
Y0000906D01*
X0085900Y0010500D02*
X0084600D01*
X0083400Y0011700D01*
X0082500D01*
X0082000Y0011200D01*
Y0002685D01*
X0083740Y0000945D01*
X0048200Y0015500D02*
X0048857Y0014843D01*
X0053157D01*
X0054712Y0013288D01*
X0055512D01*
X0024500Y0019000D02*
Y0011200D01*
X0024700Y0011000D01*
G54D23*
G01X0057200Y-0003100D02*
Y-0003000D01*
X0057300Y-0003100D01*
X0085900D01*
X0087126Y-0001874D01*
Y-0000945D01*
X0067400Y0008700D02*
X0058100D01*
X0054900Y0011900D01*
X0047400D01*
X0046900Y0011400D01*
Y0011000D01*
Y0015500D02*
Y0015800D01*
X0047400Y0016300D01*
X0056400D01*
X0061300Y0011400D01*
X0068300D01*
X0068900Y0010800D01*
X0055512Y0000000D02*
Y0000412D01*
X0056600Y0001500D01*
X0068400D01*
X0069100Y0002200D01*
Y0003700D01*
X0068600Y0004200D01*
X0063200D01*
X0062500Y0003500D01*
X0024700Y0011000D02*
Y0010300D01*
X0028200Y0006800D01*
X0065000D01*
X0046900Y0019500D02*
X0047700Y0020300D01*
X0055500D01*
X0063900Y0011900D01*
X0066500D01*
X0067200Y0010500D02*
X0068200Y0009500D01*
Y0008300D01*
X0085433Y0000945D02*
X0086378Y0000000D01*
X0087700D01*
X0088400Y0000700D01*
Y0006600D01*
X0086500Y0008500D01*
Y0020500D01*
X0086036Y0020964D01*
X0085433D01*
X0029134Y0018209D02*
X0030291D01*
X0041100Y0007400D01*
X0065500D01*
G54D24*
G01X0054500Y0003500D02*
X0053500D01*
X0052500D01*
X0054500Y0002500D02*
X0053500D01*
Y0003500D02*
Y0002500D01*
X0052500Y0003500D02*
Y0002500D01*
X0054500Y0003500D02*
Y0004100D01*
X0055300Y0004900D01*
X0069100D01*
X0071600Y0007400D01*
Y0011500D01*
X0075100Y0015000D01*
Y0014624D01*
X0076299Y0013425D01*
X0052500Y0002500D02*
X0052600Y0002400D01*
Y0001900D01*
X0047200Y-0003500D01*
X-0002900D01*
X-0004300Y-0002100D01*
Y0002000D01*
X-0003200Y0003100D01*
X0000900D01*
X0001693Y0002307D01*
Y0000945D01*
X0115354Y0000000D02*
Y-0001054D01*
X0116000Y-0001700D01*
X0118500D01*
X0128700Y0008500D01*
Y0020600D01*
X0125500Y0023800D01*
X0086200D01*
X0077500Y0015100D01*
X0075200D01*
X0075100Y0015000D01*
Y0014624D01*
X0076299Y0013425D01*
X0048500Y0002500D02*
Y0002400D01*
X0043700Y-0002400D01*
X0000900D01*
X0000000Y-0001500D01*
Y-0000945D01*
X0049500Y0003500D02*
X0048500D01*
Y0002500D01*
X0049500Y0003500D02*
Y0002500D01*
X0050500Y0003500D02*
Y0002500D01*
Y0003500D02*
X0049500D01*
X0057500D02*
Y0002500D01*
X0059500D02*
X0058500D01*
X0051500D02*
X0050500D01*
X0058500Y0003500D02*
Y0002500D01*
G54D35*
G01X0052500Y0003500D02*
X0051500D01*
X0001693Y0000945D02*
Y-0000945D01*
X0000000Y0000945D02*
Y-0000945D01*
G54D36*
G01X0063083Y0021858D02*
X0063042Y0021942D01*
Y0022025D01*
X0063083Y0022108D01*
X0063333D01*
X0063375Y0022025D01*
Y0021942D01*
X0063333Y0021858D01*
X0063083D01*
X0063042Y0021775D01*
Y0021692D01*
X0063083Y0021608D01*
X0063333D01*
X0063375Y0021692D01*
Y0021775D01*
X0063333Y0021858D01*
X0063825Y0021608D02*
X0063908Y0021692D01*
X0063950Y0021775D01*
Y0021942D01*
X0063908Y0022025D01*
X0063825Y0022108D01*
X0063742D01*
X0063658Y0022025D01*
X0063617Y0021942D01*
Y0021775D01*
X0063658Y0021692D01*
X0063742Y0021608D01*
X0063825D01*
X0064400D02*
X0064483Y0021692D01*
X0064525Y0021775D01*
Y0021942D01*
X0064483Y0022025D01*
X0064400Y0022108D01*
X0064317D01*
X0064233Y0022025D01*
X0064192Y0021942D01*
Y0021775D01*
X0064233Y0021692D01*
X0064317Y0021608D01*
X0064400D01*
X0064767D02*
X0065100D01*
X0064767Y0021942D01*
Y0022025D01*
X0064808Y0022108D01*
X0065058D01*
X0065100Y0022025D01*
X0066187Y0021608D02*
X0066104D01*
Y0021692D01*
X0066187D01*
Y0021608D01*
X0066804Y0021442D02*
Y0021942D01*
X0066554D01*
X0066512Y0021858D01*
Y0021692D01*
X0066554Y0021608D01*
X0066804D01*
X0067046Y0021942D02*
X0067212D01*
X0067254Y0021858D01*
X0067337D01*
Y0021942D02*
Y0021608D01*
X0067871D02*
X0067912Y0021692D01*
Y0021858D01*
X0067871Y0021942D01*
X0067621D01*
X0067579Y0021858D01*
Y0021692D01*
X0067621Y0021608D01*
X0067871D01*
X0068154Y0021692D02*
X0068196Y0021608D01*
X0068446D01*
X0068487Y0021692D01*
Y0022025D01*
X0068446Y0022108D01*
X0068196D01*
X0068154Y0022025D01*
X0069783Y0021442D02*
Y0021942D01*
X0069533D01*
X0069492Y0021858D01*
Y0021692D01*
X0069533Y0021608D01*
X0069783D01*
X0070067Y0021942D02*
Y0021608D01*
X0070025D02*
X0070317D01*
X0070358Y0021692D01*
Y0021942D01*
X0070892Y0021608D02*
X0070933Y0021692D01*
Y0021858D01*
X0070892Y0021942D01*
X0070642D01*
X0070600Y0021858D01*
Y0021692D01*
X0070642Y0021608D01*
X0070892D01*
X0071175Y0021942D02*
X0071342D01*
X0071383Y0021858D01*
X0071467D01*
Y0021942D02*
Y0021608D01*
X0071875Y0021858D02*
X0071708D01*
Y0021692D01*
X0071750Y0021608D01*
X0072000D01*
X0072042Y0021692D01*
Y0022025D01*
X0072000Y0022108D01*
X0071750D01*
X0071708Y0022025D01*
X0073046Y0021608D02*
X0073212D01*
X0073129D02*
Y0022108D01*
X0073212D01*
X0073746Y0021942D02*
X0073579D01*
X0073537Y0021858D01*
Y0021692D01*
X0073496Y0021608D01*
X0073787D01*
X0073829Y0021692D01*
X0073787Y0021775D01*
X0073537D01*
X0074071Y0021608D02*
Y0021858D01*
X0074112Y0021942D01*
X0074362D01*
Y0021608D01*
X0074812Y0021442D02*
X0074646D01*
X0074604Y0021525D01*
Y0021942D01*
X0074854D01*
X0074896Y0021858D01*
Y0021692D01*
X0074854Y0021608D01*
X0074604D01*
X0075221Y0022108D02*
Y0022109D01*
X0075220D01*
Y0022108D01*
X0075221D01*
X0075137Y0021608D02*
X0075304D01*
X0075221D02*
Y0021942D01*
X0075304D01*
X0075587Y0022025D02*
X0075629Y0022108D01*
X0075879D01*
X0075921Y0022025D01*
Y0021942D01*
X0075879Y0021858D01*
X0075629D01*
X0075587Y0021775D01*
Y0021692D01*
X0075629Y0021608D01*
X0075879D01*
X0075921Y0021692D01*
X0076162Y0021858D02*
X0076496D01*
X0077029Y0021608D02*
X0077071Y0021692D01*
Y0021858D01*
X0077029Y0021942D01*
X0076779D01*
X0076737Y0021858D01*
Y0021692D01*
X0076779Y0021608D01*
X0077029D01*
X0077396Y0022108D02*
Y0022109D01*
X0077395D01*
Y0022108D01*
X0077396D01*
X0077312Y0021608D02*
X0077479D01*
X0077396D02*
Y0021942D01*
X0077479D01*
X0078054Y0021608D02*
Y0022108D01*
X0078096Y0021608D02*
X0077846D01*
X0077762Y0021692D01*
Y0021775D01*
X0077804Y0021858D01*
X0078054D02*
X0077804D01*
X0077762Y0021942D01*
Y0022025D01*
X0077846Y0022108D01*
X0078096D01*
X0063144Y0022719D02*
X0063319D01*
X0063231D02*
Y0023244D01*
X0063319D01*
X0063650Y0022719D02*
X0063912D01*
X0063956Y0022806D01*
Y0022981D01*
X0063912Y0023069D01*
X0063650D01*
X0063606Y0022981D01*
Y0022894D01*
X0063956D01*
X0064200Y0022719D02*
Y0022981D01*
X0064244Y0023069D01*
X0064506D01*
Y0022719D01*
X0065012Y0023069D02*
X0064837D01*
X0064794Y0022981D01*
Y0022806D01*
X0064750Y0022719D01*
X0065056D01*
X0065100Y0022806D01*
X0065056Y0022894D01*
X0064794D01*
X0065694Y0022981D02*
X0065431D01*
X0065344Y0023069D01*
Y0023156D01*
X0065431Y0023244D01*
X0065694D01*
Y0022719D01*
X0066772Y0023069D02*
X0067034D01*
X0066728Y0022719D02*
X0066903D01*
X0066947Y0022806D01*
Y0023244D01*
X0067278Y0022719D02*
Y0022981D01*
X0067322Y0023069D01*
X0067584D01*
Y0022719D01*
X0068134D02*
X0068178Y0022806D01*
Y0022981D01*
X0068134Y0023069D01*
X0067871D01*
X0067828Y0022981D01*
Y0022806D01*
X0067871Y0022719D01*
X0068134D01*
X0068421Y0023069D02*
X0068596D01*
X0068640Y0022981D01*
X0068728D01*
Y0023069D02*
Y0022719D01*
X0069059Y0022981D02*
X0069321D01*
Y0022719D02*
Y0023244D01*
X0068971D01*
X0070356Y0022981D02*
X0070706D01*
X0071740Y0023069D02*
X0071784Y0022981D01*
X0071959Y0022806D01*
X0072002Y0022719D01*
X0071740D02*
X0071784Y0022806D01*
X0071959Y0022981D01*
X0072002Y0023069D01*
X0072552Y0022719D02*
X0072596Y0022806D01*
Y0022981D01*
X0072552Y0023069D01*
X0072290D01*
X0072246Y0022981D01*
Y0022806D01*
X0072290Y0022719D01*
X0072552D01*
X0073146D02*
Y0023244D01*
X0073190Y0022719D02*
X0072927D01*
X0072840Y0022806D01*
Y0022894D01*
X0072884Y0022981D01*
X0073146D02*
X0072884D01*
X0072840Y0023069D01*
Y0023156D01*
X0072927Y0023244D01*
X0073190D01*
X0074224Y0022719D02*
X0074399D01*
X0074312D02*
Y0023244D01*
X0074399D01*
X0074993Y0022719D02*
X0075036Y0022806D01*
Y0022981D01*
X0074993Y0023069D01*
X0074730D01*
X0074687Y0022981D01*
Y0022806D01*
X0074730Y0022719D01*
X0074993D01*
X0075280Y0023069D02*
X0075455D01*
X0075499Y0022981D01*
X0075586D01*
Y0023069D02*
Y0022719D01*
X0075874Y0023069D02*
X0076136D01*
X0075830Y0022719D02*
X0076005D01*
X0076049Y0022806D01*
Y0023244D01*
X0076380Y0022719D02*
Y0022981D01*
X0076424Y0023069D01*
X0076686D01*
Y0022719D01*
X0077236D02*
X0077280Y0022806D01*
Y0022981D01*
X0077236Y0023069D01*
X0076974D01*
X0076930Y0022981D01*
Y0022806D01*
X0076974Y0022719D01*
X0077236D01*
X0077524Y0022806D02*
X0077568Y0022719D01*
X0077830D01*
X0077874Y0022806D01*
Y0023156D01*
X0077830Y0023244D01*
X0077568D01*
X0077524Y0023156D01*
G54D21*
X0059500Y0008000D03*
X0061500Y0000100D03*
X0062500Y0000700D03*
X0064400Y0006000D03*
X0053300Y-0002200D03*
X0064400Y-0001000D03*
G54D22*
X0057200Y-0003100D03*
X0067400Y0008700D03*
X0068900Y0010800D03*
X0065000Y0006800D03*
X0066500Y0011900D03*
X0068200Y0008300D03*
X0065500Y0007400D03*
G54D25*
X0115354Y0020964D03*
Y0019980D03*
X0085433Y0020964D03*
Y0019980D03*
X0055512Y0014272D03*
Y0013288D03*
X0059449Y0010335D03*
Y0009351D03*
X0055512Y0018209D03*
Y0017225D03*
X0051575Y0010335D03*
Y0009351D03*
X0000000Y0010335D03*
Y0009351D03*
X0029134Y0014272D03*
Y0013288D03*
Y0018209D03*
Y0017225D03*
G54D26*
X0071000Y0003100D03*
X0045000D03*
G54D27*
X0067500Y0002500D03*
X0066500Y0003500D03*
Y0002500D03*
X0065500Y0003500D03*
Y0002500D03*
X0064500Y0003500D03*
Y0002500D03*
X0063500Y0003500D03*
X0062500D03*
Y0002500D03*
X0061500Y0003500D03*
Y0002500D03*
X0060500Y0003500D03*
Y0002500D03*
X0059500Y0003500D03*
Y0002500D03*
X0058500Y0003500D03*
X0057500D03*
Y0002500D03*
X0056500Y0003500D03*
Y0002500D03*
X0055500Y0003500D03*
Y0002500D03*
X0054500Y0003500D03*
Y0002500D03*
X0053500Y0003500D03*
X0052500D03*
Y0002500D03*
X0051500Y0003500D03*
Y0002500D03*
X0050500Y0003500D03*
Y0002500D03*
X0049500Y0003500D03*
Y0002500D03*
X0048500Y0003500D03*
Y0002500D03*
G54D28*
X0067500Y0003500D03*
X0063500Y0002500D03*
X0058500D03*
X0053500D03*
G54D29*
X0009500Y0012000D03*
X0123500Y0011500D03*
G54D30*
X0009500Y0016000D03*
X0123500Y0015500D03*
G54D31*
X0133465Y0009843D03*
Y0017717D03*
X0019685Y0009843D03*
Y0017717D03*
G54D32*
X0093307Y0010630D03*
X0092047Y0013425D03*
X0094567D03*
X0077559Y0010630D03*
X0076299Y0013425D03*
X0078819D03*
X0115354Y0010630D03*
X0114094Y0013425D03*
X0116614D03*
G54D33*
X0048200Y0015500D03*
X0046900D03*
X-0005150Y0011150D03*
X-0003850D03*
X0026000Y0011000D03*
X0024700D03*
X0024500Y0019000D03*
X0025800D03*
X0048200Y0019500D03*
X0046900D03*
X0065900Y0010500D03*
X0067200D03*
X0048200Y0011000D03*
X0046900D03*
X0081400Y0010500D03*
X0082700D03*
X0085900D03*
X0087200D03*
X0110500Y0021500D03*
X0109200D03*
G54D34*
X-0001693Y0000945D03*
X0000000D03*
X0001693D03*
X-0001693Y-0000906D03*
X0000000Y-0000945D03*
X0001693D03*
X0057205Y0000000D03*
X0055512D03*
X0053819D03*
X0117047D03*
X0115354D03*
X0113661D03*
X0087126Y-0000945D03*
X0085433D03*
X0083740D03*
X0087126Y0000906D03*
X0085433Y0000945D03*
X0083740D03*
X0027441Y0000000D03*
X0029134D03*
X0030827D03*
M02*
