*
G04 Mass Parameters ***
*
G04 Image ***
*
%IND:\DESIGN\ITS-HW\CONTROL BOX\!__PCB\VER2008\FRONT\FRONT8.SMB*%
%ICAS*%
%MOIN*%
%IPPOS*%
%ASAXBY*%
G74*%FSLAN2X34Y34*%
*
G04 Aperture Definitions ***
*
%ADD10C,0.0708*%
%ADD11C,0.1160*%
%ADD12C,0.0620*%
%ADD13R,0.0620X0.0620*%
%ADD14C,0.1000*%
%ADD15R,0.1000X0.1000*%
%ADD16C,0.3543*%
%ADD17C,0.1614*%
%ADD18C,0.1299*%
%ADD19C,0.0397*%
%ADD20C,0.0394*%
%ADD21C,0.0472*%
%ADD22C,0.0300*%
%ADD23C,0.0198*%
%ADD24C,0.0794*%
%ADD25C,0.0708*%
%ADD26C,0.1160*%
%ADD27C,0.0620*%
%ADD28R,0.0620X0.0620*%
%ADD29C,0.1000*%
%ADD30R,0.1000X0.1000*%
%ADD31C,0.3543*%
%ADD32C,0.1614*%
%ADD33R,0.0600X0.0600*%
%ADD34C,0.1299*%
%ADD35C,0.0787*%
%ADD36C,0.0100*%
%ADD37C,0.0551*%
%ADD38C,0.0350*%
*
G04 Plot Data ***
*
G54D25*
X0115354Y0020964D03*
Y0019980D03*
X0085433Y0020964D03*
Y0019980D03*
X0055512Y0014272D03*
Y0013288D03*
X0059449Y0010335D03*
Y0009351D03*
X0055512Y0018209D03*
Y0017225D03*
X0051575Y0010335D03*
Y0009351D03*
X0000000Y0010335D03*
Y0009351D03*
X0029134Y0014272D03*
Y0013288D03*
Y0018209D03*
Y0017225D03*
G54D26*
X0071000Y0003100D03*
X0045000D03*
G54D27*
X0067500Y0002500D03*
X0066500Y0003500D03*
Y0002500D03*
X0065500Y0003500D03*
Y0002500D03*
X0064500Y0003500D03*
Y0002500D03*
X0063500Y0003500D03*
X0062500D03*
Y0002500D03*
X0061500Y0003500D03*
Y0002500D03*
X0060500Y0003500D03*
Y0002500D03*
X0059500Y0003500D03*
Y0002500D03*
X0058500Y0003500D03*
X0057500D03*
Y0002500D03*
X0056500Y0003500D03*
Y0002500D03*
X0055500Y0003500D03*
Y0002500D03*
X0054500Y0003500D03*
Y0002500D03*
X0053500Y0003500D03*
X0052500D03*
Y0002500D03*
X0051500Y0003500D03*
Y0002500D03*
X0050500Y0003500D03*
Y0002500D03*
X0049500Y0003500D03*
Y0002500D03*
X0048500Y0003500D03*
Y0002500D03*
G54D28*
X0067500Y0003500D03*
X0063500Y0002500D03*
X0058500D03*
X0053500D03*
G54D29*
X0009500Y0012000D03*
X0123500Y0011500D03*
G54D30*
X0009500Y0016000D03*
X0123500Y0015500D03*
G54D31*
X0133465Y0009843D03*
Y0017717D03*
X0019685Y0009843D03*
Y0017717D03*
G54D32*
X0093307Y0010630D03*
X0092047Y0013425D03*
X0094567D03*
X0077559Y0010630D03*
X0076299Y0013425D03*
X0078819D03*
X0115354Y0010630D03*
X0114094Y0013425D03*
X0116614D03*
G54D33*
X0048200Y0015500D03*
X0046900D03*
X-0005150Y0011150D03*
X-0003850D03*
X0026000Y0011000D03*
X0024700D03*
X0024500Y0019000D03*
X0025800D03*
X0048200Y0019500D03*
X0046900D03*
X0065900Y0010500D03*
X0067200D03*
X0048200Y0011000D03*
X0046900D03*
X0081400Y0010500D03*
X0082700D03*
X0085900D03*
X0087200D03*
X0110500Y0021500D03*
X0109200D03*
G54D34*
X-0001693Y0000945D03*
X0000000D03*
X0001693D03*
X-0001693Y-0000906D03*
X0000000Y-0000945D03*
X0001693D03*
X0057205Y0000000D03*
X0055512D03*
X0053819D03*
X0117047D03*
X0115354D03*
X0113661D03*
X0087126Y-0000945D03*
X0085433D03*
X0083740D03*
X0087126Y0000906D03*
X0085433Y0000945D03*
X0083740D03*
X0027441Y0000000D03*
X0029134D03*
X0030827D03*
G54D37*
X0059500Y0008000D03*
X0061500Y0000100D03*
X0062500Y0000700D03*
X0064400Y0006000D03*
X0053300Y-0002200D03*
X0064400Y-0001000D03*
G54D38*
X0057200Y-0003100D03*
X0067400Y0008700D03*
X0068900Y0010800D03*
X0065000Y0006800D03*
X0066500Y0011900D03*
X0068200Y0008300D03*
X0065500Y0007400D03*
M02*
