*
G04 Mass Parameters ***
*
G04 Image ***
*
%IND:\DESIGN\ITS-HW\CONTROL BOX\!__PCB\VER2008\FRONT\FRONT8.DRD*%
%ICAS*%
%MOIN*%
%IPPOS*%
%ASAXBY*%
G74*%FSLAN2X34Y34*%
*
G04 Aperture Definitions ***
*
%ADD10C,0.0708*%
%ADD11C,0.1160*%
%ADD12C,0.0620*%
%ADD13R,0.0620X0.0620*%
%ADD14C,0.1000*%
%ADD15R,0.1000X0.1000*%
%ADD16C,0.3543*%
%ADD17C,0.1614*%
%ADD18C,0.1299*%
%ADD19C,0.0397*%
%ADD20C,0.0394*%
%ADD21C,0.0472*%
%ADD22C,0.0300*%
%ADD23C,0.0198*%
%ADD24C,0.0794*%
%ADD25C,0.0708*%
%ADD26C,0.1160*%
%ADD27C,0.0620*%
%ADD28R,0.0620X0.0620*%
%ADD29C,0.1000*%
%ADD30R,0.1000X0.1000*%
%ADD31C,0.3543*%
%ADD32C,0.1614*%
%ADD33R,0.0600X0.0600*%
%ADD34C,0.1299*%
%ADD35C,0.0787*%
%ADD36C,0.0100*%
%ADD37C,0.0551*%
%ADD38C,0.0350*%
%ADD39C,0.0500*%
%ADD40C,0.0080*%
%ADD41C,0.0060*%
%ADD42C,0.0098*%
*
G04 Plot Data ***
*
G54D36*
G01X0024708Y-0018833D02*
X0024375D01*
X0024542D02*
Y-0017833D01*
X0024375Y-0018000D01*
X0023925Y-0018833D02*
X0023592D01*
X0023758D02*
Y-0017833D01*
X0023592Y-0018000D01*
X0023142Y-0018833D02*
X0022808D01*
X0022975D02*
Y-0017833D01*
X0022808Y-0018000D01*
X0012312Y-0018833D02*
X0011729D01*
Y-0017833D01*
X0011446Y-0018500D02*
X0010779D01*
X0011446Y-0018833D02*
Y-0018333D01*
X0011196Y-0017833D01*
X0011029D01*
X0010779Y-0018333D01*
Y-0018833D01*
X0010162D02*
Y-0017833D01*
X0010496D02*
X0009829D01*
X0008962Y-0018833D02*
X0008879Y-0018667D01*
Y-0018000D01*
X0008962Y-0017833D01*
X0009462D01*
X0009546Y-0018000D01*
Y-0018667D01*
X0009462Y-0018833D01*
X0008962D01*
X0008262D02*
Y-0017833D01*
X0008596D02*
X0007929D01*
X0024708Y-0016750D02*
X0024264D01*
X0024486Y-0016306D01*
X0024597D01*
Y-0016972D01*
X0010869D02*
Y-0016639D01*
X0011092Y-0016972D02*
Y-0016639D01*
X0011036Y-0016528D01*
X0010925D01*
X0010869Y-0016639D01*
X0010814Y-0016528D01*
X0010703D01*
X0010647Y-0016639D01*
Y-0016972D01*
X0010169D02*
Y-0016639D01*
X0010392Y-0016972D02*
Y-0016639D01*
X0010336Y-0016528D01*
X0010225D01*
X0010169Y-0016639D01*
X0010114Y-0016528D01*
X0010003D01*
X0009947Y-0016639D01*
Y-0016972D01*
X0008464D02*
X0008353Y-0016861D01*
X0008297Y-0016750D01*
Y-0016528D01*
X0008353Y-0016417D01*
X0008464Y-0016306D01*
X0008575D01*
X0008686Y-0016417D01*
X0008742Y-0016528D01*
Y-0016750D01*
X0008686Y-0016861D01*
X0008575Y-0016972D01*
X0008464D01*
X0007764D02*
X0007653Y-0016861D01*
X0007597Y-0016750D01*
Y-0016528D01*
X0007653Y-0016417D01*
X0007764Y-0016306D01*
X0007875D01*
X0007986Y-0016417D01*
X0008042Y-0016528D01*
Y-0016750D01*
X0007986Y-0016861D01*
X0007875Y-0016972D01*
X0007764D01*
X0007064D02*
X0006953Y-0016861D01*
X0006897Y-0016750D01*
Y-0016528D01*
X0006953Y-0016417D01*
X0007064Y-0016306D01*
X0007175D01*
X0007286Y-0016417D01*
X0007342Y-0016528D01*
Y-0016750D01*
X0007286Y-0016861D01*
X0007175Y-0016972D01*
X0007064D01*
X0006531D02*
X0006642D01*
Y-0016861D01*
X0006531D01*
Y-0016972D01*
X0006108Y-0016639D02*
X0005775D01*
X0005719Y-0016528D01*
Y-0016417D01*
X0005775Y-0016306D01*
X0006108D01*
X0006164Y-0016417D01*
Y-0016528D01*
X0005942Y-0016972D01*
X0024653Y-0015139D02*
X0024319D01*
X0024264Y-0015028D01*
Y-0014917D01*
X0024319Y-0014806D01*
X0024653D01*
X0024708Y-0014917D01*
Y-0015028D01*
X0024486Y-0015472D01*
X0010869D02*
Y-0015139D01*
X0011092Y-0015472D02*
Y-0015139D01*
X0011036Y-0015028D01*
X0010925D01*
X0010869Y-0015139D01*
X0010814Y-0015028D01*
X0010703D01*
X0010647Y-0015139D01*
Y-0015472D01*
X0010169D02*
Y-0015139D01*
X0010392Y-0015472D02*
Y-0015139D01*
X0010336Y-0015028D01*
X0010225D01*
X0010169Y-0015139D01*
X0010114Y-0015028D01*
X0010003D01*
X0009947Y-0015139D01*
Y-0015472D01*
X0008686Y-0015139D02*
X0008353D01*
X0008297Y-0015028D01*
Y-0014917D01*
X0008353Y-0014806D01*
X0008686D01*
X0008742Y-0014917D01*
Y-0015028D01*
X0008519Y-0015472D01*
X0007986Y-0015139D02*
X0007653D01*
X0007597Y-0015028D01*
Y-0014917D01*
X0007653Y-0014806D01*
X0007986D01*
X0008042Y-0014917D01*
Y-0015028D01*
X0007819Y-0015472D01*
X0007064D02*
X0006953Y-0015361D01*
X0006897Y-0015250D01*
Y-0015028D01*
X0006953Y-0014917D01*
X0007064Y-0014806D01*
X0007175D01*
X0007286Y-0014917D01*
X0007342Y-0015028D01*
Y-0015250D01*
X0007286Y-0015361D01*
X0007175Y-0015472D01*
X0007064D01*
X0006531D02*
X0006642D01*
Y-0015361D01*
X0006531D01*
Y-0015472D01*
X0005719Y-0015361D02*
X0005831Y-0015472D01*
X0006053D01*
X0006164Y-0015361D01*
Y-0015250D01*
X0005942Y-0015028D01*
X0006164Y-0014806D01*
X0005719D01*
X0024708Y-0013972D02*
X0024264D01*
X0024708Y-0013528D01*
Y-0013417D01*
X0024653Y-0013306D01*
X0024319D01*
X0024264Y-0013417D01*
X0010869Y-0013972D02*
Y-0013639D01*
X0011092Y-0013972D02*
Y-0013639D01*
X0011036Y-0013528D01*
X0010925D01*
X0010869Y-0013639D01*
X0010814Y-0013528D01*
X0010703D01*
X0010647Y-0013639D01*
Y-0013972D01*
X0010169D02*
Y-0013639D01*
X0010392Y-0013972D02*
Y-0013639D01*
X0010336Y-0013528D01*
X0010225D01*
X0010169Y-0013639D01*
X0010114Y-0013528D01*
X0010003D01*
X0009947Y-0013639D01*
Y-0013972D01*
X0008353Y-0013639D02*
X0008686D01*
X0008742Y-0013750D01*
Y-0013861D01*
X0008686Y-0013972D01*
X0008353D01*
X0008297Y-0013861D01*
Y-0013750D01*
X0008519Y-0013306D01*
X0008042Y-0013750D02*
X0007597D01*
X0007819Y-0013306D01*
X0007931D01*
Y-0013972D01*
X0007286Y-0013639D02*
X0006953D01*
X0006897Y-0013528D01*
Y-0013417D01*
X0006953Y-0013306D01*
X0007286D01*
X0007342Y-0013417D01*
Y-0013528D01*
X0007119Y-0013972D01*
X0006531D02*
X0006642D01*
Y-0013861D01*
X0006531D01*
Y-0013972D01*
X0006164D02*
X0005719D01*
X0006164Y-0013528D01*
Y-0013417D01*
X0006108Y-0013306D01*
X0005775D01*
X0005719Y-0013417D01*
X0024708Y-0012472D02*
X0024486D01*
X0024597D02*
Y-0011806D01*
X0024486Y-0011917D01*
X0024119Y-0012472D02*
X0023675D01*
X0024119Y-0012028D01*
Y-0011917D01*
X0024064Y-0011806D01*
X0023731D01*
X0023675Y-0011917D01*
X0010869Y-0012472D02*
Y-0012139D01*
X0011092Y-0012472D02*
Y-0012139D01*
X0011036Y-0012028D01*
X0010925D01*
X0010869Y-0012139D01*
X0010814Y-0012028D01*
X0010703D01*
X0010647Y-0012139D01*
Y-0012472D01*
X0010169D02*
Y-0012139D01*
X0010392Y-0012472D02*
Y-0012139D01*
X0010336Y-0012028D01*
X0010225D01*
X0010169Y-0012139D01*
X0010114Y-0012028D01*
X0010003D01*
X0009947Y-0012139D01*
Y-0012472D01*
X0008464D02*
X0008353Y-0012361D01*
X0008297Y-0012250D01*
Y-0012028D01*
X0008353Y-0011917D01*
X0008464Y-0011806D01*
X0008575D01*
X0008686Y-0011917D01*
X0008742Y-0012028D01*
Y-0012250D01*
X0008686Y-0012361D01*
X0008575Y-0012472D01*
X0008464D01*
X0007764D02*
X0007653Y-0012361D01*
X0007597Y-0012250D01*
Y-0012028D01*
X0007653Y-0011917D01*
X0007764Y-0011806D01*
X0007875D01*
X0007986Y-0011917D01*
X0008042Y-0012028D01*
Y-0012250D01*
X0007986Y-0012361D01*
X0007875Y-0012472D01*
X0007764D01*
X0006897Y-0012361D02*
X0007008Y-0012472D01*
X0007231D01*
X0007342Y-0012361D01*
Y-0012250D01*
X0007119Y-0012028D01*
X0007342Y-0011806D01*
X0006897D01*
X0006531Y-0012472D02*
X0006642D01*
Y-0012361D01*
X0006531D01*
Y-0012472D01*
X0006164D02*
X0005719D01*
X0006164Y-0012028D01*
Y-0011917D01*
X0006108Y-0011806D01*
X0005775D01*
X0005719Y-0011917D01*
X0024708Y-0010750D02*
X0024264D01*
X0024486Y-0010306D01*
X0024597D01*
Y-0010972D01*
X0010869D02*
Y-0010639D01*
X0011092Y-0010972D02*
Y-0010639D01*
X0011036Y-0010528D01*
X0010925D01*
X0010869Y-0010639D01*
X0010814Y-0010528D01*
X0010703D01*
X0010647Y-0010639D01*
Y-0010972D01*
X0010169D02*
Y-0010639D01*
X0010392Y-0010972D02*
Y-0010639D01*
X0010336Y-0010528D01*
X0010225D01*
X0010169Y-0010639D01*
X0010114Y-0010528D01*
X0010003D01*
X0009947Y-0010639D01*
Y-0010972D01*
X0008686Y-0010639D02*
X0008742Y-0010528D01*
Y-0010417D01*
X0008686Y-0010306D01*
X0008353D01*
X0008297Y-0010417D01*
Y-0010528D01*
X0008353Y-0010639D01*
X0008686D01*
X0008742Y-0010750D01*
Y-0010861D01*
X0008686Y-0010972D01*
X0008353D01*
X0008297Y-0010861D01*
Y-0010750D01*
X0008353Y-0010639D01*
X0007708Y-0010972D02*
X0008042Y-0010306D01*
X0007597D01*
X0007008Y-0010972D02*
X0007342Y-0010306D01*
X0006897D01*
X0006531Y-0010972D02*
X0006642D01*
Y-0010861D01*
X0006531D01*
Y-0010972D01*
X0006164D02*
X0005942D01*
X0006053D02*
Y-0010306D01*
X0005942Y-0010417D01*
X0024431Y-0009472D02*
X0024319Y-0009361D01*
X0024264Y-0009250D01*
Y-0009028D01*
X0024319Y-0008917D01*
X0024431Y-0008806D01*
X0024542D01*
X0024653Y-0008917D01*
X0024708Y-0009028D01*
Y-0009250D01*
X0024653Y-0009361D01*
X0024542Y-0009472D01*
X0024431D01*
X0024008Y-0009250D02*
X0023564D01*
X0023786Y-0008806D01*
X0023897D01*
Y-0009472D01*
X0010869D02*
Y-0009139D01*
X0011092Y-0009472D02*
Y-0009139D01*
X0011036Y-0009028D01*
X0010925D01*
X0010869Y-0009139D01*
X0010814Y-0009028D01*
X0010703D01*
X0010647Y-0009139D01*
Y-0009472D01*
X0010169D02*
Y-0009139D01*
X0010392Y-0009472D02*
Y-0009139D01*
X0010336Y-0009028D01*
X0010225D01*
X0010169Y-0009139D01*
X0010114Y-0009028D01*
X0010003D01*
X0009947Y-0009139D01*
Y-0009472D01*
X0008408D02*
X0008742Y-0008806D01*
X0008297D01*
X0007653Y-0009139D02*
X0007986D01*
X0008042Y-0009250D01*
Y-0009361D01*
X0007986Y-0009472D01*
X0007653D01*
X0007597Y-0009361D01*
Y-0009250D01*
X0007819Y-0008806D01*
X0007064Y-0009472D02*
X0006953Y-0009361D01*
X0006897Y-0009250D01*
Y-0009028D01*
X0006953Y-0008917D01*
X0007064Y-0008806D01*
X0007175D01*
X0007286Y-0008917D01*
X0007342Y-0009028D01*
Y-0009250D01*
X0007286Y-0009361D01*
X0007175Y-0009472D01*
X0007064D01*
X0006531D02*
X0006642D01*
Y-0009361D01*
X0006531D01*
Y-0009472D01*
X0006164D02*
X0005942D01*
X0006053D02*
Y-0008806D01*
X0005942Y-0008917D01*
X0024653Y-0007639D02*
X0024708Y-0007528D01*
Y-0007417D01*
X0024653Y-0007306D01*
X0024319D01*
X0024264Y-0007417D01*
Y-0007528D01*
X0024319Y-0007639D01*
X0024653D01*
X0024708Y-0007750D01*
Y-0007861D01*
X0024653Y-0007972D01*
X0024319D01*
X0024264Y-0007861D01*
Y-0007750D01*
X0024319Y-0007639D01*
X0024008Y-0007972D02*
X0023786D01*
X0023897D02*
Y-0007306D01*
X0023786Y-0007417D01*
X0010869Y-0007972D02*
Y-0007639D01*
X0011092Y-0007972D02*
Y-0007639D01*
X0011036Y-0007528D01*
X0010925D01*
X0010869Y-0007639D01*
X0010814Y-0007528D01*
X0010703D01*
X0010647Y-0007639D01*
Y-0007972D01*
X0010169D02*
Y-0007639D01*
X0010392Y-0007972D02*
Y-0007639D01*
X0010336Y-0007528D01*
X0010225D01*
X0010169Y-0007639D01*
X0010114Y-0007528D01*
X0010003D01*
X0009947Y-0007639D01*
Y-0007972D01*
X0008686Y-0007639D02*
X0008353D01*
X0008297Y-0007528D01*
Y-0007417D01*
X0008353Y-0007306D01*
X0008686D01*
X0008742Y-0007417D01*
Y-0007528D01*
X0008519Y-0007972D01*
X0007986Y-0007639D02*
X0007653D01*
X0007597Y-0007528D01*
Y-0007417D01*
X0007653Y-0007306D01*
X0007986D01*
X0008042Y-0007417D01*
Y-0007528D01*
X0007819Y-0007972D01*
X0006953Y-0007639D02*
X0007286D01*
X0007342Y-0007750D01*
Y-0007861D01*
X0007286Y-0007972D01*
X0006953D01*
X0006897Y-0007861D01*
Y-0007750D01*
X0007119Y-0007306D01*
X0006531Y-0007972D02*
X0006642D01*
Y-0007861D01*
X0006531D01*
Y-0007972D01*
X0005886D02*
X0005775Y-0007861D01*
X0005719Y-0007750D01*
Y-0007528D01*
X0005775Y-0007417D01*
X0005886Y-0007306D01*
X0005997D01*
X0006108Y-0007417D01*
X0006164Y-0007528D01*
Y-0007750D01*
X0006108Y-0007861D01*
X0005997Y-0007972D01*
X0005886D01*
X0024319Y-0006139D02*
X0024653D01*
X0024708Y-0006250D01*
Y-0006361D01*
X0024653Y-0006472D01*
X0024319D01*
X0024264Y-0006361D01*
Y-0006250D01*
X0024486Y-0005806D01*
X0010869Y-0006472D02*
Y-0006139D01*
X0011092Y-0006472D02*
Y-0006139D01*
X0011036Y-0006028D01*
X0010925D01*
X0010869Y-0006139D01*
X0010814Y-0006028D01*
X0010703D01*
X0010647Y-0006139D01*
Y-0006472D01*
X0010169D02*
Y-0006139D01*
X0010392Y-0006472D02*
Y-0006139D01*
X0010336Y-0006028D01*
X0010225D01*
X0010169Y-0006139D01*
X0010114Y-0006028D01*
X0010003D01*
X0009947Y-0006139D01*
Y-0006472D01*
X0008686Y-0006139D02*
X0008353D01*
X0008297Y-0006028D01*
Y-0005917D01*
X0008353Y-0005806D01*
X0008686D01*
X0008742Y-0005917D01*
Y-0006028D01*
X0008519Y-0006472D01*
X0007986Y-0006139D02*
X0007653D01*
X0007597Y-0006028D01*
Y-0005917D01*
X0007653Y-0005806D01*
X0007986D01*
X0008042Y-0005917D01*
Y-0006028D01*
X0007819Y-0006472D01*
X0006953Y-0006139D02*
X0007286D01*
X0007342Y-0006250D01*
Y-0006361D01*
X0007286Y-0006472D01*
X0006953D01*
X0006897Y-0006361D01*
Y-0006250D01*
X0007119Y-0005806D01*
X0006531Y-0006472D02*
X0006642D01*
Y-0006361D01*
X0006531D01*
Y-0006472D01*
X0005886D02*
X0005775Y-0006361D01*
X0005719Y-0006250D01*
Y-0006028D01*
X0005775Y-0005917D01*
X0005886Y-0005806D01*
X0005997D01*
X0006108Y-0005917D01*
X0006164Y-0006028D01*
Y-0006250D01*
X0006108Y-0006361D01*
X0005997Y-0006472D01*
X0005886D01*
X0024375Y-0004972D02*
X0024708Y-0004306D01*
X0024264D01*
X0010869Y-0004972D02*
Y-0004639D01*
X0011092Y-0004972D02*
Y-0004639D01*
X0011036Y-0004528D01*
X0010925D01*
X0010869Y-0004639D01*
X0010814Y-0004528D01*
X0010703D01*
X0010647Y-0004639D01*
Y-0004972D01*
X0010169D02*
Y-0004639D01*
X0010392Y-0004972D02*
Y-0004639D01*
X0010336Y-0004528D01*
X0010225D01*
X0010169Y-0004639D01*
X0010114Y-0004528D01*
X0010003D01*
X0009947Y-0004639D01*
Y-0004972D01*
X0008742D02*
X0008519D01*
X0008631D02*
Y-0004306D01*
X0008519Y-0004417D01*
X0008097Y-0004639D02*
X0008153Y-0004528D01*
Y-0004417D01*
X0008097Y-0004306D01*
X0007764D01*
X0007708Y-0004417D01*
Y-0004528D01*
X0007764Y-0004639D01*
X0008097D01*
X0008153Y-0004750D01*
Y-0004861D01*
X0008097Y-0004972D01*
X0007764D01*
X0007708Y-0004861D01*
Y-0004750D01*
X0007764Y-0004639D01*
X0007008Y-0004861D02*
X0007119Y-0004972D01*
X0007342D01*
X0007453Y-0004861D01*
Y-0004750D01*
X0007231Y-0004528D01*
X0007453Y-0004306D01*
X0007008D01*
X0006642Y-0004972D02*
X0006753D01*
Y-0004861D01*
X0006642D01*
Y-0004972D01*
X0005997D02*
X0005886Y-0004861D01*
X0005831Y-0004750D01*
Y-0004528D01*
X0005886Y-0004417D01*
X0005997Y-0004306D01*
X0006108D01*
X0006219Y-0004417D01*
X0006275Y-0004528D01*
Y-0004750D01*
X0006219Y-0004861D01*
X0006108Y-0004972D01*
X0005997D01*
X0033112Y-0002833D02*
X0032612D01*
X0033279Y-0003333D02*
X0032612D01*
Y-0002333D01*
X0033279D01*
X0031996Y-0003333D02*
Y-0002333D01*
X0032329D02*
X0031662D01*
X0030796Y-0003333D02*
X0030712Y-0003167D01*
Y-0002500D01*
X0030796Y-0002333D01*
X0031296D01*
X0031379Y-0002500D01*
Y-0003167D01*
X0031296Y-0003333D01*
X0030796D01*
X0030429Y-0002333D02*
Y-0003333D01*
X0030262Y-0003167D01*
X0029929Y-0002500D01*
X0029762Y-0002333D01*
Y-0003333D01*
X0023925D02*
Y-0002833D01*
X0024258Y-0002333D02*
X0024008Y-0002833D01*
X0023842D01*
X0023592Y-0002333D01*
X0022975Y-0003333D02*
Y-0002333D01*
X0023308D02*
X0022642D01*
X0022025Y-0003000D02*
X0022358Y-0003333D01*
X0021692Y-0003167D02*
X0021775Y-0003333D01*
X0022108D01*
X0022192Y-0003167D01*
X0022358Y-0003000D01*
Y-0002500D01*
X0022275Y-0002333D01*
X0021775D01*
X0021692Y-0002500D01*
Y-0003167D01*
X0017408Y-0003333D02*
X0016825D01*
Y-0002333D01*
X0015958Y-0003333D02*
X0015875Y-0003167D01*
Y-0002500D01*
X0015958Y-0002333D01*
X0016458D01*
X0016542Y-0002500D01*
Y-0003167D01*
X0016458Y-0003333D01*
X0015958D01*
X0015258D02*
Y-0002333D01*
X0015592D02*
X0014925D01*
X0009587Y-0003333D02*
Y-0002333D01*
X0009421Y-0002500D01*
X0009254Y-0002833D01*
X0009087Y-0002500D01*
X0008921Y-0002333D01*
Y-0003333D01*
X0008637Y-0003000D02*
X0007971D01*
X0008637Y-0003333D02*
Y-0002833D01*
X0008387Y-0002333D01*
X0008221D01*
X0007971Y-0002833D01*
Y-0003333D01*
X0007687D02*
X0007354D01*
X0007521D02*
Y-0002333D01*
X0007687D02*
X0007354D01*
X0006321Y-0003333D02*
Y-0002333D01*
X0006237Y-0003333D02*
X0006737D01*
X0006904Y-0003000D01*
Y-0002667D01*
X0006737Y-0002333D01*
X0006237D01*
X0003150Y-0003333D02*
Y-0002333D01*
X0002983Y-0002500D01*
X0002817Y-0002833D01*
X0002650Y-0002500D01*
X0002483Y-0002333D01*
Y-0003333D01*
X0001867D02*
Y-0002833D01*
X0002200Y-0002333D02*
X0001950Y-0002833D01*
X0001783D01*
X0001533Y-0002333D01*
X0001250Y-0002500D02*
X0001167Y-0002333D01*
X0000667D01*
X0000583Y-0002500D01*
Y-0002667D01*
X0000667Y-0002833D01*
X0001167D01*
X0001250Y-0003000D01*
Y-0003167D01*
X0001167Y-0003333D01*
X0000667D01*
X0000583Y-0003167D01*
X0023437Y-0001333D02*
Y-0000333D01*
X0023771D02*
X0023104D01*
X0022571Y-0000833D02*
X0022821Y-0001333D01*
X0022154Y-0000833D02*
X0022654D01*
X0022821Y-0000667D01*
Y-0000500D01*
X0022654Y-0000333D01*
X0022154D01*
Y-0001333D01*
X0021871Y-0001000D02*
X0021204D01*
X0021871Y-0001333D02*
Y-0000833D01*
X0021621Y-0000333D01*
X0021454D01*
X0021204Y-0000833D01*
Y-0001333D01*
X0020921Y-0000833D02*
X0020254D01*
X0020921Y-0001333D02*
Y-0000333D01*
X0020254Y-0001333D02*
Y-0000333D01*
X0019971Y-0001167D02*
X0019887Y-0001333D01*
X0019387D01*
X0019304Y-0001167D01*
Y-0000500D01*
X0019387Y-0000333D01*
X0019887D01*
X0019971Y-0000500D01*
X0017696Y-0001333D02*
X0017112D01*
Y-0000333D01*
X0016829Y-0001333D02*
X0016246D01*
Y-0000333D01*
X0015962Y-0001333D02*
X0015629D01*
X0015796D02*
Y-0000333D01*
X0015962D02*
X0015629D01*
X0014929Y-0000833D02*
X0015179Y-0001333D01*
X0014512Y-0000833D02*
X0015012D01*
X0015179Y-0000667D01*
Y-0000500D01*
X0015012Y-0000333D01*
X0014512D01*
Y-0001333D01*
X0013646D02*
Y-0000333D01*
X0013562Y-0001333D02*
X0014062D01*
X0014229Y-0001000D01*
Y-0000667D01*
X0014062Y-0000333D01*
X0013562D01*
X0056950Y-0003000D02*
Y-0003200D01*
X0057100Y-0002850D02*
X0056950Y-0003000D01*
X0057300Y-0002850D02*
X0057100D01*
X0057450Y-0003000D02*
X0057300Y-0002850D01*
X0057450Y-0003200D02*
Y-0003000D01*
X0057300Y-0003350D02*
X0057450Y-0003200D01*
X0057100Y-0003350D02*
X0057300D01*
X0056950Y-0003200D02*
X0057100Y-0003350D01*
X0059500Y0008150D02*
X0059250Y0007900D01*
X0059750D02*
X0059500Y0008150D01*
X0059250Y0007900D02*
X0059750D01*
X0061500Y0000250D02*
X0061250Y0000000D01*
X0061750D02*
X0061500Y0000250D01*
X0061250Y0000000D02*
X0061750D01*
X0067150Y0008800D02*
Y0008600D01*
X0067300Y0008950D02*
X0067150Y0008800D01*
X0067500Y0008950D02*
X0067300D01*
X0067650Y0008800D02*
X0067500Y0008950D01*
X0067650Y0008600D02*
Y0008800D01*
X0067500Y0008450D02*
X0067650Y0008600D01*
X0067300Y0008450D02*
X0067500D01*
X0067150Y0008600D02*
X0067300Y0008450D01*
X0062500Y0000850D02*
X0062250Y0000600D01*
X0062750D02*
X0062500Y0000850D01*
X0062250Y0000600D02*
X0062750D01*
X0068650Y0010900D02*
Y0010700D01*
X0068800Y0011050D02*
X0068650Y0010900D01*
X0069000Y0011050D02*
X0068800D01*
X0069150Y0010900D02*
X0069000Y0011050D01*
X0069150Y0010700D02*
Y0010900D01*
X0069000Y0010550D02*
X0069150Y0010700D01*
X0068800Y0010550D02*
X0069000D01*
X0068650Y0010700D02*
X0068800Y0010550D01*
X0064400Y0006150D02*
X0064150Y0005900D01*
X0064650D02*
X0064400Y0006150D01*
X0064150Y0005900D02*
X0064650D01*
X0064750Y0006900D02*
Y0006700D01*
X0064900Y0007050D02*
X0064750Y0006900D01*
X0065100Y0007050D02*
X0064900D01*
X0065250Y0006900D02*
X0065100Y0007050D01*
X0065250Y0006700D02*
Y0006900D01*
X0065100Y0006550D02*
X0065250Y0006700D01*
X0064900Y0006550D02*
X0065100D01*
X0064750Y0006700D02*
X0064900Y0006550D01*
X0066250Y0012000D02*
Y0011800D01*
X0066400Y0012150D02*
X0066250Y0012000D01*
X0066600Y0012150D02*
X0066400D01*
X0066750Y0012000D02*
X0066600Y0012150D01*
X0066750Y0011800D02*
Y0012000D01*
X0066600Y0011650D02*
X0066750Y0011800D01*
X0066400Y0011650D02*
X0066600D01*
X0066250Y0011800D02*
X0066400Y0011650D01*
X0067950Y0008400D02*
Y0008200D01*
X0068100Y0008550D02*
X0067950Y0008400D01*
X0068300Y0008550D02*
X0068100D01*
X0068450Y0008400D02*
X0068300Y0008550D01*
X0068450Y0008200D02*
Y0008400D01*
X0068300Y0008050D02*
X0068450Y0008200D01*
X0068100Y0008050D02*
X0068300D01*
X0067950Y0008200D02*
X0068100Y0008050D01*
X0065250Y0007500D02*
Y0007300D01*
X0065400Y0007650D02*
X0065250Y0007500D01*
X0065600Y0007650D02*
X0065400D01*
X0065750Y0007500D02*
X0065600Y0007650D01*
X0065750Y0007300D02*
Y0007500D01*
X0065600Y0007150D02*
X0065750Y0007300D01*
X0065400Y0007150D02*
X0065600D01*
X0065250Y0007300D02*
X0065400Y0007150D01*
X0053300Y-0002050D02*
X0053050Y-0002300D01*
X0053550D02*
X0053300Y-0002050D01*
X0053050Y-0002300D02*
X0053550D01*
X0064400Y-0000850D02*
X0064150Y-0001100D01*
X0064650D02*
X0064400Y-0000850D01*
X0064150Y-0001100D02*
X0064650D01*
X0001575Y-0016650D02*
Y-0016850D01*
X0001825Y-0016900D02*
X0001575Y-0016650D01*
X0002075D02*
X0001825Y-0016900D01*
X0002075Y-0016850D02*
Y-0016650D01*
X0001825Y-0016600D02*
X0002075Y-0016850D01*
X0001575D02*
X0001825Y-0016600D01*
X0001575Y-0015000D02*
Y-0015250D01*
X0001825Y-0015000D02*
X0001575D01*
X0001825Y-0015500D02*
Y-0015000D01*
X0002075Y-0015500D02*
X0001825D01*
X0002075Y-0015250D02*
Y-0015500D01*
X0001575Y-0015250D02*
X0002075D01*
X0001575Y-0013500D02*
Y-0014000D01*
X0002075Y-0013500D02*
X0001575D01*
X0002075Y-0014000D02*
Y-0013500D01*
X0001575Y-0014000D02*
X0002075D01*
Y-0013750D02*
X0001575D01*
X0001825Y-0013500D02*
Y-0014000D01*
X0001575Y-0012000D02*
Y-0012500D01*
X0002075Y-0012000D02*
X0001575D01*
X0002075Y-0012500D02*
Y-0012000D01*
X0001575Y-0012500D02*
X0002075D01*
Y-0012000D02*
X0001575Y-0012500D01*
X0002075D02*
X0001575Y-0012000D01*
X0001825Y-0010500D02*
X0001575Y-0010750D01*
X0002075D02*
X0001825Y-0010500D01*
Y-0011000D02*
X0002075Y-0010750D01*
X0001575D02*
X0001825Y-0011000D01*
X0002075Y-0009250D02*
X0001575D01*
X0001825Y-0009000D02*
Y-0009500D01*
X0002075Y-0007500D02*
X0001575Y-0008000D01*
X0002075D02*
X0001575Y-0007500D01*
X0001825Y-0006100D02*
X0001575Y-0006350D01*
X0002075D02*
X0001825Y-0006100D01*
X0001575Y-0006350D02*
X0002075D01*
X0001575Y-0004650D02*
Y-0004850D01*
X0001725Y-0004500D02*
X0001575Y-0004650D01*
X0001925Y-0004500D02*
X0001725D01*
X0002075Y-0004650D02*
X0001925Y-0004500D01*
X0002075Y-0004850D02*
Y-0004650D01*
X0001925Y-0005000D02*
X0002075Y-0004850D01*
X0001725Y-0005000D02*
X0001925D01*
X0001575Y-0004850D02*
X0001725Y-0005000D01*
X0037300Y-0019550D02*
X-0000050D01*
X0037250Y-0019500D02*
X0000000D01*
X0037250Y-0017500D02*
X0000000D01*
X0037250Y-0016000D02*
X0000000D01*
X0037250Y-0014500D02*
X0000000D01*
X0037250Y-0013000D02*
X0000000D01*
X0037250Y-0011500D02*
X0000000D01*
X0037250Y-0010000D02*
X0000000D01*
X0037250Y-0008500D02*
X0000000D01*
X0037250Y-0007000D02*
X0000000D01*
X0037250Y-0005500D02*
X0000000D01*
X0037250Y-0004000D02*
X0000000D01*
X0037250Y-0003950D02*
X0000000D01*
X0037250Y-0002000D02*
X0000000D01*
X0037250Y-0001950D02*
X0000000D01*
X0037250Y0000000D02*
X0000000D01*
X0037300Y0000050D02*
X-0000050D01*
X0037300Y-0019500D02*
Y0000000D01*
X0037250Y-0019500D02*
Y0000000D01*
X0025708Y-0019500D02*
Y-0002000D01*
X0020158Y-0019500D02*
Y-0002000D01*
X0012092Y-0017500D02*
Y-0002000D01*
X0003700Y-0017500D02*
Y-0002000D01*
X0003650Y-0017500D02*
Y-0002000D01*
X-0000050Y-0019500D02*
Y0000000D01*
X0000000Y-0019500D02*
Y0000000D01*
X-0001943Y0001195D02*
Y0000695D01*
X-0001443Y0001195D02*
X-0001943D01*
X-0001443Y0000695D02*
Y0001195D01*
X-0001943Y0000695D02*
X-0001443D01*
Y0001195D02*
X-0001943Y0000695D01*
X-0001443D02*
X-0001943Y0001195D01*
X-0000250D02*
Y0000695D01*
X0000250Y0001195D02*
X-0000250D01*
X0000250Y0000695D02*
Y0001195D01*
X-0000250Y0000695D02*
X0000250D01*
Y0001195D02*
X-0000250Y0000695D01*
X0000250D02*
X-0000250Y0001195D01*
X0001443D02*
Y0000695D01*
X0001943Y0001195D02*
X0001443D01*
X0001943Y0000695D02*
Y0001195D01*
X0001443Y0000695D02*
X0001943D01*
Y0001195D02*
X0001443Y0000695D01*
X0001943D02*
X0001443Y0001195D01*
X-0001943Y-0000656D02*
Y-0001156D01*
X-0001443Y-0000656D02*
X-0001943D01*
X-0001443Y-0001156D02*
Y-0000656D01*
X-0001943Y-0001156D02*
X-0001443D01*
Y-0000656D02*
X-0001943Y-0001156D01*
X-0001443D02*
X-0001943Y-0000656D01*
X-0000250Y-0000695D02*
Y-0001195D01*
X0000250Y-0000695D02*
X-0000250D01*
X0000250Y-0001195D02*
Y-0000695D01*
X-0000250Y-0001195D02*
X0000250D01*
Y-0000695D02*
X-0000250Y-0001195D01*
X0000250D02*
X-0000250Y-0000695D01*
X0001443D02*
Y-0001195D01*
X0001943Y-0000695D02*
X0001443D01*
X0001943Y-0001195D02*
Y-0000695D01*
X0001443Y-0001195D02*
X0001943D01*
Y-0000695D02*
X0001443Y-0001195D01*
X0001943D02*
X0001443Y-0000695D01*
X0056955Y0000250D02*
Y-0000250D01*
X0057455Y0000250D02*
X0056955D01*
X0057455Y-0000250D02*
Y0000250D01*
X0056955Y-0000250D02*
X0057455D01*
Y0000250D02*
X0056955Y-0000250D01*
X0057455D02*
X0056955Y0000250D01*
X0055262D02*
Y-0000250D01*
X0055762Y0000250D02*
X0055262D01*
X0055762Y-0000250D02*
Y0000250D01*
X0055262Y-0000250D02*
X0055762D01*
Y0000250D02*
X0055262Y-0000250D01*
X0055762D02*
X0055262Y0000250D01*
X0053569D02*
Y-0000250D01*
X0054069Y0000250D02*
X0053569D01*
X0054069Y-0000250D02*
Y0000250D01*
X0053569Y-0000250D02*
X0054069D01*
Y0000250D02*
X0053569Y-0000250D01*
X0054069D02*
X0053569Y0000250D01*
X0116797D02*
Y-0000250D01*
X0117297Y0000250D02*
X0116797D01*
X0117297Y-0000250D02*
Y0000250D01*
X0116797Y-0000250D02*
X0117297D01*
Y0000250D02*
X0116797Y-0000250D01*
X0117297D02*
X0116797Y0000250D01*
X0115104D02*
Y-0000250D01*
X0115604Y0000250D02*
X0115104D01*
X0115604Y-0000250D02*
Y0000250D01*
X0115104Y-0000250D02*
X0115604D01*
Y0000250D02*
X0115104Y-0000250D01*
X0115604D02*
X0115104Y0000250D01*
X0113411D02*
Y-0000250D01*
X0113911Y0000250D02*
X0113411D01*
X0113911Y-0000250D02*
Y0000250D01*
X0113411Y-0000250D02*
X0113911D01*
Y0000250D02*
X0113411Y-0000250D01*
X0113911D02*
X0113411Y0000250D01*
X0086876Y-0000695D02*
Y-0001195D01*
X0087376Y-0000695D02*
X0086876D01*
X0087376Y-0001195D02*
Y-0000695D01*
X0086876Y-0001195D02*
X0087376D01*
Y-0000695D02*
X0086876Y-0001195D01*
X0087376D02*
X0086876Y-0000695D01*
X0085183D02*
Y-0001195D01*
X0085683Y-0000695D02*
X0085183D01*
X0085683Y-0001195D02*
Y-0000695D01*
X0085183Y-0001195D02*
X0085683D01*
Y-0000695D02*
X0085183Y-0001195D01*
X0085683D02*
X0085183Y-0000695D01*
X0083490D02*
Y-0001195D01*
X0083990Y-0000695D02*
X0083490D01*
X0083990Y-0001195D02*
Y-0000695D01*
X0083490Y-0001195D02*
X0083990D01*
Y-0000695D02*
X0083490Y-0001195D01*
X0083990D02*
X0083490Y-0000695D01*
X0086876Y0001156D02*
Y0000656D01*
X0087376Y0001156D02*
X0086876D01*
X0087376Y0000656D02*
Y0001156D01*
X0086876Y0000656D02*
X0087376D01*
Y0001156D02*
X0086876Y0000656D01*
X0087376D02*
X0086876Y0001156D01*
X0085183Y0001195D02*
Y0000695D01*
X0085683Y0001195D02*
X0085183D01*
X0085683Y0000695D02*
Y0001195D01*
X0085183Y0000695D02*
X0085683D01*
Y0001195D02*
X0085183Y0000695D01*
X0085683D02*
X0085183Y0001195D01*
X0083490D02*
Y0000695D01*
X0083990Y0001195D02*
X0083490D01*
X0083990Y0000695D02*
Y0001195D01*
X0083490Y0000695D02*
X0083990D01*
Y0001195D02*
X0083490Y0000695D01*
X0083990D02*
X0083490Y0001195D01*
X0027191Y0000250D02*
Y-0000250D01*
X0027691Y0000250D02*
X0027191D01*
X0027691Y-0000250D02*
Y0000250D01*
X0027191Y-0000250D02*
X0027691D01*
Y0000250D02*
X0027191Y-0000250D01*
X0027691D02*
X0027191Y0000250D01*
X0028884D02*
Y-0000250D01*
X0029384Y0000250D02*
X0028884D01*
X0029384Y-0000250D02*
Y0000250D01*
X0028884Y-0000250D02*
X0029384D01*
Y0000250D02*
X0028884Y-0000250D01*
X0029384D02*
X0028884Y0000250D01*
X0030577D02*
Y-0000250D01*
X0031077Y0000250D02*
X0030577D01*
X0031077Y-0000250D02*
Y0000250D01*
X0030577Y-0000250D02*
X0031077D01*
Y0000250D02*
X0030577Y-0000250D01*
X0031077D02*
X0030577Y0000250D01*
X0093057Y0010880D02*
Y0010630D01*
X0093307Y0010880D02*
X0093057D01*
X0093307Y0010380D02*
Y0010880D01*
X0093557Y0010380D02*
X0093307D01*
X0093557Y0010630D02*
Y0010380D01*
X0093057Y0010630D02*
X0093557D01*
X0091797Y0013675D02*
Y0013425D01*
X0092047Y0013675D02*
X0091797D01*
X0092047Y0013175D02*
Y0013675D01*
X0092297Y0013175D02*
X0092047D01*
X0092297Y0013425D02*
Y0013175D01*
X0091797Y0013425D02*
X0092297D01*
X0094317Y0013675D02*
Y0013425D01*
X0094567Y0013675D02*
X0094317D01*
X0094567Y0013175D02*
Y0013675D01*
X0094817Y0013175D02*
X0094567D01*
X0094817Y0013425D02*
Y0013175D01*
X0094317Y0013425D02*
X0094817D01*
X0077309Y0010880D02*
Y0010630D01*
X0077559Y0010880D02*
X0077309D01*
X0077559Y0010380D02*
Y0010880D01*
X0077809Y0010380D02*
X0077559D01*
X0077809Y0010630D02*
Y0010380D01*
X0077309Y0010630D02*
X0077809D01*
X0076049Y0013675D02*
Y0013425D01*
X0076299Y0013675D02*
X0076049D01*
X0076299Y0013175D02*
Y0013675D01*
X0076549Y0013175D02*
X0076299D01*
X0076549Y0013425D02*
Y0013175D01*
X0076049Y0013425D02*
X0076549D01*
X0078569Y0013675D02*
Y0013425D01*
X0078819Y0013675D02*
X0078569D01*
X0078819Y0013175D02*
Y0013675D01*
X0079069Y0013175D02*
X0078819D01*
X0079069Y0013425D02*
Y0013175D01*
X0078569Y0013425D02*
X0079069D01*
X0115104Y0010880D02*
Y0010630D01*
X0115354Y0010880D02*
X0115104D01*
X0115354Y0010380D02*
Y0010880D01*
X0115604Y0010380D02*
X0115354D01*
X0115604Y0010630D02*
Y0010380D01*
X0115104Y0010630D02*
X0115604D01*
X0113844Y0013675D02*
Y0013425D01*
X0114094Y0013675D02*
X0113844D01*
X0114094Y0013175D02*
Y0013675D01*
X0114344Y0013175D02*
X0114094D01*
X0114344Y0013425D02*
Y0013175D01*
X0113844Y0013425D02*
X0114344D01*
X0116364Y0013675D02*
Y0013425D01*
X0116614Y0013675D02*
X0116364D01*
X0116614Y0013175D02*
Y0013675D01*
X0116864Y0013175D02*
X0116614D01*
X0116864Y0013425D02*
Y0013175D01*
X0116364Y0013425D02*
X0116864D01*
X0133215Y0009943D02*
Y0009743D01*
X0133465Y0009693D02*
X0133215Y0009943D01*
X0133715D02*
X0133465Y0009693D01*
X0133715Y0009743D02*
Y0009943D01*
X0133465Y0009993D02*
X0133715Y0009743D01*
X0133215D02*
X0133465Y0009993D01*
X0133215Y0017817D02*
Y0017617D01*
X0133465Y0017567D02*
X0133215Y0017817D01*
X0133715D02*
X0133465Y0017567D01*
X0133715Y0017617D02*
Y0017817D01*
X0133465Y0017867D02*
X0133715Y0017617D01*
X0133215D02*
X0133465Y0017867D01*
X0019435Y0009943D02*
Y0009743D01*
X0019685Y0009693D02*
X0019435Y0009943D01*
X0019935D02*
X0019685Y0009693D01*
X0019935Y0009743D02*
Y0009943D01*
X0019685Y0009993D02*
X0019935Y0009743D01*
X0019435D02*
X0019685Y0009993D01*
X0019435Y0017817D02*
Y0017617D01*
X0019685Y0017567D02*
X0019435Y0017817D01*
X0019935D02*
X0019685Y0017567D01*
X0019935Y0017617D02*
Y0017817D01*
X0019685Y0017867D02*
X0019935Y0017617D01*
X0019435D02*
X0019685Y0017867D01*
X0009500Y0016250D02*
X0009250Y0016000D01*
X0009750D02*
X0009500Y0016250D01*
Y0015750D02*
X0009750Y0016000D01*
X0009250D02*
X0009500Y0015750D01*
Y0012250D02*
X0009250Y0012000D01*
X0009750D02*
X0009500Y0012250D01*
Y0011750D02*
X0009750Y0012000D01*
X0009250D02*
X0009500Y0011750D01*
X0123500Y0015750D02*
X0123250Y0015500D01*
X0123750D02*
X0123500Y0015750D01*
Y0015250D02*
X0123750Y0015500D01*
X0123250D02*
X0123500Y0015250D01*
Y0011750D02*
X0123250Y0011500D01*
X0123750D02*
X0123500Y0011750D01*
Y0011250D02*
X0123750Y0011500D01*
X0123250D02*
X0123500Y0011250D01*
X0067750Y0003500D02*
X0067250D01*
X0067500Y0003750D02*
Y0003250D01*
X0067750Y0002500D02*
X0067250D01*
X0067500Y0002750D02*
Y0002250D01*
X0066750Y0003500D02*
X0066250D01*
X0066500Y0003750D02*
Y0003250D01*
X0066750Y0002500D02*
X0066250D01*
X0066500Y0002750D02*
Y0002250D01*
X0065750Y0003500D02*
X0065250D01*
X0065500Y0003750D02*
Y0003250D01*
X0065750Y0002500D02*
X0065250D01*
X0065500Y0002750D02*
Y0002250D01*
X0064750Y0003500D02*
X0064250D01*
X0064500Y0003750D02*
Y0003250D01*
X0064750Y0002500D02*
X0064250D01*
X0064500Y0002750D02*
Y0002250D01*
X0063750Y0003500D02*
X0063250D01*
X0063500Y0003750D02*
Y0003250D01*
X0063750Y0002500D02*
X0063250D01*
X0063500Y0002750D02*
Y0002250D01*
X0062750Y0003500D02*
X0062250D01*
X0062500Y0003750D02*
Y0003250D01*
X0062750Y0002500D02*
X0062250D01*
X0062500Y0002750D02*
Y0002250D01*
X0061750Y0003500D02*
X0061250D01*
X0061500Y0003750D02*
Y0003250D01*
X0061750Y0002500D02*
X0061250D01*
X0061500Y0002750D02*
Y0002250D01*
X0060750Y0003500D02*
X0060250D01*
X0060500Y0003750D02*
Y0003250D01*
X0060750Y0002500D02*
X0060250D01*
X0060500Y0002750D02*
Y0002250D01*
X0059750Y0003500D02*
X0059250D01*
X0059500Y0003750D02*
Y0003250D01*
X0059750Y0002500D02*
X0059250D01*
X0059500Y0002750D02*
Y0002250D01*
X0058750Y0003500D02*
X0058250D01*
X0058500Y0003750D02*
Y0003250D01*
X0058750Y0002500D02*
X0058250D01*
X0058500Y0002750D02*
Y0002250D01*
X0057750Y0003500D02*
X0057250D01*
X0057500Y0003750D02*
Y0003250D01*
X0057750Y0002500D02*
X0057250D01*
X0057500Y0002750D02*
Y0002250D01*
X0056750Y0003500D02*
X0056250D01*
X0056500Y0003750D02*
Y0003250D01*
X0056750Y0002500D02*
X0056250D01*
X0056500Y0002750D02*
Y0002250D01*
X0055750Y0003500D02*
X0055250D01*
X0055500Y0003750D02*
Y0003250D01*
X0055750Y0002500D02*
X0055250D01*
X0055500Y0002750D02*
Y0002250D01*
X0054750Y0003500D02*
X0054250D01*
X0054500Y0003750D02*
Y0003250D01*
X0054750Y0002500D02*
X0054250D01*
X0054500Y0002750D02*
Y0002250D01*
X0053750Y0003500D02*
X0053250D01*
X0053500Y0003750D02*
Y0003250D01*
X0053750Y0002500D02*
X0053250D01*
X0053500Y0002750D02*
Y0002250D01*
X0052750Y0003500D02*
X0052250D01*
X0052500Y0003750D02*
Y0003250D01*
X0052750Y0002500D02*
X0052250D01*
X0052500Y0002750D02*
Y0002250D01*
X0051750Y0003500D02*
X0051250D01*
X0051500Y0003750D02*
Y0003250D01*
X0051750Y0002500D02*
X0051250D01*
X0051500Y0002750D02*
Y0002250D01*
X0050750Y0003500D02*
X0050250D01*
X0050500Y0003750D02*
Y0003250D01*
X0050750Y0002500D02*
X0050250D01*
X0050500Y0002750D02*
Y0002250D01*
X0049750Y0003500D02*
X0049250D01*
X0049500Y0003750D02*
Y0003250D01*
X0049750Y0002500D02*
X0049250D01*
X0049500Y0002750D02*
Y0002250D01*
X0048750Y0003500D02*
X0048250D01*
X0048500Y0003750D02*
Y0003250D01*
X0048750Y0002500D02*
X0048250D01*
X0048500Y0002750D02*
Y0002250D01*
X0070750Y0003350D02*
Y0002850D01*
X0071250Y0003350D02*
X0070750D01*
X0071250Y0002850D02*
Y0003350D01*
X0070750Y0002850D02*
X0071250D01*
Y0003100D02*
X0070750D01*
X0071000Y0003350D02*
Y0002850D01*
X0044750Y0003350D02*
Y0002850D01*
X0045250Y0003350D02*
X0044750D01*
X0045250Y0002850D02*
Y0003350D01*
X0044750Y0002850D02*
X0045250D01*
Y0003100D02*
X0044750D01*
X0045000Y0003350D02*
Y0002850D01*
X0115604Y0021214D02*
X0115104Y0020714D01*
X0115604D02*
X0115104Y0021214D01*
X0115604Y0020230D02*
X0115104Y0019730D01*
X0115604D02*
X0115104Y0020230D01*
X0085683Y0021214D02*
X0085183Y0020714D01*
X0085683D02*
X0085183Y0021214D01*
X0085683Y0020230D02*
X0085183Y0019730D01*
X0085683D02*
X0085183Y0020230D01*
X0055762Y0014522D02*
X0055262Y0014022D01*
X0055762D02*
X0055262Y0014522D01*
X0055762Y0013538D02*
X0055262Y0013038D01*
X0055762D02*
X0055262Y0013538D01*
X0059699Y0010585D02*
X0059199Y0010085D01*
X0059699D02*
X0059199Y0010585D01*
X0059699Y0009601D02*
X0059199Y0009101D01*
X0059699D02*
X0059199Y0009601D01*
X0055762Y0018459D02*
X0055262Y0017959D01*
X0055762D02*
X0055262Y0018459D01*
X0055762Y0017475D02*
X0055262Y0016975D01*
X0055762D02*
X0055262Y0017475D01*
X0051825Y0010585D02*
X0051325Y0010085D01*
X0051825D02*
X0051325Y0010585D01*
X0051825Y0009601D02*
X0051325Y0009101D01*
X0051825D02*
X0051325Y0009601D01*
X0000250Y0010585D02*
X-0000250Y0010085D01*
X0000250D02*
X-0000250Y0010585D01*
X0000250Y0009601D02*
X-0000250Y0009101D01*
X0000250D02*
X-0000250Y0009601D01*
X0029384Y0014522D02*
X0028884Y0014022D01*
X0029384D02*
X0028884Y0014522D01*
X0029384Y0013538D02*
X0028884Y0013038D01*
X0029384D02*
X0028884Y0013538D01*
X0029384Y0018459D02*
X0028884Y0017959D01*
X0029384D02*
X0028884Y0018459D01*
X0029384Y0017475D02*
X0028884Y0016975D01*
X0029384D02*
X0028884Y0017475D01*
G54D39*
G01X-0009600Y0025600D02*
Y-0005500D01*
X0139700D01*
Y0025600D01*
X-0009600D01*
M02*
