%
T1C0.0150F200S100
X057200Y-003100
X065000Y006800
X065500Y007400
X066500Y011900
X067400Y008700
X068200Y008300
X068900Y010800
T2C0.0275F200S100
X000000Y009351
X000000Y010335
X029134Y013288
X029134Y014272
X029134Y017225
X029134Y018209
X051575Y009351
X051575Y010335
X053300Y-002200
X055512Y013288
X055512Y014272
X055512Y017225
X055512Y018209
X059449Y009351
X059449Y010335
X059500Y008000
X061500Y000100
X062500Y000700
X064400Y-001000
X064400Y006000
X085433Y019980
X085433Y020964
X115354Y019980
X115354Y020964
T5C0.0906F200S100
X-001693Y-000906
X000000Y-000945
X000000Y000945
X-001693Y000945
X001693Y-000945
X001693Y000945
X027441Y000000
X029134Y000000
X030827Y000000
X053819Y000000
X055512Y000000
X057205Y000000
X083740Y-000945
X083740Y000945
X085433Y-000945
X087126Y-000945
X087126Y000906
X085433Y000945
X113661Y000000
X115354Y000000
X117047Y000000
T3C0.0420F200S100
X048500Y002500
X048500Y003500
X049500Y002500
X049500Y003500
X050500Y002500
X050500Y003500
X051500Y002500
X051500Y003500
X052500Y002500
X052500Y003500
X053500Y002500
X053500Y003500
X054500Y002500
X054500Y003500
X055500Y002500
X055500Y003500
X056500Y002500
X056500Y003500
X057500Y002500
X057500Y003500
X058500Y002500
X058500Y003500
X059500Y002500
X059500Y003500
X060500Y002500
X060500Y003500
X061500Y002500
X061500Y003500
X062500Y002500
X062500Y003500
X063500Y002500
X063500Y003500
X064500Y002500
X064500Y003500
X065500Y002500
X065500Y003500
X066500Y002500
X066500Y003500
X067500Y002500
X067500Y003500
T6C0.1160F200S100
X045000Y003100
X071000Y003100
T4C0.0700F200S100
X009500Y012000
X009500Y016000
X123500Y011500
X123500Y015500
T8C0.3543F200S100
X019685Y009843
X019685Y017717
X133465Y009843
X133465Y017717
T7C0.1220F200S100
X076299Y013425
X077559Y010630
X078819Y013425
X092047Y013425
X093307Y010630
X094567Y013425
X114094Y013425
X115354Y010630
X116614Y013425
M30
