* 
%FSLAX23Y23*%
%MOIN*%
%AD*%
%ADD10C, 0.002*%
%ADD11C, 0.005*%
%ADD12C, 0.008*%
%ADD13C, 0.010*%
%ADD14C, 0.015*%
%ADD15C, 0.020*%
%ADD16R, 0.025X0.060*%
%ADD17C, 0.025*%
%ADD18C, 0.025*%
%ADD19C, 0.029*%
%ADD70C, 0.030*%
%ADD71C, 0.030*%
%ADD20C, 0.035*%
%ADD21C, 0.039*%
%ADD22R, 0.039X0.055*%
%ADD23R, 0.040X0.048*%
%ADD24C, 0.040*%
%ADD25C, 0.040*%
%ADD26R, 0.042X0.055*%
%ADD27R, 0.042X0.055*%
%ADD28C, 0.045*%
%ADD29C, 0.048*%
%ADD72C, 0.050*%
%ADD73C, 0.050*%
%ADD30R, 0.051X0.079*%
%ADD31R, 0.051X0.079*%
%ADD32C, 0.055*%
%ADD33R, 0.055X0.055*%
%ADD34C, 0.055*%
%ADD35R, 0.055X0.055*%
%ADD36R, 0.055X0.042*%
%ADD37R, 0.055X0.039*%
%ADD38C, 0.059*%
%ADD39R, 0.060X0.025*%
%ADD40C, 0.060*%
%ADD41R, 0.060X0.060*%
%ADD42C, 0.060*%
%ADD43R, 0.062X0.062*%
%ADD44R, 0.062X0.062*%
%ADD45R, 0.062X0.062*%
%ADD46R, 0.063X0.118*%
%ADD47R, 0.063X0.118*%
%ADD48R, 0.063X0.118*%
%ADD49C, 0.065*%
%ADD50R, 0.065X0.065*%
%ADD52C, 0.075*%
%ADD53R, 0.078X0.110*%
%ADD54R, 0.078X0.110*%
%ADD55R, 0.079X0.079*%
%ADD56C, 0.080*%
%ADD57C, 0.085*%
%ADD58R, 0.085X0.100*%
%ADD59R, 0.085X0.110*%
%ADD60C, 0.086*%
%ADD61R, 0.086X0.027*%
%ADD62C, 0.090*%
%ADD63R, 0.090X0.085*%
%ADD64R, 0.090X0.085*%
%ADD65R, 0.090X0.085*%
%ADD66R, 0.094X0.031*%
%ADD67R, 0.095X0.160*%
%ADD68C, 0.100*%
%ADD69R, 0.130X0.235*%
%ADD74C, 0.150*%
%ADD75C, 0.208*%
%ADD76R, 0.235X0.130*%
%ADD77R, 0.235X0.130*%
%ADD78R, 0.264X0.264*%
%ADD79R, 0.264X0.264*%
%ADD80R, 0.264X0.264*%
%ADD81R, 0.395X0.125*%
%ADD82R, 0.395X0.125*%
G54D11*G1X04290Y09608D2*G1X04290Y09610D1*G1X04316Y09610D1*G1X04316Y09610D2*G1X04978Y09612D2*G1X04978Y09613D1*G1X05005Y09613D1*G1X05005Y09613D2*G1X04992Y09628D2*G1X04992Y09597D1*G1X04992Y09597D2*G1X05187Y11158D2*G1X05187Y11127D1*G1X05187Y11127D2*G1X05174Y11142D2*G1X05174Y11143D1*G1X05200Y11143D1*G1X05200Y11143D2*G1X04303Y09625D2*G1X04303Y09594D1*G1X04303Y09594D2*G54D12*G1X15108Y09865D2*G1X15108Y09668D1*G1X15194Y09668D1*G1X15194Y09865D1*G1X15108Y09865D1*G1X15108Y09865D2*G1X14359Y10772D2*G1X14319Y10732D1*G1X14319Y10732D2*G1X14359Y10732D2*G1X14359Y11062D1*G1X14229Y11062D1*G1X14229Y10732D1*G1X14359Y10732D1*G1X14359Y10732D2*G1X11347Y11263D2*G1X10651Y11263D1*G1X10651Y12020D1*G1X11347Y12020D1*G1X11347Y11263D1*G1X11347Y11263D2*G1X12168Y05103D2*G1X12168Y04906D1*G1X12254Y04906D1*G1X12254Y05103D1*G1X12168Y05103D1*G1X12168Y05103D2*G1X16012Y11262D2*G1X15316Y11262D1*G1X15316Y12019D1*G1X16012Y12019D1*G1X16012Y11262D1*G1X16012Y11262D2*G1X15271Y05223D2*G1X15074Y05223D1*G1X15074Y05136D1*G1X15271Y05136D1*G1X15271Y05223D1*G1X15271Y05223D2*G1X15078Y05397D2*G1X15078Y05247D1*G1X15157Y05247D1*G1X15157Y05397D1*G1X15078Y05397D1*G1X15078Y05397D2*G1X12937Y05300D2*G1X13087Y05300D1*G1X13087Y05379D1*G1X12937Y05379D1*G1X12937Y05300D1*G1X12937Y05300D2*G1X14374Y08242D2*G1X14374Y08093D1*G1X14452Y08093D1*G1X14452Y08242D1*G1X14374Y08242D1*G1X14374Y08242D2*G1X10899Y10681D2*G1X10749Y10681D1*G1X10749Y10602D1*G1X10899Y10602D1*G1X10899Y10681D1*G1X10899Y10681D2*G1X11366Y10651D2*G1X11516Y10651D1*G1X11516Y10730D1*G1X11366Y10730D1*G1X11366Y10651D1*G1X11366Y10651D2*G1X13863Y10382D2*G1X13863Y10185D1*G1X13950Y10185D1*G1X13950Y10382D1*G1X13863Y10382D1*G1X13863Y10382D2*G1X11974Y08884D2*G1X11974Y09034D1*G1X11896Y09034D1*G1X11896Y08884D1*G1X11974Y08884D1*G1X11974Y08884D2*G1X15731Y10563D2*G1X15731Y10414D1*G1X15809Y10414D1*G1X15809Y10563D1*G1X15731Y10563D1*G1X15731Y10563D2*G1X15710Y10375D2*G1X15710Y10572D1*G1X15624Y10572D1*G1X15624Y10375D1*G1X15710Y10375D1*G1X15710Y10375D2*G1X15529Y10684D2*G1X15529Y10487D1*G1X15616Y10487D1*G1X15616Y10684D1*G1X15529Y10684D1*G1X15529Y10684D2*G1X15529Y10458D2*G1X15529Y10261D1*G1X15616Y10261D1*G1X15616Y10458D1*G1X15529Y10458D1*G1X15529Y10458D2*G1X15425Y10717D2*G1X15425Y10520D1*G1X15512Y10520D1*G1X15512Y10717D1*G1X15425Y10717D1*G1X15425Y10717D2*G1X15026Y10710D2*G1X15026Y10907D1*G1X14939Y10907D1*G1X14939Y10710D1*G1X15026Y10710D1*G1X15026Y10710D2*G1X15095Y10606D2*G1X15233Y10606D1*G1X15233Y10771D1*G1X15095Y10771D1*G1X15095Y10606D1*G1X15095Y10606D2*G1X16009Y10554D2*G1X16009Y10534D1*G1X16060Y10534D1*G1X16060Y10554D1*G1X16009Y10554D1*G1X16009Y10554D2*G1X15989Y10554D2*G1X15989Y10352D1*G1X16080Y10352D1*G1X16080Y10554D1*G1X15989Y10554D1*G1X15989Y10554D2*G1X14913Y10288D2*G1X15051Y10288D1*G1X15051Y10453D1*G1X14913Y10453D1*G1X14913Y10288D1*G1X14913Y10288D2*G1X14878Y10371D2*G1X14681Y10371D1*G1X14681Y10284D1*G1X14878Y10284D1*G1X14878Y10371D1*G1X14878Y10371D2*G1X15382Y10377D2*G1X15185Y10377D1*G1X15185Y10291D1*G1X15382Y10291D1*G1X15382Y10377D1*G1X15382Y10377D2*G1X15342Y10491D2*G1X15342Y10688D1*G1X15255Y10688D1*G1X15255Y10491D1*G1X15342Y10491D1*G1X15342Y10491D2*G1X14914Y10519D2*G1X15052Y10519D1*G1X15052Y10684D1*G1X14914Y10684D1*G1X14914Y10519D1*G1X14914Y10519D2*G1X14878Y10601D2*G1X14681Y10601D1*G1X14681Y10515D1*G1X14878Y10515D1*G1X14878Y10601D1*G1X14878Y10601D2*G1X15282Y10957D2*G1X15085Y10957D1*G1X15085Y10870D1*G1X15282Y10870D1*G1X15282Y10957D1*G1X15282Y10957D2*G1X15343Y10895D2*G1X15343Y10757D1*G1X15508Y10757D1*G1X15508Y10895D1*G1X15343Y10895D1*G1X15343Y10895D2*G1X13865Y09552D2*G1X13825Y09512D1*G1X13825Y09512D2*G1X13865Y09512D2*G1X13865Y09842D1*G1X13735Y09842D1*G1X13735Y09512D1*G1X13865Y09512D1*G1X13865Y09512D2*G1X15026Y09341D2*G1X14986Y09381D1*G1X14986Y09381D2*G1X14986Y09341D2*G1X15316Y09341D1*G1X15316Y09471D1*G1X14986Y09471D1*G1X14986Y09341D1*G1X14986Y09341D2*G1X15206Y09926D2*G1X15344Y09926D1*G1X15344Y10092D1*G1X15206Y10092D1*G1X15206Y09926D1*G1X15206Y09926D2*G1X05078Y08949D2*G1X05216Y08949D1*G1X05216Y09114D1*G1X05078Y09114D1*G1X05078Y08949D1*G1X05078Y08949D2*G1X13238Y11027D2*G1X13238Y11224D1*G1X13152Y11224D1*G1X13152Y11027D1*G1X13238Y11027D1*G1X13238Y11027D2*G1X13345Y11027D2*G1X13345Y11223D1*G1X13259Y11223D1*G1X13259Y11027D1*G1X13345Y11027D1*G1X13345Y11027D2*G1X13450Y11025D2*G1X13450Y11222D1*G1X13364Y11222D1*G1X13364Y11025D1*G1X13450Y11025D1*G1X13450Y11025D2*G1X13873Y10697D2*G1X13823Y10697D1*G1X13823Y10597D1*G1X13873Y10597D1*G1X13873Y10697D1*G1X13873Y10697D2*G1X13873Y10747D2*G1X13073Y10747D1*G1X13073Y10547D1*G1X13873Y10547D1*G1X13873Y10747D1*G1X13873Y10747D2*G1X15071Y05000D2*G1X15268Y05000D1*G1X15268Y05086D1*G1X15071Y05086D1*G1X15071Y05000D1*G1X15071Y05000D2*G1X09773Y11263D2*G1X09077Y11263D1*G1X09077Y12020D1*G1X09773Y12020D1*G1X09773Y11263D1*G1X09773Y11263D2*G1X07859Y06103D2*G1X08008Y06103D1*G1X08008Y06181D1*G1X07859Y06181D1*G1X07859Y06103D1*G1X07859Y06103D2*G1X05380Y09740D2*G1X05380Y10882D1*G1X04868Y10882D1*G1X04868Y09740D1*G1X05380Y09740D1*G1X05380Y09740D2*G1X12489Y09885D2*G1X12292Y09885D1*G1X12292Y09798D1*G1X12489Y09798D1*G1X12489Y09885D1*G1X12489Y09885D2*G1X12110Y09495D2*G1X12070Y09535D1*G1X12070Y09535D2*G1X12070Y09495D2*G1X12400Y09495D1*G1X12400Y09625D1*G1X12070Y09625D1*G1X12070Y09495D1*G1X12070Y09495D2*G1X10564Y10945D2*G1X10514Y10945D1*G1X10514Y10845D1*G1X10564Y10845D1*G1X10564Y10945D1*G1X10564Y10945D2*G1X10564Y10995D2*G1X09764Y10995D1*G1X09764Y10795D1*G1X10564Y10795D1*G1X10564Y10995D1*G1X10564Y10995D2*G1X13679Y10382D2*G1X13679Y10185D1*G1X13766Y10185D1*G1X13766Y10382D1*G1X13679Y10382D1*G1X13679Y10382D2*G1X13480Y10382D2*G1X13480Y10185D1*G1X13566Y10185D1*G1X13566Y10382D1*G1X13480Y10382D1*G1X13480Y10382D2*G1X13279Y10382D2*G1X13279Y10185D1*G1X13366Y10185D1*G1X13366Y10382D1*G1X13279Y10382D1*G1X13279Y10382D2*G1X14468Y10186D2*G1X14468Y10382D1*G1X14381Y10382D1*G1X14381Y10186D1*G1X14468Y10186D1*G1X14468Y10186D2*G1X14310Y09790D2*G1X14310Y09986D1*G1X14223Y09986D1*G1X14223Y09790D1*G1X14310Y09790D1*G1X14310Y09790D2*G1X14159Y09791D2*G1X14159Y09988D1*G1X14073Y09988D1*G1X14073Y09791D1*G1X14159Y09791D1*G1X14159Y09791D2*G1X14041Y10174D2*G1X14001Y10214D1*G1X14001Y10214D2*G1X14001Y10174D2*G1X14331Y10174D1*G1X14331Y10304D1*G1X14001Y10304D1*G1X14001Y10174D1*G1X14001Y10174D2*G1X11584Y05009D2*G1X11634Y05009D1*G1X11634Y05109D1*G1X11584Y05109D1*G1X11584Y05009D1*G1X11584Y05009D2*G1X11584Y04959D2*G1X11984Y04959D1*G1X11984Y05159D1*G1X11584Y05159D1*G1X11584Y04959D1*G1X11584Y04959D2*G1X10371Y10599D2*G1X10568Y10599D1*G1X10568Y10685D1*G1X10371Y10685D1*G1X10371Y10599D1*G1X10371Y10599D2*G1X13130Y11030D2*G1X13130Y11227D1*G1X13044Y11227D1*G1X13044Y11030D1*G1X13130Y11030D1*G1X13130Y11030D2*G1X12596Y11029D2*G1X12596Y11226D1*G1X12509Y11226D1*G1X12509Y11029D1*G1X12596Y11029D1*G1X12596Y11029D2*G1X10708Y10697D2*G1X10905Y10697D1*G1X10905Y10784D1*G1X10708Y10784D1*G1X10708Y10697D1*G1X10708Y10697D2*G1X11186Y10613D2*G1X11186Y10633D1*G1X11147Y10633D1*G1X11147Y10613D1*G1X11186Y10613D1*G1X11186Y10613D2*G1X11206Y10613D2*G1X11206Y10814D1*G1X11127Y10814D1*G1X11127Y10613D1*G1X11206Y10613D1*G1X11206Y10613D2*G1X08188Y06181D2*G1X08039Y06181D1*G1X08039Y06103D1*G1X08188Y06103D1*G1X08188Y06181D1*G1X08188Y06181D2*G1X08193Y05918D2*G1X07853Y05918D1*G1X07853Y05918D2*G1X08193Y06058D2*G1X07853Y06058D1*G1X07853Y05898D1*G1X08193Y05898D1*G1X08193Y06058D1*G1X08193Y06058D2*G1X16182Y07218D2*G1X16182Y07068D1*G1X16261Y07068D1*G1X16261Y07218D1*G1X16182Y07218D1*G1X16182Y07218D2*G1X17308Y06938D2*G1X17308Y07134D1*G1X17222Y07134D1*G1X17222Y06938D1*G1X17308Y06938D1*G1X17308Y06938D2*G1X13025Y09498D2*G1X12828Y09498D1*G1X12828Y09411D1*G1X13025Y09411D1*G1X13025Y09498D1*G1X13025Y09498D2*G1X12938Y11227D2*G1X12938Y11030D1*G1X13025Y11030D1*G1X13025Y11227D1*G1X12938Y11227D1*G1X12938Y11227D2*G1X16360Y07209D2*G1X16360Y07012D1*G1X16447Y07012D1*G1X16447Y07209D1*G1X16360Y07209D1*G1X16360Y07209D2*G1X17116Y07093D2*G1X17116Y06943D1*G1X17194Y06943D1*G1X17194Y07093D1*G1X17116Y07093D1*G1X17116Y07093D2*G1X16605Y07018D2*G1X16605Y07168D1*G1X16526Y07168D1*G1X16526Y07018D1*G1X16605Y07018D1*G1X16605Y07018D2*G1X16699Y07018D2*G1X16699Y07168D1*G1X16620Y07168D1*G1X16620Y07018D1*G1X16699Y07018D1*G1X16699Y07018D2*G1X14933Y06792D2*G1X14893Y06832D1*G1X14893Y06832D2*G1X14893Y06792D2*G1X15273Y06792D1*G1X15273Y06922D1*G1X14893Y06922D1*G1X14893Y06792D1*G1X14893Y06792D2*G1X16412Y06885D2*G1X16609Y06885D1*G1X16609Y06971D1*G1X16412Y06971D1*G1X16412Y06885D1*G1X16412Y06885D2*G1X12520Y10421D2*G1X12520Y10224D1*G1X12607Y10224D1*G1X12607Y10421D1*G1X12520Y10421D1*G1X12520Y10421D2*G1X12322Y10420D2*G1X12322Y10223D1*G1X12408Y10223D1*G1X12408Y10420D1*G1X12322Y10420D1*G1X12322Y10420D2*G1X12121Y10420D2*G1X12121Y10223D1*G1X12208Y10223D1*G1X12208Y10420D1*G1X12121Y10420D1*G1X12121Y10420D2*G1X13006Y09612D2*G1X12966Y09652D1*G1X12966Y09652D2*G1X12714Y10696D2*G1X12664Y10696D1*G1X12664Y10596D1*G1X12714Y10596D1*G1X12714Y10696D1*G1X12714Y10696D2*G1X12714Y10746D2*G1X11914Y10746D1*G1X11914Y10546D1*G1X12714Y10546D1*G1X12714Y10746D1*G1X12714Y10746D2*G1X15827Y09848D2*G1X15827Y09998D1*G1X15749Y09998D1*G1X15749Y09848D1*G1X15827Y09848D1*G1X15827Y09848D2*G1X04154Y09107D2*G1X04294Y09107D1*G1X04294Y08939D1*G1X04154Y08939D1*G1X04154Y09107D1*G1X04154Y09107D2*G1X15165Y09922D2*G1X15165Y10119D1*G1X15079Y10119D1*G1X15079Y09922D1*G1X15165Y09922D1*G1X15165Y09922D2*G1X12966Y09612D2*G1X13296Y09612D1*G1X13296Y09742D1*G1X12966Y09742D1*G1X12966Y09612D1*G1X12966Y09612D2*G1X16760Y06792D2*G1X16957Y06792D1*G1X16957Y06878D1*G1X16760Y06878D1*G1X16760Y06792D1*G1X16760Y06792D2*G1X04716Y09740D2*G1X04716Y10882D1*G1X04205Y10882D1*G1X04205Y09740D1*G1X04716Y09740D1*G1X04716Y09740D2*G1X04308Y08908D2*G1X04111Y08908D1*G1X04111Y08821D1*G1X04308Y08821D1*G1X04308Y08908D1*G1X04308Y08908D2*G1X15725Y09807D2*G1X15725Y10004D1*G1X15638Y10004D1*G1X15638Y09807D1*G1X15725Y09807D1*G1X15725Y09807D2*G1X15507Y10004D2*G1X15507Y09807D1*G1X15593Y09807D1*G1X15593Y10004D1*G1X15507Y10004D1*G1X15507Y10004D2*G1X15831Y10020D2*G1X15831Y10216D1*G1X15745Y10216D1*G1X15745Y10020D1*G1X15831Y10020D1*G1X15831Y10020D2*G1X16077Y09783D2*G1X16077Y09803D1*G1X16026Y09803D1*G1X16026Y09783D1*G1X16077Y09783D1*G1X16077Y09783D2*G1X16097Y09783D2*G1X16097Y09985D1*G1X16006Y09985D1*G1X16006Y09783D1*G1X16097Y09783D1*G1X16097Y09783D2*G1X15369Y10164D2*G1X15566Y10164D1*G1X15566Y10251D1*G1X15369Y10251D1*G1X15369Y10164D1*G1X15369Y10164D2*G1X15369Y10095D2*G1X15369Y09898D1*G1X15455Y09898D1*G1X15455Y10095D1*G1X15369Y10095D1*G1X15369Y10095D2*G1X12620Y11226D2*G1X12620Y11029D1*G1X12706Y11029D1*G1X12706Y11226D1*G1X12620Y11226D1*G1X12620Y11226D2*G1X12724Y11227D2*G1X12724Y11030D1*G1X12811Y11030D1*G1X12811Y11227D1*G1X12724Y11227D1*G1X12724Y11227D2*G1X13656Y09351D2*G1X13853Y09351D1*G1X13853Y09438D1*G1X13656Y09438D1*G1X13656Y09351D1*G1X13656Y09351D2*G1X14804Y09549D2*G1X14804Y09352D1*G1X14890Y09352D1*G1X14890Y09549D1*G1X14804Y09549D1*G1X14804Y09549D2*G1X16187Y10662D2*G1X15990Y10662D1*G1X15990Y10575D1*G1X16187Y10575D1*G1X16187Y10662D1*G1X16187Y10662D2*G1X14757Y10907D2*G1X14757Y10710D1*G1X14843Y10710D1*G1X14843Y10907D1*G1X14757Y10907D1*G1X14757Y10907D2*G1X12830Y11227D2*G1X12830Y11030D1*G1X12916Y11030D1*G1X12916Y11227D1*G1X12830Y11227D1*G1X12830Y11227D2*G1X15377Y05403D2*G1X15180Y05403D1*G1X15180Y05317D1*G1X15377Y05317D1*G1X15377Y05403D1*G1X15377Y05403D2*G1X14338Y04947D2*G1X14535Y04947D1*G1X14535Y05034D1*G1X14338Y05034D1*G1X14338Y04947D1*G1X14338Y04947D2*G1X14650Y05333D2*G1X14650Y05136D1*G1X14736Y05136D1*G1X14736Y05333D1*G1X14650Y05333D1*G1X14650Y05333D2*G1X16968Y07006D2*G1X16928Y06966D1*G1X16928Y06966D2*G1X16968Y06966D2*G1X16968Y07346D1*G1X16838Y07346D1*G1X16838Y06966D1*G1X16968Y06966D1*G1X16968Y06966D2*G1X14151Y10612D2*G1X14348Y10612D1*G1X14348Y10699D1*G1X14151Y10699D1*G1X14151Y10612D1*G1X14151Y10612D2*G1X11025Y10467D2*G1X11222Y10467D1*G1X11222Y10554D1*G1X11025Y10554D1*G1X11025Y10467D1*G1X11025Y10467D2*G1X10003Y10660D2*G1X09806Y10660D1*G1X09806Y10573D1*G1X10003Y10573D1*G1X10003Y10660D1*G1X10003Y10660D2*G1X16773Y09731D2*G1X16576Y09731D1*G1X16576Y09644D1*G1X16773Y09644D1*G1X16773Y09731D1*G1X16773Y09731D2*G1X16002Y10012D2*G1X16199Y10012D1*G1X16199Y10098D1*G1X16002Y10098D1*G1X16002Y10012D1*G1X16002Y10012D2*G1X11357Y05350D2*G1X11357Y05153D1*G1X11444Y05153D1*G1X11444Y05350D1*G1X11357Y05350D1*G1X11357Y05350D2*G1X11097Y09161D2*G1X11294Y09161D1*G1X11294Y09247D1*G1X11097Y09247D1*G1X11097Y09161D1*G1X11097Y09161D2*G1X14747Y07001D2*G1X14747Y06804D1*G1X14833Y06804D1*G1X14833Y07001D1*G1X14747Y07001D1*G1X14747Y07001D2*G1X12828Y09821D2*G1X12828Y09624D1*G1X12914Y09624D1*G1X12914Y09821D1*G1X12828Y09821D1*G1X12828Y09821D2*G1X11914Y09704D2*G1X11914Y09507D1*G1X12001Y09507D1*G1X12001Y09704D1*G1X11914Y09704D1*G1X11914Y09704D2*G1X11305Y09348D2*G1X11265Y09308D1*G1X11265Y09308D2*G1X11305Y09308D2*G1X11305Y09638D1*G1X11175Y09638D1*G1X11175Y09308D1*G1X11305Y09308D1*G1X11305Y09308D2*G1X16377Y10242D2*G1X16180Y10242D1*G1X16180Y10155D1*G1X16377Y10155D1*G1X16377Y10242D1*G1X16377Y10242D2*G1X16487Y10143D2*G1X16290Y10143D1*G1X16290Y10057D1*G1X16487Y10057D1*G1X16487Y10143D1*G1X16487Y10143D2*G1X16486Y10029D2*G1X16290Y10029D1*G1X16290Y09942D1*G1X16486Y09942D1*G1X16486Y10029D1*G1X16486Y10029D2*G1X16297Y09853D2*G1X16297Y09656D1*G1X16384Y09656D1*G1X16384Y09853D1*G1X16297Y09853D1*G1X16297Y09853D2*G1X08197Y11262D2*G1X07501Y11262D1*G1X07501Y12019D1*G1X08197Y12019D1*G1X08197Y11262D1*G1X08197Y11262D2*G1X05756Y11262D2*G1X05060Y11262D1*G1X05060Y12019D1*G1X05756Y12019D1*G1X05756Y11262D1*G1X05756Y11262D2*G1X17065Y10070D2*G1X16868Y10070D1*G1X16868Y09983D1*G1X17065Y09983D1*G1X17065Y10070D1*G1X17065Y10070D2*G1X16833Y09853D2*G1X16833Y09656D1*G1X16920Y09656D1*G1X16920Y09853D1*G1X16833Y09853D1*G1X16833Y09853D2*G1X16953Y09771D2*G1X17091Y09771D1*G1X17091Y09936D1*G1X16953Y09936D1*G1X16953Y09771D1*G1X16953Y09771D2*G1X16240Y09447D2*G1X16240Y09644D1*G1X16153Y09644D1*G1X16153Y09447D1*G1X16240Y09447D1*G1X16240Y09447D2*G1X15075Y04867D2*G1X15272Y04867D1*G1X15272Y04953D1*G1X15075Y04953D1*G1X15075Y04867D1*G1X15075Y04867D2*G1X16239Y08895D2*G1X16239Y09092D1*G1X16153Y09092D1*G1X16153Y08895D1*G1X16239Y08895D1*G1X16239Y08895D2*G1X17104Y09406D2*G1X17104Y09603D1*G1X17017Y09603D1*G1X17017Y09406D1*G1X17104Y09406D1*G1X17104Y09406D2*G1X16596Y09628D2*G1X16596Y09608D1*G1X16647Y09608D1*G1X16647Y09628D1*G1X16596Y09628D1*G1X16596Y09628D2*G1X16576Y09628D2*G1X16576Y09427D1*G1X16667Y09427D1*G1X16667Y09628D1*G1X16576Y09628D1*G1X16576Y09628D2*G1X16469Y09269D2*G1X16272Y09269D1*G1X16272Y09182D1*G1X16469Y09182D1*G1X16469Y09269D1*G1X16469Y09269D2*G1X14440Y11262D2*G1X12222Y11262D1*G1X12222Y12019D1*G1X14440Y12019D1*G1X14440Y11262D1*G1X14440Y11262D2*G1X16921Y09407D2*G1X16921Y09604D1*G1X16834Y09604D1*G1X16834Y09407D1*G1X16921Y09407D1*G1X16921Y09407D2*G1X15301Y09668D2*G1X15301Y09865D1*G1X15214Y09865D1*G1X15214Y09668D1*G1X15301Y09668D1*G1X15301Y09668D2*G1X15044Y09058D2*G1X14848Y09058D1*G1X14848Y08971D1*G1X15044Y08971D1*G1X15044Y09058D1*G1X15044Y09058D2*G1X15044Y09183D2*G1X14847Y09183D1*G1X14847Y09097D1*G1X15044Y09097D1*G1X15044Y09183D1*G1X15044Y09183D2*G1X12350Y09016D2*G1X12020Y09016D1*G1X12020Y08886D1*G1X12350Y08886D1*G1X12350Y09016D1*G1X12350Y09016D2*G1X12310Y09016D2*G1X12350Y08976D1*G1X12350Y08976D2*G1X16272Y09028D2*G1X16469Y09028D1*G1X16469Y09114D1*G1X16272Y09114D1*G1X16272Y09028D1*G1X16272Y09028D2*G54D13*G1X15525Y06436D2*G1X15325Y06436D1*G1X15325Y06436D1*G1X15325Y06145D1*G1X15525Y06145D1*G1X15525Y06436D1*G1X15525Y06436D2*G1X14959Y06437D2*G1X14759Y06437D1*G1X14759Y06438D1*G1X14759Y06146D1*G1X14959Y06146D1*G1X14959Y06437D1*G1X14959Y06437D2*G1X16062Y06432D2*G1X15862Y06432D1*G1X15862Y06432D1*G1X15862Y06141D1*G1X16062Y06141D1*G1X16062Y06432D1*G1X16062Y06432D2*G1X14666Y06438D2*G1X14466Y06438D1*G1X14466Y06438D1*G1X14466Y06146D1*G1X14666Y06146D1*G1X14666Y06438D1*G1X14666Y06438D2*G1X15788Y06436D2*G1X15588Y06436D1*G1X15588Y06437D1*G1X15588Y06145D1*G1X15788Y06145D1*G1X15788Y06436D1*G1X15788Y06436D2*G1X15246Y06438D2*G1X15047Y06438D1*G1X15046Y06438D1*G1X15046Y06146D1*G1X15246Y06146D1*G1X15246Y06438D1*G1X15246Y06438D2*G1X15790Y09766D2*G1X15790Y09779D1*G1X15800Y09786D1*G1X15810Y09786D1*G1X15820Y09779D1*G1X15820Y09766D1*G1X15810Y09759D1*G1X15810Y09759D2*G1X15770Y09759D2*G1X15760Y09766D1*G1X15760Y09779D1*G1X15770Y09786D1*G1X15780Y09786D1*G1X15790Y09779D1*G1X15790Y09779D2*G1X16771Y08525D2*G1X15971Y08525D1*G1X15971Y08125D1*G1X16771Y08125D1*G1X16771Y08525D1*G1X16771Y08525D2*G1X17679Y09740D2*G1X17679Y10289D1*G1X17679Y10290D1*G1X17375Y10290D1*G1X17374Y10291D1*G1X17374Y09741D1*G1X17679Y09741D1*G1X17679Y09741D2*G1X16985Y10320D2*G1X16985Y10870D1*G1X16985Y10870D1*G1X16681Y10870D1*G1X16680Y10871D1*G1X16680Y10321D1*G1X16985Y10321D1*G1X16985Y10321D2*G1X17681Y10321D2*G1X17681Y10871D1*G1X17680Y10871D1*G1X17376Y10871D1*G1X17375Y10872D1*G1X17375Y10322D1*G1X17680Y10322D1*G1X17680Y10322D2*G1X17031Y10872D2*G1X17031Y10323D1*G1X17032Y10322D1*G1X17336Y10322D1*G1X17337Y10321D1*G1X17337Y10871D1*G1X17032Y10871D1*G1X17032Y10871D2*G1X15770Y09736D2*G1X15760Y09729D1*G1X15760Y09716D1*G1X15770Y09709D1*G1X15810Y09709D1*G1X15820Y09716D1*G1X15820Y09729D1*G1X15810Y09736D1*G1X15810Y09736D2*G1X15678Y09762D2*G1X15678Y09775D1*G1X15678Y09775D2*G1X15648Y09762D2*G1X15648Y09775D1*G1X15658Y09782D1*G1X15668Y09782D1*G1X15678Y09775D1*G1X15688Y09782D1*G1X15698Y09782D1*G1X15708Y09775D1*G1X15708Y09762D1*G1X15698Y09755D1*G1X15688Y09755D1*G1X15678Y09762D1*G1X15668Y09755D1*G1X15658Y09755D1*G1X15648Y09762D1*G1X15648Y09762D2*G1X16684Y09298D2*G1X16485Y09298D1*G1X16484Y09299D1*G1X16484Y09007D1*G1X16684Y09007D1*G1X16684Y09298D1*G1X16684Y09298D2*G1X15648Y09732D2*G1X15648Y09705D1*G1X15668Y09705D1*G1X15668Y09725D1*G1X15678Y09732D1*G1X15698Y09732D1*G1X15708Y09725D1*G1X15708Y09712D1*G1X15698Y09705D1*G1X15698Y09705D2*G1X15708Y09655D2*G1X15648Y09655D1*G1X15648Y09675D1*G1X15658Y09682D1*G1X15668Y09682D1*G1X15678Y09675D1*G1X15678Y09655D1*G1X15708Y09682D1*G1X15708Y09682D2*G1X15536Y09765D2*G1X15526Y09765D1*G1X15526Y09792D1*G1X15586Y09772D1*G1X15586Y09772D2*G1X15526Y09742D2*G1X15526Y09715D1*G1X15546Y09715D1*G1X15546Y09735D1*G1X15556Y09742D1*G1X15576Y09742D1*G1X15586Y09735D1*G1X15586Y09722D1*G1X15576Y09715D1*G1X15576Y09715D2*G1X15586Y09665D2*G1X15526Y09665D1*G1X15526Y09685D1*G1X15536Y09692D1*G1X15546Y09692D1*G1X15556Y09685D1*G1X15556Y09665D1*G1X15586Y09692D1*G1X15586Y09692D2*G1X14914Y09560D2*G1X14904Y09553D1*G1X14904Y09540D1*G1X14914Y09533D1*G1X14954Y09533D1*G1X14964Y09540D1*G1X14964Y09553D1*G1X14954Y09560D1*G1X14944Y09560D1*G1X14934Y09553D1*G1X14934Y09540D1*G1X14944Y09533D1*G1X14944Y09533D2*G1X14934Y09496D2*G1X14964Y09496D1*G1X14964Y09496D2*G1X14904Y09496D2*G1X14944Y09483D1*G1X14944Y09510D1*G1X14944Y09510D2*G1X14914Y09460D2*G1X14904Y09453D1*G1X14904Y09440D1*G1X14914Y09433D1*G1X14954Y09433D1*G1X14964Y09440D1*G1X14964Y09453D1*G1X14954Y09460D1*G1X14954Y09460D2*G1X08824Y05251D2*G1X08824Y05169D1*G1X09110Y05169D1*G1X09110Y05251D1*G1X08824Y05251D1*G1X08824Y05251D2*G1X13914Y07485D2*G1X13914Y07567D1*G1X13628Y07567D1*G1X13628Y07485D1*G1X13914Y07485D1*G1X13914Y07485D2*G1X06146Y09427D2*G1X06064Y09427D1*G1X06064Y09141D1*G1X06146Y09141D1*G1X06146Y09427D1*G1X06146Y09427D2*G1X15032Y09826D2*G1X15092Y09799D1*G1X15092Y09799D2*G1X15032Y09806D2*G1X15032Y09819D1*G1X15042Y09826D1*G1X15082Y09826D1*G1X15092Y09819D1*G1X15092Y09806D1*G1X15082Y09799D1*G1X15042Y09799D1*G1X15032Y09806D1*G1X15032Y09806D2*G1X15042Y09749D2*G1X15032Y09749D1*G1X15032Y09776D1*G1X15092Y09756D1*G1X15092Y09756D2*G1X15092Y09699D2*G1X15032Y09699D1*G1X15032Y09719D1*G1X15042Y09726D1*G1X15052Y09726D1*G1X15062Y09719D1*G1X15062Y09699D1*G1X15092Y09726D1*G1X15092Y09726D2*G1X14986Y10048D2*G1X15046Y10021D1*G1X15046Y10021D2*G1X14986Y10028D2*G1X14986Y10041D1*G1X14996Y10048D1*G1X15036Y10048D1*G1X15046Y10041D1*G1X15046Y10028D1*G1X15036Y10021D1*G1X14996Y10021D1*G1X14986Y10028D1*G1X14986Y10028D2*G1X14996Y09998D2*G1X14986Y09991D1*G1X14986Y09978D1*G1X14996Y09971D1*G1X15036Y09971D1*G1X15046Y09978D1*G1X15046Y09991D1*G1X15036Y09998D1*G1X15026Y09998D1*G1X15016Y09991D1*G1X15016Y09978D1*G1X15026Y09971D1*G1X15026Y09971D2*G1X15046Y09921D2*G1X14986Y09921D1*G1X14986Y09941D1*G1X14996Y09948D1*G1X15006Y09948D1*G1X15016Y09941D1*G1X15016Y09921D1*G1X15046Y09948D1*G1X15046Y09948D2*G1X15019Y10520D2*G1X14992Y10520D1*G1X14992Y10500D1*G1X15012Y10500D1*G1X15019Y10490D1*G1X15019Y10470D1*G1X15012Y10460D1*G1X14999Y10460D1*G1X14992Y10470D1*G1X14992Y10470D2*G1X14962Y10470D2*G1X14969Y10460D1*G1X14969Y10460D2*G1X14949Y10520D2*G1X14962Y10520D1*G1X14969Y10510D1*G1X14969Y10470D1*G1X14962Y10460D1*G1X14949Y10460D1*G1X14942Y10470D1*G1X14942Y10510D1*G1X14949Y10520D1*G1X14949Y10520D2*G1X15341Y10266D2*G1X15334Y10276D1*G1X15321Y10276D1*G1X15314Y10266D1*G1X15314Y10226D1*G1X15321Y10216D1*G1X15334Y10216D1*G1X15341Y10226D1*G1X15341Y10236D1*G1X15334Y10246D1*G1X15321Y10246D1*G1X15314Y10236D1*G1X15314Y10236D2*G1X15291Y10266D2*G1X15284Y10276D1*G1X15271Y10276D1*G1X15264Y10266D1*G1X15264Y10226D1*G1X15271Y10216D1*G1X15284Y10216D1*G1X15291Y10226D1*G1X15291Y10236D1*G1X15284Y10246D1*G1X15271Y10246D1*G1X15264Y10236D1*G1X15264Y10236D2*G1X15214Y10216D2*G1X15214Y10276D1*G1X15234Y10276D1*G1X15241Y10266D1*G1X15241Y10256D1*G1X15234Y10246D1*G1X15214Y10246D1*G1X15241Y10216D1*G1X15241Y10216D2*G1X15015Y10266D2*G1X15008Y10276D1*G1X14995Y10276D1*G1X14988Y10266D1*G1X14988Y10226D1*G1X14995Y10216D1*G1X15008Y10216D1*G1X15015Y10226D1*G1X15015Y10236D1*G1X15008Y10246D1*G1X14995Y10246D1*G1X14988Y10236D1*G1X14988Y10236D2*G1X14958Y10226D2*G1X14965Y10216D1*G1X14965Y10216D2*G1X14945Y10276D2*G1X14958Y10276D1*G1X14965Y10266D1*G1X14965Y10226D1*G1X14958Y10216D1*G1X14945Y10216D1*G1X14938Y10226D1*G1X14938Y10266D1*G1X14945Y10276D1*G1X14945Y10276D2*G1X14859Y10440D2*G1X14872Y10440D1*G1X14872Y10440D2*G1X14859Y10490D2*G1X14866Y10500D1*G1X14866Y10440D1*G1X14866Y10440D2*G1X14829Y10490D2*G1X14822Y10500D1*G1X14809Y10500D1*G1X14802Y10490D1*G1X14802Y10450D1*G1X14809Y10440D1*G1X14822Y10440D1*G1X14829Y10450D1*G1X14829Y10460D1*G1X14822Y10470D1*G1X14809Y10470D1*G1X14802Y10460D1*G1X14802Y10460D2*G1X14752Y10440D2*G1X14752Y10500D1*G1X14772Y10500D1*G1X14779Y10490D1*G1X14779Y10480D1*G1X14772Y10470D1*G1X14752Y10470D1*G1X14779Y10440D1*G1X14779Y10440D2*G1X14806Y10268D2*G1X14813Y10278D1*G1X14826Y10278D1*G1X14833Y10268D1*G1X14833Y10258D1*G1X14806Y10218D1*G1X14833Y10218D1*G1X14833Y10218D2*G1X14783Y10268D2*G1X14776Y10278D1*G1X14763Y10278D1*G1X14756Y10268D1*G1X14756Y10228D1*G1X14763Y10218D1*G1X14776Y10218D1*G1X14783Y10228D1*G1X14783Y10238D1*G1X14776Y10248D1*G1X14763Y10248D1*G1X14756Y10238D1*G1X14756Y10238D2*G1X14706Y10218D2*G1X14706Y10278D1*G1X14726Y10278D1*G1X14733Y10268D1*G1X14733Y10258D1*G1X14726Y10248D1*G1X14706Y10248D1*G1X14733Y10218D1*G1X14733Y10218D2*G1X14034Y09932D2*G1X14034Y09945D1*G1X14044Y09952D1*G1X14054Y09952D1*G1X14064Y09945D1*G1X14064Y09932D1*G1X14054Y09925D1*G1X14054Y09925D2*G1X14014Y09925D2*G1X14004Y09932D1*G1X14004Y09945D1*G1X14014Y09952D1*G1X14024Y09952D1*G1X14034Y09945D1*G1X14034Y09945D2*G1X14034Y09888D2*G1X14064Y09888D1*G1X14064Y09888D2*G1X14004Y09888D2*G1X14044Y09875D1*G1X14044Y09902D1*G1X14044Y09902D2*G1X05397Y11746D2*G1X05397Y11696D1*G1X05390Y11686D1*G1X05377Y11686D1*G1X05370Y11696D1*G1X05370Y11696D2*G1X05434Y11746D2*G1X05420Y11706D1*G1X05447Y11706D1*G1X05447Y11706D2*G1X05434Y11716D2*G1X05434Y11686D1*G1X05434Y11686D2*G1X03969Y10890D2*G1X03969Y10840D1*G1X03962Y10830D1*G1X03949Y10830D1*G1X03942Y10840D1*G1X03942Y10840D2*G1X03999Y10880D2*G1X04006Y10890D1*G1X04006Y10830D1*G1X04006Y10830D2*G1X03999Y10830D2*G1X04012Y10830D1*G1X04012Y10830D2*G1X04083Y09926D2*G1X04083Y09866D1*G1X04083Y09866D2*G1X04110Y09866D2*G1X04083Y09896D1*G1X04110Y09926D1*G1X04110Y09926D2*G1X04140Y09916D2*G1X04146Y09926D1*G1X04146Y09866D1*G1X04146Y09866D2*G1X04140Y09866D2*G1X04153Y09866D1*G1X04153Y09866D2*G1X04418Y09540D2*G1X04438Y09540D1*G1X04445Y09530D1*G1X04445Y09490D1*G1X04438Y09480D1*G1X04418Y09480D1*G1X04418Y09540D1*G1X04418Y09540D2*G1X04495Y09530D2*G1X04488Y09540D1*G1X04475Y09540D1*G1X04468Y09530D1*G1X04468Y09490D1*G1X04475Y09480D1*G1X04488Y09480D1*G1X04495Y09490D1*G1X04495Y09500D1*G1X04488Y09510D1*G1X04475Y09510D1*G1X04468Y09500D1*G1X04468Y09500D2*G1X05118Y09540D2*G1X05138Y09540D1*G1X05145Y09530D1*G1X05145Y09490D1*G1X05138Y09480D1*G1X05118Y09480D1*G1X05118Y09540D1*G1X05118Y09540D2*G1X05168Y09530D2*G1X05168Y09540D1*G1X05195Y09540D1*G1X05175Y09480D1*G1X05175Y09480D2*G1X05407Y09903D2*G1X05407Y09843D1*G1X05434Y09843D1*G1X05434Y09843D2*G1X05457Y09853D2*G1X05464Y09843D1*G1X05477Y09843D1*G1X05484Y09853D1*G1X05484Y09863D1*G1X05477Y09873D1*G1X05464Y09873D1*G1X05457Y09883D1*G1X05457Y09893D1*G1X05464Y09903D1*G1X05477Y09903D1*G1X05484Y09893D1*G1X05484Y09893D2*G1X05514Y09893D2*G1X05520Y09903D1*G1X05520Y09843D1*G1X05520Y09843D2*G1X05514Y09843D2*G1X05527Y09843D1*G1X05527Y09843D2*G1X05955Y09946D2*G1X05962Y09936D1*G1X05975Y09936D1*G1X05982Y09946D1*G1X05982Y09956D1*G1X05975Y09966D1*G1X05962Y09966D1*G1X05955Y09976D1*G1X05955Y09986D1*G1X05962Y09996D1*G1X05975Y09996D1*G1X05982Y09986D1*G1X05982Y09986D2*G1X06005Y09996D2*G1X06012Y09936D1*G1X06018Y09956D1*G1X06025Y09936D1*G1X06032Y09996D1*G1X06032Y09996D2*G1X06062Y09986D2*G1X06068Y09996D1*G1X06068Y09936D1*G1X06068Y09936D2*G1X06062Y09936D2*G1X06075Y09936D1*G1X06075Y09936D2*G1X06841Y11230D2*G1X06841Y11180D1*G1X06834Y11170D1*G1X06821Y11170D1*G1X06814Y11180D1*G1X06814Y11180D2*G1X06891Y11230D2*G1X06864Y11230D1*G1X06864Y11210D1*G1X06884Y11210D1*G1X06891Y11200D1*G1X06891Y11180D1*G1X06884Y11170D1*G1X06871Y11170D1*G1X06864Y11180D1*G1X06864Y11180D2*G1X08009Y11234D2*G1X08009Y11184D1*G1X08002Y11174D1*G1X07989Y11174D1*G1X07982Y11184D1*G1X07982Y11184D2*G1X08059Y11224D2*G1X08052Y11234D1*G1X08039Y11234D1*G1X08032Y11224D1*G1X08032Y11184D1*G1X08039Y11174D1*G1X08052Y11174D1*G1X08059Y11184D1*G1X08059Y11194D1*G1X08052Y11204D1*G1X08039Y11204D1*G1X08032Y11194D1*G1X08032Y11194D2*G1X09323Y11202D2*G1X09323Y11152D1*G1X09316Y11142D1*G1X09303Y11142D1*G1X09296Y11152D1*G1X09296Y11152D2*G1X09346Y11192D2*G1X09346Y11202D1*G1X09373Y11202D1*G1X09353Y11142D1*G1X09353Y11142D2*G1X09659Y10827D2*G1X09709Y10827D1*G1X09719Y10834D1*G1X09719Y10847D1*G1X09709Y10854D1*G1X09659Y10854D1*G1X09659Y10854D2*G1X09669Y10884D2*G1X09659Y10890D1*G1X09719Y10890D1*G1X09719Y10890D2*G1X09719Y10884D2*G1X09719Y10897D1*G1X09719Y10897D2*G1X09669Y10927D2*G1X09659Y10934D1*G1X09659Y10947D1*G1X09669Y10954D1*G1X09679Y10954D1*G1X09689Y10947D1*G1X09689Y10947D2*G1X09689Y10934D2*G1X09689Y10947D1*G1X09699Y10954D1*G1X09709Y10954D1*G1X09719Y10947D1*G1X09719Y10934D1*G1X09709Y10927D1*G1X09709Y10927D2*G1X09865Y10542D2*G1X09858Y10552D1*G1X09845Y10552D1*G1X09838Y10542D1*G1X09838Y10502D1*G1X09845Y10492D1*G1X09858Y10492D1*G1X09865Y10502D1*G1X09865Y10502D2*G1X09888Y10542D2*G1X09895Y10552D1*G1X09908Y10552D1*G1X09915Y10542D1*G1X09915Y10532D1*G1X09888Y10492D1*G1X09915Y10492D1*G1X09915Y10492D2*G1X09945Y10542D2*G1X09951Y10552D1*G1X09951Y10492D1*G1X09951Y10492D2*G1X09945Y10492D2*G1X09958Y10492D1*G1X09958Y10492D2*G1X10348Y10520D2*G1X10348Y10580D1*G1X10368Y10580D1*G1X10375Y10570D1*G1X10375Y10560D1*G1X10368Y10550D1*G1X10348Y10550D1*G1X10375Y10520D1*G1X10375Y10520D2*G1X10398Y10570D2*G1X10405Y10580D1*G1X10418Y10580D1*G1X10425Y10570D1*G1X10425Y10560D1*G1X10418Y10550D1*G1X10418Y10550D2*G1X10405Y10550D2*G1X10418Y10550D1*G1X10425Y10540D1*G1X10425Y10530D1*G1X10418Y10520D1*G1X10405Y10520D1*G1X10398Y10530D1*G1X10398Y10530D2*G1X10455Y10580D2*G1X10468Y10580D1*G1X10475Y10570D1*G1X10475Y10560D1*G1X10468Y10550D1*G1X10475Y10540D1*G1X10475Y10530D1*G1X10468Y10520D1*G1X10455Y10520D1*G1X10448Y10530D1*G1X10448Y10540D1*G1X10455Y10550D1*G1X10448Y10560D1*G1X10448Y10570D1*G1X10455Y10580D1*G1X10455Y10580D2*G1X10455Y10550D2*G1X10468Y10550D1*G1X10468Y10550D2*G1X10746Y10802D2*G1X10746Y10862D1*G1X10766Y10862D1*G1X10773Y10852D1*G1X10773Y10842D1*G1X10766Y10832D1*G1X10746Y10832D1*G1X10773Y10802D1*G1X10773Y10802D2*G1X10796Y10852D2*G1X10803Y10862D1*G1X10816Y10862D1*G1X10823Y10852D1*G1X10823Y10842D1*G1X10816Y10832D1*G1X10816Y10832D2*G1X10803Y10832D2*G1X10816Y10832D1*G1X10823Y10822D1*G1X10823Y10812D1*G1X10816Y10802D1*G1X10803Y10802D1*G1X10796Y10812D1*G1X10796Y10812D2*G1X10873Y10862D2*G1X10846Y10862D1*G1X10846Y10842D1*G1X10866Y10842D1*G1X10873Y10832D1*G1X10873Y10812D1*G1X10866Y10802D1*G1X10853Y10802D1*G1X10846Y10812D1*G1X10846Y10812D2*G1X10841Y10578D2*G1X10834Y10588D1*G1X10821Y10588D1*G1X10814Y10578D1*G1X10814Y10538D1*G1X10821Y10528D1*G1X10834Y10528D1*G1X10841Y10538D1*G1X10841Y10538D2*G1X10864Y10578D2*G1X10871Y10588D1*G1X10884Y10588D1*G1X10891Y10578D1*G1X10891Y10568D1*G1X10864Y10528D1*G1X10891Y10528D1*G1X10891Y10528D2*G1X10941Y10588D2*G1X10914Y10588D1*G1X10914Y10568D1*G1X10934Y10568D1*G1X10941Y10558D1*G1X10941Y10538D1*G1X10934Y10528D1*G1X10921Y10528D1*G1X10914Y10538D1*G1X10914Y10538D2*G1X11106Y10888D2*G1X11106Y10838D1*G1X11113Y10828D1*G1X11126Y10828D1*G1X11133Y10838D1*G1X11133Y10888D1*G1X11133Y10888D2*G1X11163Y10878D2*G1X11169Y10888D1*G1X11169Y10828D1*G1X11169Y10828D2*G1X11163Y10828D2*G1X11176Y10828D1*G1X11176Y10828D2*G1X11206Y10878D2*G1X11213Y10888D1*G1X11226Y10888D1*G1X11233Y10878D1*G1X11233Y10868D1*G1X11206Y10828D1*G1X11233Y10828D1*G1X11233Y10828D2*G1X10987Y11218D2*G1X10987Y11168D1*G1X10980Y11158D1*G1X10967Y11158D1*G1X10960Y11168D1*G1X10960Y11168D2*G1X11037Y11198D2*G1X11030Y11188D1*G1X11017Y11188D1*G1X11010Y11198D1*G1X11010Y11208D1*G1X11017Y11218D1*G1X11030Y11218D1*G1X11037Y11208D1*G1X11037Y11168D1*G1X11030Y11158D1*G1X11017Y11158D1*G1X11010Y11168D1*G1X11010Y11168D2*G1X13565Y11250D2*G1X13565Y11200D1*G1X13558Y11190D1*G1X13545Y11190D1*G1X13538Y11200D1*G1X13538Y11200D2*G1X13595Y11240D2*G1X13601Y11250D1*G1X13601Y11190D1*G1X13601Y11190D2*G1X13595Y11190D2*G1X13608Y11190D1*G1X13608Y11190D2*G1X13645Y11250D2*G1X13658Y11250D1*G1X13665Y11240D1*G1X13665Y11200D1*G1X13658Y11190D1*G1X13645Y11190D1*G1X13638Y11200D1*G1X13638Y11240D1*G1X13645Y11250D1*G1X13645Y11250D2*G1X13665Y11250D2*G1X13638Y11190D1*G1X13638Y11190D2*G1X11129Y10446D2*G1X11122Y10456D1*G1X11109Y10456D1*G1X11102Y10446D1*G1X11102Y10406D1*G1X11109Y10396D1*G1X11122Y10396D1*G1X11129Y10406D1*G1X11129Y10406D2*G1X11152Y10446D2*G1X11159Y10456D1*G1X11172Y10456D1*G1X11179Y10446D1*G1X11179Y10436D1*G1X11152Y10396D1*G1X11179Y10396D1*G1X11179Y10396D2*G1X11209Y10456D2*G1X11222Y10456D1*G1X11229Y10446D1*G1X11229Y10436D1*G1X11222Y10426D1*G1X11229Y10416D1*G1X11229Y10406D1*G1X11222Y10396D1*G1X11209Y10396D1*G1X11202Y10406D1*G1X11202Y10416D1*G1X11209Y10426D1*G1X11202Y10436D1*G1X11202Y10446D1*G1X11209Y10456D1*G1X11209Y10456D2*G1X11209Y10426D2*G1X11222Y10426D1*G1X11222Y10426D2*G1X11403Y10620D2*G1X11396Y10630D1*G1X11383Y10630D1*G1X11376Y10620D1*G1X11376Y10580D1*G1X11383Y10570D1*G1X11396Y10570D1*G1X11403Y10580D1*G1X11403Y10580D2*G1X11426Y10620D2*G1X11433Y10630D1*G1X11446Y10630D1*G1X11453Y10620D1*G1X11453Y10610D1*G1X11426Y10570D1*G1X11453Y10570D1*G1X11453Y10570D2*G1X11489Y10630D2*G1X11476Y10590D1*G1X11503Y10590D1*G1X11503Y10590D2*G1X11489Y10600D2*G1X11489Y10570D1*G1X11489Y10570D2*G1X12574Y10895D2*G1X12514Y10895D1*G1X12514Y10915D1*G1X12524Y10921D1*G1X12534Y10921D1*G1X12544Y10915D1*G1X12544Y10895D1*G1X12574Y10921D1*G1X12574Y10921D2*G1X12524Y10945D2*G1X12514Y10951D1*G1X12514Y10965D1*G1X12524Y10971D1*G1X12534Y10971D1*G1X12544Y10965D1*G1X12544Y10965D2*G1X12544Y10951D2*G1X12544Y10965D1*G1X12554Y10971D1*G1X12564Y10971D1*G1X12574Y10965D1*G1X12574Y10951D1*G1X12564Y10945D1*G1X12564Y10945D2*G1X12524Y11021D2*G1X12514Y11015D1*G1X12514Y11001D1*G1X12524Y10995D1*G1X12564Y10995D1*G1X12574Y11001D1*G1X12574Y11015D1*G1X12564Y11021D1*G1X12554Y11021D1*G1X12544Y11015D1*G1X12544Y11001D1*G1X12554Y10995D1*G1X12554Y10995D2*G1X12687Y10935D2*G1X12627Y10935D1*G1X12627Y10955D1*G1X12637Y10961D1*G1X12647Y10961D1*G1X12657Y10955D1*G1X12657Y10935D1*G1X12687Y10961D1*G1X12687Y10961D2*G1X12637Y10985D2*G1X12627Y10991D1*G1X12627Y11005D1*G1X12637Y11011D1*G1X12647Y11011D1*G1X12657Y11005D1*G1X12657Y11005D2*G1X12657Y10991D2*G1X12657Y11005D1*G1X12667Y11011D1*G1X12677Y11011D1*G1X12687Y11005D1*G1X12687Y10991D1*G1X12677Y10985D1*G1X12677Y10985D2*G1X12796Y10927D2*G1X12736Y10927D1*G1X12736Y10947D1*G1X12746Y10954D1*G1X12756Y10954D1*G1X12766Y10947D1*G1X12766Y10927D1*G1X12796Y10954D1*G1X12796Y10954D2*G1X12746Y10977D2*G1X12736Y10984D1*G1X12736Y10997D1*G1X12746Y11004D1*G1X12756Y11004D1*G1X12796Y10977D1*G1X12796Y11004D1*G1X12796Y11004D2*G1X12901Y10945D2*G1X12841Y10945D1*G1X12841Y10965D1*G1X12851Y10972D1*G1X12861Y10972D1*G1X12871Y10965D1*G1X12871Y10945D1*G1X12901Y10972D1*G1X12901Y10972D2*G1X12851Y11002D2*G1X12841Y11008D1*G1X12901Y11008D1*G1X12901Y11008D2*G1X12901Y11002D2*G1X12901Y11015D1*G1X12901Y11015D2*G1X13009Y10899D2*G1X12949Y10899D1*G1X12949Y10919D1*G1X12959Y10925D1*G1X12969Y10925D1*G1X12979Y10919D1*G1X12979Y10899D1*G1X13009Y10925D1*G1X13009Y10925D2*G1X12959Y10955D2*G1X12949Y10962D1*G1X13009Y10962D1*G1X13009Y10962D2*G1X13009Y10955D2*G1X13009Y10969D1*G1X13009Y10969D2*G1X12949Y11012D2*G1X12989Y10999D1*G1X12989Y11025D1*G1X12989Y11025D2*G1X12979Y11012D2*G1X13009Y11012D1*G1X13009Y11012D2*G1X13123Y10841D2*G1X13063Y10841D1*G1X13063Y10861D1*G1X13073Y10867D1*G1X13083Y10867D1*G1X13093Y10861D1*G1X13093Y10841D1*G1X13123Y10867D1*G1X13123Y10867D2*G1X13073Y10891D2*G1X13063Y10897D1*G1X13063Y10911D1*G1X13073Y10917D1*G1X13083Y10917D1*G1X13093Y10911D1*G1X13093Y10911D2*G1X13093Y10897D2*G1X13093Y10911D1*G1X13103Y10917D1*G1X13113Y10917D1*G1X13123Y10911D1*G1X13123Y10897D1*G1X13113Y10891D1*G1X13113Y10891D2*G1X13073Y10941D2*G1X13063Y10941D1*G1X13063Y10967D1*G1X13123Y10947D1*G1X13123Y10947D2*G1X13228Y10889D2*G1X13168Y10889D1*G1X13168Y10909D1*G1X13178Y10915D1*G1X13188Y10915D1*G1X13198Y10909D1*G1X13198Y10889D1*G1X13228Y10915D1*G1X13228Y10915D2*G1X13168Y10952D2*G1X13208Y10939D1*G1X13208Y10965D1*G1X13208Y10965D2*G1X13198Y10952D2*G1X13228Y10952D1*G1X13228Y10952D2*G1X13178Y10989D2*G1X13168Y10995D1*G1X13168Y11009D1*G1X13178Y11015D1*G1X13188Y11015D1*G1X13228Y10989D1*G1X13228Y11015D1*G1X13228Y11015D2*G1X13331Y10897D2*G1X13271Y10897D1*G1X13271Y10917D1*G1X13281Y10923D1*G1X13291Y10923D1*G1X13301Y10917D1*G1X13301Y10897D1*G1X13331Y10923D1*G1X13331Y10923D2*G1X13271Y10960D2*G1X13311Y10947D1*G1X13311Y10973D1*G1X13311Y10973D2*G1X13301Y10960D2*G1X13331Y10960D1*G1X13331Y10960D2*G1X13281Y11003D2*G1X13271Y11010D1*G1X13331Y11010D1*G1X13331Y11010D2*G1X13331Y11003D2*G1X13331Y11017D1*G1X13331Y11017D2*G1X13443Y10885D2*G1X13383Y10885D1*G1X13383Y10905D1*G1X13393Y10911D1*G1X13403Y10911D1*G1X13413Y10905D1*G1X13413Y10885D1*G1X13443Y10911D1*G1X13443Y10911D2*G1X13383Y10948D2*G1X13423Y10935D1*G1X13423Y10961D1*G1X13423Y10961D2*G1X13413Y10948D2*G1X13443Y10948D1*G1X13443Y10948D2*G1X13383Y10991D2*G1X13383Y11005D1*G1X13393Y11011D1*G1X13433Y11011D1*G1X13443Y11005D1*G1X13443Y10991D1*G1X13433Y10985D1*G1X13393Y10985D1*G1X13383Y10991D1*G1X13383Y10991D2*G1X13383Y11011D2*G1X13443Y10985D1*G1X13443Y10985D2*G1X12726Y10607D2*G1X12776Y10607D1*G1X12786Y10614D1*G1X12786Y10627D1*G1X12776Y10634D1*G1X12726Y10634D1*G1X12726Y10634D2*G1X12736Y10657D2*G1X12726Y10664D1*G1X12726Y10677D1*G1X12736Y10684D1*G1X12746Y10684D1*G1X12786Y10657D1*G1X12786Y10684D1*G1X12786Y10684D2*G1X13887Y10595D2*G1X13937Y10595D1*G1X13947Y10601D1*G1X13947Y10615D1*G1X13937Y10621D1*G1X13887Y10621D1*G1X13887Y10621D2*G1X13897Y10651D2*G1X13887Y10658D1*G1X13947Y10658D1*G1X13947Y10658D2*G1X13947Y10651D2*G1X13947Y10665D1*G1X13947Y10665D2*G1X13887Y10708D2*G1X13927Y10695D1*G1X13927Y10721D1*G1X13927Y10721D2*G1X13917Y10708D2*G1X13947Y10708D1*G1X13947Y10708D2*G1X14116Y10102D2*G1X14116Y10052D1*G1X14123Y10042D1*G1X14136Y10042D1*G1X14143Y10052D1*G1X14143Y10102D1*G1X14143Y10102D2*G1X14173Y10092D2*G1X14179Y10102D1*G1X14179Y10042D1*G1X14179Y10042D2*G1X14173Y10042D2*G1X14186Y10042D1*G1X14186Y10042D2*G1X14243Y10102D2*G1X14216Y10102D1*G1X14216Y10082D1*G1X14236Y10082D1*G1X14243Y10072D1*G1X14243Y10052D1*G1X14236Y10042D1*G1X14223Y10042D1*G1X14216Y10052D1*G1X14216Y10052D2*G1X13738Y09922D2*G1X13738Y09872D1*G1X13745Y09862D1*G1X13758Y09862D1*G1X13765Y09872D1*G1X13765Y09922D1*G1X13765Y09922D2*G1X13788Y09912D2*G1X13795Y09922D1*G1X13808Y09922D1*G1X13815Y09912D1*G1X13815Y09902D1*G1X13788Y09862D1*G1X13815Y09862D1*G1X13815Y09862D2*G1X13845Y09922D2*G1X13858Y09922D1*G1X13865Y09912D1*G1X13865Y09872D1*G1X13858Y09862D1*G1X13845Y09862D1*G1X13838Y09872D1*G1X13838Y09912D1*G1X13845Y09922D1*G1X13845Y09922D2*G1X13865Y09922D2*G1X13838Y09862D1*G1X13838Y09862D2*G1X15335Y09335D2*G1X15385Y09335D1*G1X15395Y09342D1*G1X15395Y09355D1*G1X15385Y09362D1*G1X15335Y09362D1*G1X15335Y09362D2*G1X15345Y09392D2*G1X15335Y09398D1*G1X15395Y09398D1*G1X15395Y09398D2*G1X15395Y09392D2*G1X15395Y09405D1*G1X15395Y09405D2*G1X15355Y09462D2*G1X15365Y09455D1*G1X15365Y09442D1*G1X15355Y09435D1*G1X15345Y09435D1*G1X15335Y09442D1*G1X15335Y09455D1*G1X15345Y09462D1*G1X15385Y09462D1*G1X15395Y09455D1*G1X15395Y09442D1*G1X15385Y09435D1*G1X15385Y09435D2*G1X16578Y09410D2*G1X16578Y09360D1*G1X16585Y09350D1*G1X16598Y09350D1*G1X16605Y09360D1*G1X16605Y09410D1*G1X16605Y09410D2*G1X16655Y09390D2*G1X16648Y09380D1*G1X16635Y09380D1*G1X16628Y09390D1*G1X16628Y09400D1*G1X16635Y09410D1*G1X16648Y09410D1*G1X16655Y09400D1*G1X16655Y09360D1*G1X16648Y09350D1*G1X16635Y09350D1*G1X16628Y09360D1*G1X16628Y09360D2*G1X13302Y09645D2*G1X13352Y09645D1*G1X13362Y09652D1*G1X13362Y09665D1*G1X13352Y09672D1*G1X13302Y09672D1*G1X13302Y09672D2*G1X13302Y09708D2*G1X13342Y09695D1*G1X13342Y09722D1*G1X13342Y09722D2*G1X13332Y09708D2*G1X13362Y09708D1*G1X13362Y09708D2*G1X12424Y09515D2*G1X12474Y09515D1*G1X12484Y09521D1*G1X12484Y09535D1*G1X12474Y09541D1*G1X12424Y09541D1*G1X12424Y09541D2*G1X12434Y09591D2*G1X12424Y09585D1*G1X12424Y09571D1*G1X12434Y09565D1*G1X12474Y09565D1*G1X12484Y09571D1*G1X12484Y09585D1*G1X12474Y09591D1*G1X12464Y09591D1*G1X12454Y09585D1*G1X12454Y09571D1*G1X12464Y09565D1*G1X12464Y09565D2*G1X12365Y08891D2*G1X12415Y08891D1*G1X12425Y08898D1*G1X12425Y08911D1*G1X12415Y08918D1*G1X12365Y08918D1*G1X12365Y08918D2*G1X12375Y08948D2*G1X12365Y08954D1*G1X12425Y08954D1*G1X12425Y08954D2*G1X12425Y08948D2*G1X12425Y08961D1*G1X12425Y08961D2*G1X12375Y08998D2*G1X12365Y09004D1*G1X12425Y09004D1*G1X12425Y09004D2*G1X12425Y08998D2*G1X12425Y09011D1*G1X12425Y09011D2*G1X14228Y11140D2*G1X14228Y11090D1*G1X14235Y11080D1*G1X14248Y11080D1*G1X14255Y11090D1*G1X14255Y11140D1*G1X14255Y11140D2*G1X14285Y11130D2*G1X14292Y11140D1*G1X14292Y11080D1*G1X14292Y11080D2*G1X14285Y11080D2*G1X14298Y11080D1*G1X14298Y11080D2*G1X14355Y11130D2*G1X14348Y11140D1*G1X14335Y11140D1*G1X14328Y11130D1*G1X14328Y11090D1*G1X14335Y11080D1*G1X14348Y11080D1*G1X14355Y11090D1*G1X14355Y11100D1*G1X14348Y11110D1*G1X14335Y11110D1*G1X14328Y11100D1*G1X14328Y11100D2*G1X14691Y10764D2*G1X14681Y10757D1*G1X14681Y10744D1*G1X14691Y10737D1*G1X14731Y10737D1*G1X14741Y10744D1*G1X14741Y10757D1*G1X14731Y10764D1*G1X14731Y10764D2*G1X14681Y10800D2*G1X14721Y10787D1*G1X14721Y10814D1*G1X14721Y10814D2*G1X14711Y10800D2*G1X14741Y10800D1*G1X14741Y10800D2*G1X14681Y10844D2*G1X14681Y10857D1*G1X14691Y10864D1*G1X14731Y10864D1*G1X14741Y10857D1*G1X14741Y10844D1*G1X14731Y10837D1*G1X14691Y10837D1*G1X14681Y10844D1*G1X14681Y10844D2*G1X14681Y10864D2*G1X14741Y10837D1*G1X14741Y10837D2*G1X14931Y10703D2*G1X14871Y10703D1*G1X14871Y10723D1*G1X14881Y10730D1*G1X14891Y10730D1*G1X14901Y10723D1*G1X14901Y10703D1*G1X14931Y10730D1*G1X14931Y10730D2*G1X14881Y10780D2*G1X14871Y10773D1*G1X14871Y10760D1*G1X14881Y10753D1*G1X14921Y10753D1*G1X14931Y10760D1*G1X14931Y10773D1*G1X14921Y10780D1*G1X14911Y10780D1*G1X14901Y10773D1*G1X14901Y10760D1*G1X14911Y10753D1*G1X14911Y10753D2*G1X14881Y10803D2*G1X14871Y10810D1*G1X14871Y10823D1*G1X14881Y10830D1*G1X14891Y10830D1*G1X14901Y10823D1*G1X14901Y10823D2*G1X14901Y10810D2*G1X14901Y10823D1*G1X14911Y10830D1*G1X14921Y10830D1*G1X14931Y10823D1*G1X14931Y10810D1*G1X14921Y10803D1*G1X14921Y10803D2*G1X15116Y10974D2*G1X15116Y11034D1*G1X15136Y11034D1*G1X15143Y11024D1*G1X15143Y11014D1*G1X15136Y11004D1*G1X15116Y11004D1*G1X15143Y10974D1*G1X15143Y10974D2*G1X15193Y11024D2*G1X15186Y11034D1*G1X15173Y11034D1*G1X15166Y11024D1*G1X15166Y10984D1*G1X15173Y10974D1*G1X15186Y10974D1*G1X15193Y10984D1*G1X15193Y10994D1*G1X15186Y11004D1*G1X15173Y11004D1*G1X15166Y10994D1*G1X15166Y10994D2*G1X15243Y11034D2*G1X15216Y11034D1*G1X15216Y11014D1*G1X15236Y11014D1*G1X15243Y11004D1*G1X15243Y10984D1*G1X15236Y10974D1*G1X15223Y10974D1*G1X15216Y10984D1*G1X15216Y10984D2*G1X15377Y10968D2*G1X15390Y10968D1*G1X15397Y10958D1*G1X15397Y10918D1*G1X15390Y10908D1*G1X15377Y10908D1*G1X15370Y10918D1*G1X15370Y10958D1*G1X15377Y10968D1*G1X15377Y10968D2*G1X15390Y10918D2*G1X15397Y10908D1*G1X15397Y10908D2*G1X15427Y10968D2*G1X15440Y10968D1*G1X15447Y10958D1*G1X15447Y10948D1*G1X15440Y10938D1*G1X15447Y10928D1*G1X15447Y10918D1*G1X15440Y10908D1*G1X15427Y10908D1*G1X15420Y10918D1*G1X15420Y10928D1*G1X15427Y10938D1*G1X15420Y10948D1*G1X15420Y10958D1*G1X15427Y10968D1*G1X15427Y10968D2*G1X15427Y10938D2*G1X15440Y10938D1*G1X15440Y10938D2*G1X15141Y10598D2*G1X15154Y10598D1*G1X15161Y10588D1*G1X15161Y10548D1*G1X15154Y10538D1*G1X15141Y10538D1*G1X15134Y10548D1*G1X15134Y10588D1*G1X15141Y10598D1*G1X15141Y10598D2*G1X15154Y10548D2*G1X15161Y10538D1*G1X15161Y10538D2*G1X15184Y10588D2*G1X15184Y10598D1*G1X15211Y10598D1*G1X15191Y10538D1*G1X15191Y10538D2*G1X15269Y10476D2*G1X15262Y10486D1*G1X15249Y10486D1*G1X15242Y10476D1*G1X15242Y10436D1*G1X15249Y10426D1*G1X15262Y10426D1*G1X15269Y10436D1*G1X15269Y10436D2*G1X15305Y10486D2*G1X15292Y10446D1*G1X15319Y10446D1*G1X15319Y10446D2*G1X15305Y10456D2*G1X15305Y10426D1*G1X15305Y10426D2*G1X15349Y10476D2*G1X15355Y10486D1*G1X15355Y10426D1*G1X15355Y10426D2*G1X15349Y10426D2*G1X15362Y10426D1*G1X15362Y10426D2*G1X15428Y10551D2*G1X15368Y10551D1*G1X15368Y10571D1*G1X15378Y10577D1*G1X15388Y10577D1*G1X15398Y10571D1*G1X15398Y10551D1*G1X15428Y10577D1*G1X15428Y10577D2*G1X15378Y10627D2*G1X15368Y10621D1*G1X15368Y10607D1*G1X15378Y10601D1*G1X15418Y10601D1*G1X15428Y10607D1*G1X15428Y10621D1*G1X15418Y10627D1*G1X15408Y10627D1*G1X15398Y10621D1*G1X15398Y10607D1*G1X15408Y10601D1*G1X15408Y10601D2*G1X15368Y10664D2*G1X15408Y10651D1*G1X15408Y10677D1*G1X15408Y10677D2*G1X15398Y10664D2*G1X15428Y10664D1*G1X15428Y10664D2*G1X15610Y10691D2*G1X15550Y10691D1*G1X15550Y10711D1*G1X15560Y10718D1*G1X15570Y10718D1*G1X15580Y10711D1*G1X15580Y10691D1*G1X15610Y10718D1*G1X15610Y10718D2*G1X15560Y10768D2*G1X15550Y10761D1*G1X15550Y10748D1*G1X15560Y10741D1*G1X15600Y10741D1*G1X15610Y10748D1*G1X15610Y10761D1*G1X15600Y10768D1*G1X15590Y10768D1*G1X15580Y10761D1*G1X15580Y10748D1*G1X15590Y10741D1*G1X15590Y10741D2*G1X15550Y10798D2*G1X15550Y10811D1*G1X15560Y10818D1*G1X15570Y10818D1*G1X15580Y10811D1*G1X15590Y10818D1*G1X15600Y10818D1*G1X15610Y10811D1*G1X15610Y10798D1*G1X15600Y10791D1*G1X15590Y10791D1*G1X15580Y10798D1*G1X15570Y10791D1*G1X15560Y10791D1*G1X15550Y10798D1*G1X15550Y10798D2*G1X15580Y10798D2*G1X15580Y10811D1*G1X15580Y10811D2*G1X16007Y10722D2*G1X16000Y10732D1*G1X15987Y10732D1*G1X15980Y10722D1*G1X15980Y10682D1*G1X15987Y10672D1*G1X16000Y10672D1*G1X16007Y10682D1*G1X16007Y10682D2*G1X16044Y10732D2*G1X16030Y10692D1*G1X16057Y10692D1*G1X16057Y10692D2*G1X16044Y10702D2*G1X16044Y10672D1*G1X16044Y10672D2*G1X16107Y10732D2*G1X16080Y10732D1*G1X16080Y10712D1*G1X16100Y10712D1*G1X16107Y10702D1*G1X16107Y10682D1*G1X16100Y10672D1*G1X16087Y10672D1*G1X16080Y10682D1*G1X16080Y10682D2*G1X16192Y10407D2*G1X16242Y10407D1*G1X16252Y10413D1*G1X16252Y10427D1*G1X16242Y10433D1*G1X16192Y10433D1*G1X16192Y10433D2*G1X16202Y10463D2*G1X16192Y10470D1*G1X16252Y10470D1*G1X16252Y10470D2*G1X16252Y10463D2*G1X16252Y10477D1*G1X16252Y10477D2*G1X16192Y10513D2*G1X16192Y10527D1*G1X16202Y10533D1*G1X16212Y10533D1*G1X16222Y10527D1*G1X16232Y10533D1*G1X16242Y10533D1*G1X16252Y10527D1*G1X16252Y10513D1*G1X16242Y10507D1*G1X16232Y10507D1*G1X16222Y10513D1*G1X16212Y10507D1*G1X16202Y10507D1*G1X16192Y10513D1*G1X16192Y10513D2*G1X16222Y10513D2*G1X16222Y10527D1*G1X16222Y10527D2*G1X15362Y10106D2*G1X15362Y10166D1*G1X15382Y10166D1*G1X15389Y10156D1*G1X15389Y10146D1*G1X15382Y10136D1*G1X15362Y10136D1*G1X15389Y10106D1*G1X15389Y10106D2*G1X15439Y10166D2*G1X15412Y10166D1*G1X15412Y10146D1*G1X15432Y10146D1*G1X15439Y10136D1*G1X15439Y10116D1*G1X15432Y10106D1*G1X15419Y10106D1*G1X15412Y10116D1*G1X15412Y10116D2*G1X15489Y10166D2*G1X15462Y10166D1*G1X15462Y10146D1*G1X15482Y10146D1*G1X15489Y10136D1*G1X15489Y10116D1*G1X15482Y10106D1*G1X15469Y10106D1*G1X15462Y10116D1*G1X15462Y10116D2*G1X15243Y10156D2*G1X15256Y10156D1*G1X15263Y10146D1*G1X15263Y10106D1*G1X15256Y10096D1*G1X15243Y10096D1*G1X15236Y10106D1*G1X15236Y10146D1*G1X15243Y10156D1*G1X15243Y10156D2*G1X15256Y10106D2*G1X15263Y10096D1*G1X15263Y10096D2*G1X15299Y10156D2*G1X15286Y10116D1*G1X15313Y10116D1*G1X15313Y10116D2*G1X15299Y10126D2*G1X15299Y10096D1*G1X15299Y10096D2*G1X15392Y09789D2*G1X15382Y09783D1*G1X15382Y09769D1*G1X15392Y09763D1*G1X15432Y09763D1*G1X15442Y09769D1*G1X15442Y09783D1*G1X15432Y09789D1*G1X15432Y09789D2*G1X15392Y09813D2*G1X15382Y09819D1*G1X15382Y09833D1*G1X15392Y09839D1*G1X15402Y09839D1*G1X15412Y09833D1*G1X15412Y09833D2*G1X15412Y09819D2*G1X15412Y09833D1*G1X15422Y09839D1*G1X15432Y09839D1*G1X15442Y09833D1*G1X15442Y09819D1*G1X15432Y09813D1*G1X15432Y09813D2*G1X15382Y09876D2*G1X15422Y09863D1*G1X15422Y09889D1*G1X15422Y09889D2*G1X15412Y09876D2*G1X15442Y09876D1*G1X15442Y09876D2*G1X15904Y10059D2*G1X15844Y10059D1*G1X15844Y10079D1*G1X15854Y10086D1*G1X15864Y10086D1*G1X15874Y10079D1*G1X15874Y10059D1*G1X15904Y10086D1*G1X15904Y10086D2*G1X15844Y10136D2*G1X15844Y10109D1*G1X15864Y10109D1*G1X15864Y10129D1*G1X15874Y10136D1*G1X15894Y10136D1*G1X15904Y10129D1*G1X15904Y10116D1*G1X15894Y10109D1*G1X15894Y10109D2*G1X15854Y10186D2*G1X15844Y10179D1*G1X15844Y10166D1*G1X15854Y10159D1*G1X15894Y10159D1*G1X15904Y10166D1*G1X15904Y10179D1*G1X15894Y10186D1*G1X15884Y10186D1*G1X15874Y10179D1*G1X15874Y10166D1*G1X15884Y10159D1*G1X15884Y10159D2*G1X16063Y10162D2*G1X16056Y10172D1*G1X16043Y10172D1*G1X16036Y10162D1*G1X16036Y10122D1*G1X16043Y10112D1*G1X16056Y10112D1*G1X16063Y10122D1*G1X16063Y10122D2*G1X16093Y10162D2*G1X16099Y10172D1*G1X16099Y10112D1*G1X16099Y10112D2*G1X16093Y10112D2*G1X16106Y10112D1*G1X16106Y10112D2*G1X16163Y10152D2*G1X16156Y10142D1*G1X16143Y10142D1*G1X16136Y10152D1*G1X16136Y10162D1*G1X16143Y10172D1*G1X16156Y10172D1*G1X16163Y10162D1*G1X16163Y10122D1*G1X16156Y10112D1*G1X16143Y10112D1*G1X16136Y10122D1*G1X16136Y10122D2*G1X15982Y09768D2*G1X15982Y09718D1*G1X15989Y09708D1*G1X16002Y09708D1*G1X16009Y09718D1*G1X16009Y09768D1*G1X16009Y09768D2*G1X16039Y09758D2*G1X16045Y09768D1*G1X16045Y09708D1*G1X16045Y09708D2*G1X16039Y09708D2*G1X16052Y09708D1*G1X16052Y09708D2*G1X16089Y09768D2*G1X16102Y09768D1*G1X16109Y09758D1*G1X16109Y09718D1*G1X16102Y09708D1*G1X16089Y09708D1*G1X16082Y09718D1*G1X16082Y09758D1*G1X16089Y09768D1*G1X16089Y09768D2*G1X16109Y09768D2*G1X16082Y09708D1*G1X16082Y09708D2*G1X16235Y10300D2*G1X16228Y10310D1*G1X16215Y10310D1*G1X16208Y10300D1*G1X16208Y10260D1*G1X16215Y10250D1*G1X16228Y10250D1*G1X16235Y10260D1*G1X16235Y10260D2*G1X16265Y10300D2*G1X16272Y10310D1*G1X16272Y10250D1*G1X16272Y10250D2*G1X16265Y10250D2*G1X16278Y10250D1*G1X16278Y10250D2*G1X16335Y10300D2*G1X16328Y10310D1*G1X16315Y10310D1*G1X16308Y10300D1*G1X16308Y10260D1*G1X16315Y10250D1*G1X16328Y10250D1*G1X16335Y10260D1*G1X16335Y10270D1*G1X16328Y10280D1*G1X16315Y10280D1*G1X16308Y10270D1*G1X16308Y10270D2*G1X16492Y10070D2*G1X16492Y10130D1*G1X16512Y10130D1*G1X16519Y10120D1*G1X16519Y10110D1*G1X16512Y10100D1*G1X16492Y10100D1*G1X16519Y10070D1*G1X16519Y10070D2*G1X16542Y10120D2*G1X16549Y10130D1*G1X16562Y10130D1*G1X16569Y10120D1*G1X16569Y10110D1*G1X16562Y10100D1*G1X16562Y10100D2*G1X16549Y10100D2*G1X16562Y10100D1*G1X16569Y10090D1*G1X16569Y10080D1*G1X16562Y10070D1*G1X16549Y10070D1*G1X16542Y10080D1*G1X16542Y10080D2*G1X16592Y10120D2*G1X16599Y10130D1*G1X16612Y10130D1*G1X16619Y10120D1*G1X16619Y10110D1*G1X16612Y10100D1*G1X16612Y10100D2*G1X16599Y10100D2*G1X16612Y10100D1*G1X16619Y10090D1*G1X16619Y10080D1*G1X16612Y10070D1*G1X16599Y10070D1*G1X16592Y10080D1*G1X16592Y10080D2*G1X16502Y09956D2*G1X16502Y10016D1*G1X16522Y10016D1*G1X16529Y10006D1*G1X16529Y09996D1*G1X16522Y09986D1*G1X16502Y09986D1*G1X16529Y09956D1*G1X16529Y09956D2*G1X16552Y10006D2*G1X16559Y10016D1*G1X16572Y10016D1*G1X16579Y10006D1*G1X16579Y09996D1*G1X16572Y09986D1*G1X16572Y09986D2*G1X16559Y09986D2*G1X16572Y09986D1*G1X16579Y09976D1*G1X16579Y09966D1*G1X16572Y09956D1*G1X16559Y09956D1*G1X16552Y09966D1*G1X16552Y09966D2*G1X16602Y10006D2*G1X16609Y10016D1*G1X16622Y10016D1*G1X16629Y10006D1*G1X16629Y09996D1*G1X16602Y09956D1*G1X16629Y09956D1*G1X16629Y09956D2*G1X16452Y09695D2*G1X16392Y09695D1*G1X16392Y09715D1*G1X16402Y09721D1*G1X16412Y09721D1*G1X16422Y09715D1*G1X16422Y09695D1*G1X16452Y09721D1*G1X16452Y09721D2*G1X16402Y09745D2*G1X16392Y09751D1*G1X16392Y09765D1*G1X16402Y09771D1*G1X16412Y09771D1*G1X16422Y09765D1*G1X16422Y09765D2*G1X16422Y09751D2*G1X16422Y09765D1*G1X16432Y09771D1*G1X16442Y09771D1*G1X16452Y09765D1*G1X16452Y09751D1*G1X16442Y09745D1*G1X16442Y09745D2*G1X16402Y09801D2*G1X16392Y09808D1*G1X16452Y09808D1*G1X16452Y09808D2*G1X16452Y09801D2*G1X16452Y09815D1*G1X16452Y09815D2*G1X16310Y09487D2*G1X16250Y09487D1*G1X16250Y09507D1*G1X16260Y09513D1*G1X16270Y09513D1*G1X16280Y09507D1*G1X16280Y09487D1*G1X16310Y09513D1*G1X16310Y09513D2*G1X16260Y09537D2*G1X16250Y09543D1*G1X16250Y09557D1*G1X16260Y09563D1*G1X16270Y09563D1*G1X16310Y09537D1*G1X16310Y09563D1*G1X16310Y09563D2*G1X16260Y09587D2*G1X16250Y09587D1*G1X16250Y09613D1*G1X16310Y09593D1*G1X16310Y09593D2*G1X15883Y09378D2*G1X15883Y09438D1*G1X15903Y09438D1*G1X15909Y09428D1*G1X15909Y09418D1*G1X15903Y09408D1*G1X15883Y09408D1*G1X15909Y09378D1*G1X15909Y09378D2*G1X15933Y09428D2*G1X15939Y09438D1*G1X15953Y09438D1*G1X15959Y09428D1*G1X15959Y09418D1*G1X15953Y09408D1*G1X15953Y09408D2*G1X15939Y09408D2*G1X15953Y09408D1*G1X15959Y09398D1*G1X15959Y09388D1*G1X15953Y09378D1*G1X15939Y09378D1*G1X15933Y09388D1*G1X15933Y09388D2*G1X15996Y09438D2*G1X15983Y09398D1*G1X16009Y09398D1*G1X16009Y09398D2*G1X15996Y09408D2*G1X15996Y09378D1*G1X15996Y09378D2*G1X14883Y09246D2*G1X14876Y09256D1*G1X14863Y09256D1*G1X14856Y09246D1*G1X14856Y09206D1*G1X14863Y09196D1*G1X14876Y09196D1*G1X14883Y09206D1*G1X14883Y09206D2*G1X14920Y09256D2*G1X14906Y09216D1*G1X14933Y09216D1*G1X14933Y09216D2*G1X14920Y09226D2*G1X14920Y09196D1*G1X14920Y09196D2*G1X14970Y09256D2*G1X14956Y09216D1*G1X14983Y09216D1*G1X14983Y09216D2*G1X14970Y09226D2*G1X14970Y09196D1*G1X14970Y09196D2*G1X14898Y08900D2*G1X14898Y08960D1*G1X14918Y08960D1*G1X14925Y08950D1*G1X14925Y08940D1*G1X14918Y08930D1*G1X14898Y08930D1*G1X14925Y08900D1*G1X14925Y08900D2*G1X14948Y08950D2*G1X14948Y08960D1*G1X14975Y08960D1*G1X14955Y08900D1*G1X14955Y08900D2*G1X15005Y08950D2*G1X15012Y08960D1*G1X15012Y08900D1*G1X15012Y08900D2*G1X15005Y08900D2*G1X15018Y08900D1*G1X15018Y08900D2*G1X13763Y09328D2*G1X13756Y09338D1*G1X13743Y09338D1*G1X13736Y09328D1*G1X13736Y09288D1*G1X13743Y09278D1*G1X13756Y09278D1*G1X13763Y09288D1*G1X13763Y09288D2*G1X13800Y09338D2*G1X13786Y09298D1*G1X13813Y09298D1*G1X13813Y09298D2*G1X13800Y09308D2*G1X13800Y09278D1*G1X13800Y09278D2*G1X13836Y09328D2*G1X13836Y09338D1*G1X13863Y09338D1*G1X13843Y09278D1*G1X13843Y09278D2*G1X12866Y09336D2*G1X12866Y09396D1*G1X12886Y09396D1*G1X12893Y09386D1*G1X12893Y09376D1*G1X12886Y09366D1*G1X12866Y09366D1*G1X12893Y09336D1*G1X12893Y09336D2*G1X12923Y09386D2*G1X12930Y09396D1*G1X12930Y09336D1*G1X12930Y09336D2*G1X12923Y09336D2*G1X12936Y09336D1*G1X12936Y09336D2*G1X12993Y09396D2*G1X12966Y09396D1*G1X12966Y09376D1*G1X12986Y09376D1*G1X12993Y09366D1*G1X12993Y09346D1*G1X12986Y09336D1*G1X12973Y09336D1*G1X12966Y09346D1*G1X12966Y09346D2*G1X12762Y09713D2*G1X12752Y09707D1*G1X12752Y09693D1*G1X12762Y09687D1*G1X12802Y09687D1*G1X12812Y09693D1*G1X12812Y09707D1*G1X12802Y09713D1*G1X12802Y09713D2*G1X12762Y09763D2*G1X12752Y09757D1*G1X12752Y09743D1*G1X12762Y09737D1*G1X12802Y09737D1*G1X12812Y09743D1*G1X12812Y09757D1*G1X12802Y09763D1*G1X12792Y09763D1*G1X12782Y09757D1*G1X12782Y09743D1*G1X12792Y09737D1*G1X12792Y09737D2*G1X12326Y09888D2*G1X12326Y09948D1*G1X12346Y09948D1*G1X12353Y09938D1*G1X12353Y09928D1*G1X12346Y09918D1*G1X12326Y09918D1*G1X12353Y09888D1*G1X12353Y09888D2*G1X12376Y09938D2*G1X12383Y09948D1*G1X12396Y09948D1*G1X12403Y09938D1*G1X12403Y09928D1*G1X12396Y09918D1*G1X12396Y09918D2*G1X12383Y09918D2*G1X12396Y09918D1*G1X12403Y09908D1*G1X12403Y09898D1*G1X12396Y09888D1*G1X12383Y09888D1*G1X12376Y09898D1*G1X12376Y09898D2*G1X12453Y09928D2*G1X12446Y09918D1*G1X12433Y09918D1*G1X12426Y09928D1*G1X12426Y09938D1*G1X12433Y09948D1*G1X12446Y09948D1*G1X12453Y09938D1*G1X12453Y09898D1*G1X12446Y09888D1*G1X12433Y09888D1*G1X12426Y09898D1*G1X12426Y09898D2*G1X11851Y09597D2*G1X11841Y09591D1*G1X11841Y09577D1*G1X11851Y09571D1*G1X11891Y09571D1*G1X11901Y09577D1*G1X11901Y09591D1*G1X11891Y09597D1*G1X11891Y09597D2*G1X11841Y09647D2*G1X11841Y09621D1*G1X11861Y09621D1*G1X11861Y09641D1*G1X11871Y09647D1*G1X11891Y09647D1*G1X11901Y09641D1*G1X11901Y09627D1*G1X11891Y09621D1*G1X11891Y09621D2*G1X11196Y09712D2*G1X11196Y09662D1*G1X11203Y09652D1*G1X11216Y09652D1*G1X11223Y09662D1*G1X11223Y09712D1*G1X11223Y09712D2*G1X11253Y09712D2*G1X11266Y09712D1*G1X11273Y09702D1*G1X11273Y09692D1*G1X11266Y09682D1*G1X11273Y09672D1*G1X11273Y09662D1*G1X11266Y09652D1*G1X11253Y09652D1*G1X11246Y09662D1*G1X11246Y09672D1*G1X11253Y09682D1*G1X11246Y09692D1*G1X11246Y09702D1*G1X11253Y09712D1*G1X11253Y09712D2*G1X11253Y09682D2*G1X11266Y09682D1*G1X11266Y09682D2*G1X11173Y09312D2*G1X11166Y09322D1*G1X11153Y09322D1*G1X11146Y09312D1*G1X11146Y09272D1*G1X11153Y09262D1*G1X11166Y09262D1*G1X11173Y09272D1*G1X11173Y09272D2*G1X11203Y09312D2*G1X11209Y09322D1*G1X11209Y09262D1*G1X11209Y09262D2*G1X11203Y09262D2*G1X11216Y09262D1*G1X11216Y09262D2*G1X11246Y09312D2*G1X11246Y09322D1*G1X11273Y09322D1*G1X11253Y09262D1*G1X11253Y09262D2*G1X11909Y09081D2*G1X11899Y09075D1*G1X11899Y09061D1*G1X11909Y09055D1*G1X11949Y09055D1*G1X11959Y09061D1*G1X11959Y09075D1*G1X11949Y09081D1*G1X11949Y09081D2*G1X11909Y09105D2*G1X11899Y09111D1*G1X11899Y09125D1*G1X11909Y09131D1*G1X11919Y09131D1*G1X11959Y09105D1*G1X11959Y09131D1*G1X11959Y09131D2*G1X11909Y09155D2*G1X11899Y09161D1*G1X11899Y09175D1*G1X11909Y09181D1*G1X11919Y09181D1*G1X11959Y09155D1*G1X11959Y09181D1*G1X11959Y09181D2*G1X12276Y10285D2*G1X12216Y10285D1*G1X12216Y10305D1*G1X12226Y10311D1*G1X12236Y10311D1*G1X12246Y10305D1*G1X12246Y10285D1*G1X12276Y10311D1*G1X12276Y10311D2*G1X12216Y10348D2*G1X12256Y10335D1*G1X12256Y10361D1*G1X12256Y10361D2*G1X12246Y10348D2*G1X12276Y10348D1*G1X12276Y10348D2*G1X12480Y10287D2*G1X12420Y10287D1*G1X12420Y10307D1*G1X12430Y10314D1*G1X12440Y10314D1*G1X12450Y10307D1*G1X12450Y10287D1*G1X12480Y10314D1*G1X12480Y10314D2*G1X12420Y10364D2*G1X12420Y10337D1*G1X12440Y10337D1*G1X12440Y10357D1*G1X12450Y10364D1*G1X12470Y10364D1*G1X12480Y10357D1*G1X12480Y10344D1*G1X12470Y10337D1*G1X12470Y10337D2*G1X12682Y10279D2*G1X12622Y10279D1*G1X12622Y10299D1*G1X12632Y10306D1*G1X12642Y10306D1*G1X12652Y10299D1*G1X12652Y10279D1*G1X12682Y10306D1*G1X12682Y10306D2*G1X12632Y10356D2*G1X12622Y10349D1*G1X12622Y10336D1*G1X12632Y10329D1*G1X12672Y10329D1*G1X12682Y10336D1*G1X12682Y10349D1*G1X12672Y10356D1*G1X12662Y10356D1*G1X12652Y10349D1*G1X12652Y10336D1*G1X12662Y10329D1*G1X12662Y10329D2*G1X13274Y10203D2*G1X13214Y10203D1*G1X13214Y10223D1*G1X13224Y10229D1*G1X13234Y10229D1*G1X13244Y10223D1*G1X13244Y10203D1*G1X13274Y10229D1*G1X13274Y10229D2*G1X13214Y10266D2*G1X13254Y10253D1*G1X13254Y10279D1*G1X13254Y10279D2*G1X13244Y10266D2*G1X13274Y10266D1*G1X13274Y10266D2*G1X13224Y10329D2*G1X13214Y10323D1*G1X13214Y10309D1*G1X13224Y10303D1*G1X13264Y10303D1*G1X13274Y10309D1*G1X13274Y10323D1*G1X13264Y10329D1*G1X13254Y10329D1*G1X13244Y10323D1*G1X13244Y10309D1*G1X13254Y10303D1*G1X13254Y10303D2*G1X13471Y10213D2*G1X13411Y10213D1*G1X13411Y10233D1*G1X13421Y10240D1*G1X13431Y10240D1*G1X13441Y10233D1*G1X13441Y10213D1*G1X13471Y10240D1*G1X13471Y10240D2*G1X13411Y10276D2*G1X13451Y10263D1*G1X13451Y10290D1*G1X13451Y10290D2*G1X13441Y10276D2*G1X13471Y10276D1*G1X13471Y10276D2*G1X13421Y10313D2*G1X13411Y10313D1*G1X13411Y10340D1*G1X13471Y10320D1*G1X13471Y10320D2*G1X13670Y10215D2*G1X13610Y10215D1*G1X13610Y10235D1*G1X13620Y10242D1*G1X13630Y10242D1*G1X13640Y10235D1*G1X13640Y10215D1*G1X13670Y10242D1*G1X13670Y10242D2*G1X13610Y10278D2*G1X13650Y10265D1*G1X13650Y10292D1*G1X13650Y10292D2*G1X13640Y10278D2*G1X13670Y10278D1*G1X13670Y10278D2*G1X13610Y10322D2*G1X13610Y10335D1*G1X13620Y10342D1*G1X13630Y10342D1*G1X13640Y10335D1*G1X13650Y10342D1*G1X13660Y10342D1*G1X13670Y10335D1*G1X13670Y10322D1*G1X13660Y10315D1*G1X13650Y10315D1*G1X13640Y10322D1*G1X13630Y10315D1*G1X13620Y10315D1*G1X13610Y10322D1*G1X13610Y10322D2*G1X13640Y10322D2*G1X13640Y10335D1*G1X13640Y10335D2*G1X13804Y10237D2*G1X13794Y10231D1*G1X13794Y10217D1*G1X13804Y10211D1*G1X13844Y10211D1*G1X13854Y10217D1*G1X13854Y10231D1*G1X13844Y10237D1*G1X13844Y10237D2*G1X13804Y10261D2*G1X13794Y10267D1*G1X13794Y10281D1*G1X13804Y10287D1*G1X13814Y10287D1*G1X13854Y10261D1*G1X13854Y10287D1*G1X13854Y10287D2*G1X13804Y10311D2*G1X13794Y10317D1*G1X13794Y10331D1*G1X13804Y10337D1*G1X13814Y10337D1*G1X13824Y10331D1*G1X13824Y10331D2*G1X13824Y10317D2*G1X13824Y10331D1*G1X13834Y10337D1*G1X13844Y10337D1*G1X13854Y10331D1*G1X13854Y10317D1*G1X13844Y10311D1*G1X13844Y10311D2*G1X14534Y10215D2*G1X14474Y10215D1*G1X14474Y10235D1*G1X14484Y10242D1*G1X14494Y10242D1*G1X14504Y10235D1*G1X14504Y10215D1*G1X14534Y10242D1*G1X14534Y10242D2*G1X14474Y10278D2*G1X14514Y10265D1*G1X14514Y10292D1*G1X14514Y10292D2*G1X14504Y10278D2*G1X14534Y10278D1*G1X14534Y10278D2*G1X14474Y10342D2*G1X14474Y10315D1*G1X14494Y10315D1*G1X14494Y10335D1*G1X14504Y10342D1*G1X14524Y10342D1*G1X14534Y10335D1*G1X14534Y10322D1*G1X14524Y10315D1*G1X14524Y10315D2*G1X14025Y10678D2*G1X14018Y10688D1*G1X14005Y10688D1*G1X13998Y10678D1*G1X13998Y10638D1*G1X14005Y10628D1*G1X14018Y10628D1*G1X14025Y10638D1*G1X14025Y10638D2*G1X14048Y10678D2*G1X14055Y10688D1*G1X14068Y10688D1*G1X14075Y10678D1*G1X14075Y10668D1*G1X14048Y10628D1*G1X14075Y10628D1*G1X14075Y10628D2*G1X14125Y10668D2*G1X14118Y10658D1*G1X14105Y10658D1*G1X14098Y10668D1*G1X14098Y10678D1*G1X14105Y10688D1*G1X14118Y10688D1*G1X14125Y10678D1*G1X14125Y10638D1*G1X14118Y10628D1*G1X14105Y10628D1*G1X14098Y10638D1*G1X14098Y10638D2*G1X15655Y11238D2*G1X15655Y11188D1*G1X15648Y11178D1*G1X15635Y11178D1*G1X15628Y11188D1*G1X15628Y11188D2*G1X15685Y11238D2*G1X15698Y11238D1*G1X15705Y11228D1*G1X15705Y11218D1*G1X15698Y11208D1*G1X15705Y11198D1*G1X15705Y11188D1*G1X15698Y11178D1*G1X15685Y11178D1*G1X15678Y11188D1*G1X15678Y11198D1*G1X15685Y11208D1*G1X15678Y11218D1*G1X15678Y11228D1*G1X15685Y11238D1*G1X15685Y11238D2*G1X15685Y11208D2*G1X15698Y11208D1*G1X15698Y11208D2*G1X16597Y11532D2*G1X16597Y11482D1*G1X16590Y11472D1*G1X16577Y11472D1*G1X16570Y11482D1*G1X16570Y11482D2*G1X16620Y11522D2*G1X16627Y11532D1*G1X16640Y11532D1*G1X16647Y11522D1*G1X16647Y11512D1*G1X16640Y11502D1*G1X16640Y11502D2*G1X16627Y11502D2*G1X16640Y11502D1*G1X16647Y11492D1*G1X16647Y11482D1*G1X16640Y11472D1*G1X16627Y11472D1*G1X16620Y11482D1*G1X16620Y11482D2*G1X16778Y10948D2*G1X16798Y10948D1*G1X16805Y10938D1*G1X16805Y10898D1*G1X16798Y10888D1*G1X16778Y10888D1*G1X16778Y10948D1*G1X16778Y10948D2*G1X16828Y10938D2*G1X16835Y10948D1*G1X16848Y10948D1*G1X16855Y10938D1*G1X16855Y10928D1*G1X16848Y10918D1*G1X16848Y10918D2*G1X16835Y10918D2*G1X16848Y10918D1*G1X16855Y10908D1*G1X16855Y10898D1*G1X16848Y10888D1*G1X16835Y10888D1*G1X16828Y10898D1*G1X16828Y10898D2*G1X17150Y10944D2*G1X17170Y10944D1*G1X17177Y10934D1*G1X17177Y10894D1*G1X17170Y10884D1*G1X17150Y10884D1*G1X17150Y10944D1*G1X17150Y10944D2*G1X17227Y10944D2*G1X17200Y10944D1*G1X17200Y10924D1*G1X17220Y10924D1*G1X17227Y10914D1*G1X17227Y10894D1*G1X17220Y10884D1*G1X17207Y10884D1*G1X17200Y10894D1*G1X17200Y10894D2*G1X17474Y10948D2*G1X17494Y10948D1*G1X17501Y10938D1*G1X17501Y10898D1*G1X17494Y10888D1*G1X17474Y10888D1*G1X17474Y10948D1*G1X17474Y10948D2*G1X17538Y10948D2*G1X17524Y10908D1*G1X17551Y10908D1*G1X17551Y10908D2*G1X17538Y10918D2*G1X17538Y10888D1*G1X17538Y10888D2*G1X17490Y09722D2*G1X17510Y09722D1*G1X17516Y09712D1*G1X17516Y09672D1*G1X17510Y09662D1*G1X17490Y09662D1*G1X17490Y09722D1*G1X17490Y09722D2*G1X17540Y09712D2*G1X17546Y09722D1*G1X17560Y09722D1*G1X17566Y09712D1*G1X17566Y09702D1*G1X17540Y09662D1*G1X17566Y09662D1*G1X17566Y09662D2*G1X16902Y10076D2*G1X16902Y10136D1*G1X16922Y10136D1*G1X16929Y10126D1*G1X16929Y10116D1*G1X16922Y10106D1*G1X16902Y10106D1*G1X16929Y10076D1*G1X16929Y10076D2*G1X16952Y10126D2*G1X16959Y10136D1*G1X16972Y10136D1*G1X16979Y10126D1*G1X16979Y10116D1*G1X16952Y10076D1*G1X16979Y10076D1*G1X16979Y10076D2*G1X17029Y10116D2*G1X17022Y10106D1*G1X17009Y10106D1*G1X17002Y10116D1*G1X17002Y10126D1*G1X17009Y10136D1*G1X17022Y10136D1*G1X17029Y10126D1*G1X17029Y10086D1*G1X17022Y10076D1*G1X17009Y10076D1*G1X17002Y10086D1*G1X17002Y10086D2*G1X16997Y09764D2*G1X17010Y09764D1*G1X17017Y09754D1*G1X17017Y09714D1*G1X17010Y09704D1*G1X16997Y09704D1*G1X16990Y09714D1*G1X16990Y09754D1*G1X16997Y09764D1*G1X16997Y09764D2*G1X17010Y09714D2*G1X17017Y09704D1*G1X17017Y09704D2*G1X17047Y09754D2*G1X17054Y09764D1*G1X17054Y09704D1*G1X17054Y09704D2*G1X17047Y09704D2*G1X17060Y09704D1*G1X17060Y09704D2*G1X16843Y09689D2*G1X16783Y09689D1*G1X16783Y09709D1*G1X16793Y09715D1*G1X16803Y09715D1*G1X16813Y09709D1*G1X16813Y09689D1*G1X16843Y09715D1*G1X16843Y09715D2*G1X16793Y09739D2*G1X16783Y09745D1*G1X16783Y09759D1*G1X16793Y09765D1*G1X16803Y09765D1*G1X16843Y09739D1*G1X16843Y09765D1*G1X16843Y09765D2*G1X16783Y09795D2*G1X16783Y09809D1*G1X16793Y09815D1*G1X16803Y09815D1*G1X16813Y09809D1*G1X16823Y09815D1*G1X16833Y09815D1*G1X16843Y09809D1*G1X16843Y09795D1*G1X16833Y09789D1*G1X16823Y09789D1*G1X16813Y09795D1*G1X16803Y09789D1*G1X16793Y09789D1*G1X16783Y09795D1*G1X16783Y09795D2*G1X16813Y09795D2*G1X16813Y09809D1*G1X16813Y09809D2*G1X16583Y09798D2*G1X16576Y09808D1*G1X16563Y09808D1*G1X16556Y09798D1*G1X16556Y09758D1*G1X16563Y09748D1*G1X16576Y09748D1*G1X16583Y09758D1*G1X16583Y09758D2*G1X16606Y09798D2*G1X16613Y09808D1*G1X16626Y09808D1*G1X16633Y09798D1*G1X16633Y09788D1*G1X16606Y09748D1*G1X16633Y09748D1*G1X16633Y09748D2*G1X16663Y09808D2*G1X16676Y09808D1*G1X16683Y09798D1*G1X16683Y09758D1*G1X16676Y09748D1*G1X16663Y09748D1*G1X16656Y09758D1*G1X16656Y09798D1*G1X16663Y09808D1*G1X16663Y09808D2*G1X16683Y09808D2*G1X16656Y09748D1*G1X16656Y09748D2*G1X16915Y09275D2*G1X16855Y09275D1*G1X16855Y09295D1*G1X16865Y09302D1*G1X16875Y09302D1*G1X16885Y09295D1*G1X16885Y09275D1*G1X16915Y09302D1*G1X16915Y09302D2*G1X16865Y09325D2*G1X16855Y09332D1*G1X16855Y09345D1*G1X16865Y09352D1*G1X16875Y09352D1*G1X16915Y09325D1*G1X16915Y09352D1*G1X16915Y09352D2*G1X16865Y09382D2*G1X16855Y09388D1*G1X16915Y09388D1*G1X16915Y09388D2*G1X16915Y09382D2*G1X16915Y09395D1*G1X16915Y09395D2*G1X17173Y09433D2*G1X17113Y09433D1*G1X17113Y09453D1*G1X17123Y09459D1*G1X17133Y09459D1*G1X17143Y09453D1*G1X17143Y09433D1*G1X17173Y09459D1*G1X17173Y09459D2*G1X17123Y09483D2*G1X17113Y09489D1*G1X17113Y09503D1*G1X17123Y09509D1*G1X17133Y09509D1*G1X17173Y09483D1*G1X17173Y09509D1*G1X17173Y09509D2*G1X17113Y09546D2*G1X17153Y09533D1*G1X17153Y09559D1*G1X17153Y09559D2*G1X17143Y09546D2*G1X17173Y09546D1*G1X17173Y09546D2*G1X17217Y08985D2*G1X17157Y08985D1*G1X17157Y09005D1*G1X17167Y09011D1*G1X17177Y09011D1*G1X17187Y09005D1*G1X17187Y08985D1*G1X17217Y09011D1*G1X17217Y09011D2*G1X17167Y09035D2*G1X17157Y09041D1*G1X17157Y09055D1*G1X17167Y09061D1*G1X17177Y09061D1*G1X17187Y09055D1*G1X17187Y09055D2*G1X17187Y09041D2*G1X17187Y09055D1*G1X17197Y09061D1*G1X17207Y09061D1*G1X17217Y09055D1*G1X17217Y09041D1*G1X17207Y09035D1*G1X17207Y09035D2*G1X17157Y09091D2*G1X17157Y09105D1*G1X17167Y09111D1*G1X17207Y09111D1*G1X17217Y09105D1*G1X17217Y09091D1*G1X17207Y09085D1*G1X17167Y09085D1*G1X17157Y09091D1*G1X17157Y09091D2*G1X17157Y09111D2*G1X17217Y09085D1*G1X17217Y09085D2*G1X16771Y09079D2*G1X16711Y09079D1*G1X16711Y09099D1*G1X16721Y09106D1*G1X16731Y09106D1*G1X16741Y09099D1*G1X16741Y09079D1*G1X16771Y09106D1*G1X16771Y09106D2*G1X16721Y09129D2*G1X16711Y09136D1*G1X16711Y09149D1*G1X16721Y09156D1*G1X16731Y09156D1*G1X16771Y09129D1*G1X16771Y09156D1*G1X16771Y09156D2*G1X16721Y09179D2*G1X16711Y09186D1*G1X16711Y09199D1*G1X16721Y09206D1*G1X16731Y09206D1*G1X16771Y09179D1*G1X16771Y09206D1*G1X16771Y09206D2*G1X16310Y09284D2*G1X16310Y09344D1*G1X16330Y09344D1*G1X16337Y09334D1*G1X16337Y09324D1*G1X16330Y09314D1*G1X16310Y09314D1*G1X16337Y09284D1*G1X16337Y09284D2*G1X16360Y09334D2*G1X16367Y09344D1*G1X16380Y09344D1*G1X16387Y09334D1*G1X16387Y09324D1*G1X16360Y09284D1*G1X16387Y09284D1*G1X16387Y09284D2*G1X16410Y09334D2*G1X16417Y09344D1*G1X16430Y09344D1*G1X16437Y09334D1*G1X16437Y09324D1*G1X16430Y09314D1*G1X16430Y09314D2*G1X16417Y09314D2*G1X16430Y09314D1*G1X16437Y09304D1*G1X16437Y09294D1*G1X16430Y09284D1*G1X16417Y09284D1*G1X16410Y09294D1*G1X16410Y09294D2*G1X16296Y08958D2*G1X16296Y09018D1*G1X16316Y09018D1*G1X16323Y09008D1*G1X16323Y08998D1*G1X16316Y08988D1*G1X16296Y08988D1*G1X16323Y08958D1*G1X16323Y08958D2*G1X16346Y09008D2*G1X16353Y09018D1*G1X16366Y09018D1*G1X16373Y09008D1*G1X16373Y08998D1*G1X16346Y08958D1*G1X16373Y08958D1*G1X16373Y08958D2*G1X16403Y09018D2*G1X16416Y09018D1*G1X16423Y09008D1*G1X16423Y08968D1*G1X16416Y08958D1*G1X16403Y08958D1*G1X16396Y08968D1*G1X16396Y09008D1*G1X16403Y09018D1*G1X16403Y09018D2*G1X16423Y09018D2*G1X16396Y08958D1*G1X16396Y08958D2*G1X16140Y08927D2*G1X16080Y08927D1*G1X16080Y08947D1*G1X16090Y08954D1*G1X16100Y08954D1*G1X16110Y08947D1*G1X16110Y08927D1*G1X16140Y08954D1*G1X16140Y08954D2*G1X16090Y08977D2*G1X16080Y08984D1*G1X16080Y08997D1*G1X16090Y09004D1*G1X16100Y09004D1*G1X16140Y08977D1*G1X16140Y09004D1*G1X16140Y09004D2*G1X16080Y09054D2*G1X16080Y09027D1*G1X16100Y09027D1*G1X16100Y09047D1*G1X16110Y09054D1*G1X16130Y09054D1*G1X16140Y09047D1*G1X16140Y09034D1*G1X16130Y09027D1*G1X16130Y09027D2*G1X15628Y09128D2*G1X15628Y09188D1*G1X15648Y09188D1*G1X15655Y09178D1*G1X15655Y09168D1*G1X15648Y09158D1*G1X15628Y09158D1*G1X15655Y09128D1*G1X15655Y09128D2*G1X15678Y09178D2*G1X15685Y09188D1*G1X15698Y09188D1*G1X15705Y09178D1*G1X15705Y09168D1*G1X15678Y09128D1*G1X15705Y09128D1*G1X15705Y09128D2*G1X15755Y09178D2*G1X15748Y09188D1*G1X15735Y09188D1*G1X15728Y09178D1*G1X15728Y09138D1*G1X15735Y09128D1*G1X15748Y09128D1*G1X15755Y09138D1*G1X15755Y09148D1*G1X15748Y09158D1*G1X15735Y09158D1*G1X15728Y09148D1*G1X15728Y09148D2*G1X16778Y08285D2*G1X16828Y08285D1*G1X16838Y08291D1*G1X16838Y08305D1*G1X16828Y08311D1*G1X16778Y08311D1*G1X16778Y08311D2*G1X16778Y08361D2*G1X16778Y08335D1*G1X16798Y08335D1*G1X16798Y08355D1*G1X16808Y08361D1*G1X16828Y08361D1*G1X16838Y08355D1*G1X16838Y08341D1*G1X16828Y08335D1*G1X16828Y08335D2*G1X15773Y07042D2*G1X15766Y07052D1*G1X15753Y07052D1*G1X15746Y07042D1*G1X15746Y07002D1*G1X15753Y06992D1*G1X15766Y06992D1*G1X15773Y07002D1*G1X15773Y07002D2*G1X15803Y07042D2*G1X15809Y07052D1*G1X15809Y06992D1*G1X15809Y06992D2*G1X15803Y06992D2*G1X15816Y06992D1*G1X15816Y06992D2*G1X15859Y07052D2*G1X15846Y07012D1*G1X15873Y07012D1*G1X15873Y07012D2*G1X15859Y07022D2*G1X15859Y06992D1*G1X15859Y06992D2*G1X16204Y07269D2*G1X16194Y07262D1*G1X16194Y07249D1*G1X16204Y07242D1*G1X16244Y07242D1*G1X16254Y07249D1*G1X16254Y07262D1*G1X16244Y07269D1*G1X16244Y07269D2*G1X16204Y07299D2*G1X16194Y07306D1*G1X16254Y07306D1*G1X16254Y07306D2*G1X16254Y07299D2*G1X16254Y07312D1*G1X16254Y07312D2*G1X16204Y07342D2*G1X16194Y07349D1*G1X16194Y07362D1*G1X16204Y07369D1*G1X16214Y07369D1*G1X16224Y07362D1*G1X16224Y07362D2*G1X16224Y07349D2*G1X16224Y07362D1*G1X16234Y07369D1*G1X16244Y07369D1*G1X16254Y07362D1*G1X16254Y07349D1*G1X16244Y07342D1*G1X16244Y07342D2*G1X16433Y07227D2*G1X16373Y07227D1*G1X16373Y07247D1*G1X16383Y07254D1*G1X16393Y07254D1*G1X16403Y07247D1*G1X16403Y07227D1*G1X16433Y07254D1*G1X16433Y07254D2*G1X16383Y07284D2*G1X16373Y07290D1*G1X16433Y07290D1*G1X16433Y07290D2*G1X16433Y07284D2*G1X16433Y07297D1*G1X16433Y07297D2*G1X16393Y07354D2*G1X16403Y07347D1*G1X16403Y07334D1*G1X16393Y07327D1*G1X16383Y07327D1*G1X16373Y07334D1*G1X16373Y07347D1*G1X16383Y07354D1*G1X16423Y07354D1*G1X16433Y07347D1*G1X16433Y07334D1*G1X16423Y07327D1*G1X16423Y07327D2*G1X16538Y07226D2*G1X16528Y07219D1*G1X16528Y07206D1*G1X16538Y07199D1*G1X16578Y07199D1*G1X16588Y07206D1*G1X16588Y07219D1*G1X16578Y07226D1*G1X16578Y07226D2*G1X16538Y07256D2*G1X16528Y07262D1*G1X16588Y07262D1*G1X16588Y07262D2*G1X16588Y07256D2*G1X16588Y07269D1*G1X16588Y07269D2*G1X16538Y07306D2*G1X16528Y07312D1*G1X16588Y07312D1*G1X16588Y07312D2*G1X16588Y07306D2*G1X16588Y07319D1*G1X16588Y07319D2*G1X16640Y07222D2*G1X16630Y07215D1*G1X16630Y07202D1*G1X16640Y07195D1*G1X16680Y07195D1*G1X16690Y07202D1*G1X16690Y07215D1*G1X16680Y07222D1*G1X16680Y07222D2*G1X16640Y07252D2*G1X16630Y07259D1*G1X16690Y07259D1*G1X16690Y07259D2*G1X16690Y07252D2*G1X16690Y07265D1*G1X16690Y07265D2*G1X16630Y07302D2*G1X16630Y07315D1*G1X16640Y07322D1*G1X16680Y07322D1*G1X16690Y07315D1*G1X16690Y07302D1*G1X16680Y07295D1*G1X16640Y07295D1*G1X16630Y07302D1*G1X16630Y07302D2*G1X16630Y07322D2*G1X16690Y07295D1*G1X16690Y07295D2*G1X16872Y06958D2*G1X16872Y06908D1*G1X16879Y06898D1*G1X16892Y06898D1*G1X16899Y06908D1*G1X16899Y06958D1*G1X16899Y06958D2*G1X16922Y06948D2*G1X16922Y06958D1*G1X16949Y06958D1*G1X16929Y06898D1*G1X16929Y06898D2*G1X16446Y06814D2*G1X16446Y06874D1*G1X16466Y06874D1*G1X16473Y06864D1*G1X16473Y06854D1*G1X16466Y06844D1*G1X16446Y06844D1*G1X16473Y06814D1*G1X16473Y06814D2*G1X16503Y06864D2*G1X16509Y06874D1*G1X16509Y06814D1*G1X16509Y06814D2*G1X16503Y06814D2*G1X16516Y06814D1*G1X16516Y06814D2*G1X16546Y06864D2*G1X16546Y06874D1*G1X16573Y06874D1*G1X16553Y06814D1*G1X16553Y06814D2*G1X16794Y06722D2*G1X16794Y06782D1*G1X16814Y06782D1*G1X16821Y06772D1*G1X16821Y06762D1*G1X16814Y06752D1*G1X16794Y06752D1*G1X16821Y06722D1*G1X16821Y06722D2*G1X16851Y06772D2*G1X16857Y06782D1*G1X16857Y06722D1*G1X16857Y06722D2*G1X16851Y06722D2*G1X16864Y06722D1*G1X16864Y06722D2*G1X16921Y06772D2*G1X16914Y06782D1*G1X16901Y06782D1*G1X16894Y06772D1*G1X16894Y06732D1*G1X16901Y06722D1*G1X16914Y06722D1*G1X16921Y06732D1*G1X16921Y06742D1*G1X16914Y06752D1*G1X16901Y06752D1*G1X16894Y06742D1*G1X16894Y06742D2*G1X17147Y07156D2*G1X17137Y07149D1*G1X17137Y07136D1*G1X17147Y07129D1*G1X17187Y07129D1*G1X17197Y07136D1*G1X17197Y07149D1*G1X17187Y07156D1*G1X17187Y07156D2*G1X17147Y07186D2*G1X17137Y07192D1*G1X17197Y07192D1*G1X17197Y07192D2*G1X17197Y07186D2*G1X17197Y07199D1*G1X17197Y07199D2*G1X17147Y07229D2*G1X17137Y07236D1*G1X17137Y07249D1*G1X17147Y07256D1*G1X17157Y07256D1*G1X17197Y07229D1*G1X17197Y07256D1*G1X17197Y07256D2*G1X17391Y07041D2*G1X17331Y07041D1*G1X17331Y07061D1*G1X17341Y07068D1*G1X17351Y07068D1*G1X17361Y07061D1*G1X17361Y07041D1*G1X17391Y07068D1*G1X17391Y07068D2*G1X17341Y07098D2*G1X17331Y07104D1*G1X17391Y07104D1*G1X17391Y07104D2*G1X17391Y07098D2*G1X17391Y07111D1*G1X17391Y07111D2*G1X17331Y07148D2*G1X17331Y07161D1*G1X17341Y07168D1*G1X17351Y07168D1*G1X17361Y07161D1*G1X17371Y07168D1*G1X17381Y07168D1*G1X17391Y07161D1*G1X17391Y07148D1*G1X17381Y07141D1*G1X17371Y07141D1*G1X17361Y07148D1*G1X17351Y07141D1*G1X17341Y07141D1*G1X17331Y07148D1*G1X17331Y07148D2*G1X17361Y07148D2*G1X17361Y07161D1*G1X17361Y07161D2*G1X16717Y06090D2*G1X16710Y06100D1*G1X16697Y06100D1*G1X16690Y06090D1*G1X16690Y06050D1*G1X16697Y06040D1*G1X16710Y06040D1*G1X16717Y06050D1*G1X16717Y06050D2*G1X16747Y06090D2*G1X16754Y06100D1*G1X16754Y06040D1*G1X16754Y06040D2*G1X16747Y06040D2*G1X16760Y06040D1*G1X16760Y06040D2*G1X16817Y06100D2*G1X16790Y06100D1*G1X16790Y06080D1*G1X16810Y06080D1*G1X16817Y06070D1*G1X16817Y06050D1*G1X16810Y06040D1*G1X16797Y06040D1*G1X16790Y06050D1*G1X16790Y06050D2*G1X15861Y06225D2*G1X15801Y06225D1*G1X15801Y06245D1*G1X15811Y06251D1*G1X15821Y06251D1*G1X15831Y06245D1*G1X15831Y06225D1*G1X15861Y06251D1*G1X15861Y06251D2*G1X15811Y06281D2*G1X15801Y06288D1*G1X15861Y06288D1*G1X15861Y06288D2*G1X15861Y06281D2*G1X15861Y06295D1*G1X15861Y06295D2*G1X15801Y06331D2*G1X15801Y06345D1*G1X15811Y06351D1*G1X15851Y06351D1*G1X15861Y06345D1*G1X15861Y06331D1*G1X15851Y06325D1*G1X15811Y06325D1*G1X15801Y06331D1*G1X15801Y06331D2*G1X15801Y06351D2*G1X15861Y06325D1*G1X15861Y06325D2*G1X17417Y06120D2*G1X17410Y06130D1*G1X17397Y06130D1*G1X17390Y06120D1*G1X17390Y06080D1*G1X17397Y06070D1*G1X17410Y06070D1*G1X17417Y06080D1*G1X17417Y06080D2*G1X17467Y06110D2*G1X17460Y06100D1*G1X17447Y06100D1*G1X17440Y06110D1*G1X17440Y06120D1*G1X17447Y06130D1*G1X17460Y06130D1*G1X17467Y06120D1*G1X17467Y06080D1*G1X17460Y06070D1*G1X17447Y06070D1*G1X17440Y06080D1*G1X17440Y06080D2*G1X15592Y06233D2*G1X15532Y06233D1*G1X15532Y06253D1*G1X15542Y06260D1*G1X15552Y06260D1*G1X15562Y06253D1*G1X15562Y06233D1*G1X15592Y06260D1*G1X15592Y06260D2*G1X15542Y06290D2*G1X15532Y06296D1*G1X15592Y06296D1*G1X15592Y06296D2*G1X15592Y06290D2*G1X15592Y06303D1*G1X15592Y06303D2*G1X15542Y06333D2*G1X15532Y06340D1*G1X15532Y06353D1*G1X15542Y06360D1*G1X15552Y06360D1*G1X15592Y06333D1*G1X15592Y06360D1*G1X15592Y06360D2*G1X15317Y06245D2*G1X15257Y06245D1*G1X15257Y06265D1*G1X15267Y06272D1*G1X15277Y06272D1*G1X15287Y06265D1*G1X15287Y06245D1*G1X15317Y06272D1*G1X15317Y06272D2*G1X15257Y06302D2*G1X15257Y06315D1*G1X15267Y06322D1*G1X15277Y06322D1*G1X15287Y06315D1*G1X15297Y06322D1*G1X15307Y06322D1*G1X15317Y06315D1*G1X15317Y06302D1*G1X15307Y06295D1*G1X15297Y06295D1*G1X15287Y06302D1*G1X15277Y06295D1*G1X15267Y06295D1*G1X15257Y06302D1*G1X15257Y06302D2*G1X15287Y06302D2*G1X15287Y06315D1*G1X15287Y06315D2*G1X15042Y06213D2*G1X14982Y06213D1*G1X14982Y06233D1*G1X14992Y06240D1*G1X15002Y06240D1*G1X15012Y06233D1*G1X15012Y06213D1*G1X15042Y06240D1*G1X15042Y06240D2*G1X14992Y06270D2*G1X14982Y06276D1*G1X15042Y06276D1*G1X15042Y06276D2*G1X15042Y06270D2*G1X15042Y06283D1*G1X15042Y06283D2*G1X14992Y06313D2*G1X14982Y06320D1*G1X14982Y06333D1*G1X14992Y06340D1*G1X15002Y06340D1*G1X15012Y06333D1*G1X15012Y06333D2*G1X15012Y06320D2*G1X15012Y06333D1*G1X15022Y06340D1*G1X15032Y06340D1*G1X15042Y06333D1*G1X15042Y06320D1*G1X15032Y06313D1*G1X15032Y06313D2*G1X14752Y06237D2*G1X14692Y06237D1*G1X14692Y06257D1*G1X14702Y06264D1*G1X14712Y06264D1*G1X14722Y06257D1*G1X14722Y06237D1*G1X14752Y06264D1*G1X14752Y06264D2*G1X14712Y06314D2*G1X14722Y06307D1*G1X14722Y06294D1*G1X14712Y06287D1*G1X14702Y06287D1*G1X14692Y06294D1*G1X14692Y06307D1*G1X14702Y06314D1*G1X14742Y06314D1*G1X14752Y06307D1*G1X14752Y06294D1*G1X14742Y06287D1*G1X14742Y06287D2*G1X14457Y06221D2*G1X14397Y06221D1*G1X14397Y06241D1*G1X14407Y06248D1*G1X14417Y06248D1*G1X14427Y06241D1*G1X14427Y06221D1*G1X14457Y06248D1*G1X14457Y06248D2*G1X14407Y06278D2*G1X14397Y06284D1*G1X14457Y06284D1*G1X14457Y06284D2*G1X14457Y06278D2*G1X14457Y06291D1*G1X14457Y06291D2*G1X14407Y06328D2*G1X14397Y06334D1*G1X14457Y06334D1*G1X14457Y06334D2*G1X14457Y06328D2*G1X14457Y06341D1*G1X14457Y06341D2*G1X14172Y06257D2*G1X14112Y06257D1*G1X14112Y06277D1*G1X14122Y06283D1*G1X14132Y06283D1*G1X14142Y06277D1*G1X14142Y06257D1*G1X14172Y06283D1*G1X14172Y06283D2*G1X14122Y06307D2*G1X14112Y06307D1*G1X14112Y06333D1*G1X14172Y06313D1*G1X14172Y06313D2*G1X15292Y06823D2*G1X15342Y06823D1*G1X15352Y06829D1*G1X15352Y06843D1*G1X15342Y06849D1*G1X15292Y06849D1*G1X15292Y06849D2*G1X15302Y06873D2*G1X15292Y06879D1*G1X15292Y06893D1*G1X15302Y06899D1*G1X15312Y06899D1*G1X15322Y06893D1*G1X15322Y06893D2*G1X15322Y06879D2*G1X15322Y06893D1*G1X15332Y06899D1*G1X15342Y06899D1*G1X15352Y06893D1*G1X15352Y06879D1*G1X15342Y06873D1*G1X15342Y06873D2*G1X14688Y06853D2*G1X14678Y06847D1*G1X14678Y06833D1*G1X14688Y06827D1*G1X14728Y06827D1*G1X14738Y06833D1*G1X14738Y06847D1*G1X14728Y06853D1*G1X14728Y06853D2*G1X14688Y06877D2*G1X14678Y06877D1*G1X14678Y06903D1*G1X14738Y06883D1*G1X14738Y06883D2*G1X14453Y05402D2*G1X14446Y05412D1*G1X14433Y05412D1*G1X14426Y05402D1*G1X14426Y05362D1*G1X14433Y05352D1*G1X14446Y05352D1*G1X14453Y05362D1*G1X14453Y05362D2*G1X14476Y05402D2*G1X14483Y05412D1*G1X14496Y05412D1*G1X14503Y05402D1*G1X14503Y05392D1*G1X14496Y05382D1*G1X14496Y05382D2*G1X14483Y05382D2*G1X14496Y05382D1*G1X14503Y05372D1*G1X14503Y05362D1*G1X14496Y05352D1*G1X14483Y05352D1*G1X14476Y05362D1*G1X14476Y05362D2*G1X14526Y05402D2*G1X14533Y05412D1*G1X14546Y05412D1*G1X14553Y05402D1*G1X14553Y05392D1*G1X14526Y05352D1*G1X14553Y05352D1*G1X14553Y05352D2*G1X14804Y05179D2*G1X14744Y05179D1*G1X14744Y05199D1*G1X14754Y05206D1*G1X14764Y05206D1*G1X14774Y05199D1*G1X14774Y05179D1*G1X14804Y05206D1*G1X14804Y05206D2*G1X14744Y05256D2*G1X14744Y05229D1*G1X14764Y05229D1*G1X14764Y05249D1*G1X14774Y05256D1*G1X14794Y05256D1*G1X14804Y05249D1*G1X14804Y05236D1*G1X14794Y05229D1*G1X14794Y05229D2*G1X14754Y05279D2*G1X14744Y05286D1*G1X14744Y05299D1*G1X14754Y05306D1*G1X14764Y05306D1*G1X14804Y05279D1*G1X14804Y05306D1*G1X14804Y05306D2*G1X15010Y05299D2*G1X15000Y05293D1*G1X15000Y05279D1*G1X15010Y05273D1*G1X15050Y05273D1*G1X15060Y05279D1*G1X15060Y05293D1*G1X15050Y05299D1*G1X15050Y05299D2*G1X15010Y05323D2*G1X15000Y05329D1*G1X15000Y05343D1*G1X15010Y05349D1*G1X15020Y05349D1*G1X15030Y05343D1*G1X15030Y05343D2*G1X15030Y05329D2*G1X15030Y05343D1*G1X15040Y05349D1*G1X15050Y05349D1*G1X15060Y05343D1*G1X15060Y05329D1*G1X15050Y05323D1*G1X15050Y05323D2*G1X15010Y05373D2*G1X15000Y05373D1*G1X15000Y05399D1*G1X15060Y05379D1*G1X15060Y05379D2*G1X15226Y05421D2*G1X15226Y05481D1*G1X15246Y05481D1*G1X15252Y05471D1*G1X15252Y05461D1*G1X15246Y05451D1*G1X15226Y05451D1*G1X15252Y05421D1*G1X15252Y05421D2*G1X15302Y05481D2*G1X15276Y05481D1*G1X15276Y05461D1*G1X15296Y05461D1*G1X15302Y05451D1*G1X15302Y05431D1*G1X15296Y05421D1*G1X15282Y05421D1*G1X15276Y05431D1*G1X15276Y05431D2*G1X15339Y05481D2*G1X15326Y05441D1*G1X15352Y05441D1*G1X15352Y05441D2*G1X15339Y05451D2*G1X15339Y05421D1*G1X15339Y05421D2*G1X15284Y05148D2*G1X15284Y05208D1*G1X15304Y05208D1*G1X15311Y05198D1*G1X15311Y05188D1*G1X15304Y05178D1*G1X15284Y05178D1*G1X15311Y05148D1*G1X15311Y05148D2*G1X15361Y05208D2*G1X15334Y05208D1*G1X15334Y05188D1*G1X15354Y05188D1*G1X15361Y05178D1*G1X15361Y05158D1*G1X15354Y05148D1*G1X15341Y05148D1*G1X15334Y05158D1*G1X15334Y05158D2*G1X15391Y05208D2*G1X15404Y05208D1*G1X15411Y05198D1*G1X15411Y05158D1*G1X15404Y05148D1*G1X15391Y05148D1*G1X15384Y05158D1*G1X15384Y05198D1*G1X15391Y05208D1*G1X15391Y05208D2*G1X15411Y05208D2*G1X15384Y05148D1*G1X15384Y05148D2*G1X15286Y05014D2*G1X15286Y05074D1*G1X15306Y05074D1*G1X15313Y05064D1*G1X15313Y05054D1*G1X15306Y05044D1*G1X15286Y05044D1*G1X15313Y05014D1*G1X15313Y05014D2*G1X15349Y05074D2*G1X15336Y05034D1*G1X15363Y05034D1*G1X15363Y05034D2*G1X15349Y05044D2*G1X15349Y05014D1*G1X15349Y05014D2*G1X15413Y05054D2*G1X15406Y05044D1*G1X15393Y05044D1*G1X15386Y05054D1*G1X15386Y05064D1*G1X15393Y05074D1*G1X15406Y05074D1*G1X15413Y05064D1*G1X15413Y05024D1*G1X15406Y05014D1*G1X15393Y05014D1*G1X15386Y05024D1*G1X15386Y05024D2*G1X15288Y04890D2*G1X15288Y04950D1*G1X15308Y04950D1*G1X15315Y04940D1*G1X15315Y04930D1*G1X15308Y04920D1*G1X15288Y04920D1*G1X15315Y04890D1*G1X15315Y04890D2*G1X15365Y04950D2*G1X15338Y04950D1*G1X15338Y04930D1*G1X15358Y04930D1*G1X15365Y04920D1*G1X15365Y04900D1*G1X15358Y04890D1*G1X15345Y04890D1*G1X15338Y04900D1*G1X15338Y04900D2*G1X15395Y04940D2*G1X15401Y04950D1*G1X15401Y04890D1*G1X15401Y04890D2*G1X15395Y04890D2*G1X15408Y04890D1*G1X15408Y04890D2*G1X14382Y04880D2*G1X14382Y04940D1*G1X14402Y04940D1*G1X14409Y04930D1*G1X14409Y04920D1*G1X14402Y04910D1*G1X14382Y04910D1*G1X14409Y04880D1*G1X14409Y04880D2*G1X14459Y04940D2*G1X14432Y04940D1*G1X14432Y04920D1*G1X14452Y04920D1*G1X14459Y04910D1*G1X14459Y04890D1*G1X14452Y04880D1*G1X14439Y04880D1*G1X14432Y04890D1*G1X14432Y04890D2*G1X14482Y04930D2*G1X14489Y04940D1*G1X14502Y04940D1*G1X14509Y04930D1*G1X14509Y04920D1*G1X14502Y04910D1*G1X14502Y04910D2*G1X14489Y04910D2*G1X14502Y04910D1*G1X14509Y04900D1*G1X14509Y04890D1*G1X14502Y04880D1*G1X14489Y04880D1*G1X14482Y04890D1*G1X14482Y04890D2*G1X14742Y04802D2*G1X14742Y04752D1*G1X14749Y04742D1*G1X14762Y04742D1*G1X14769Y04752D1*G1X14769Y04802D1*G1X14769Y04802D2*G1X14799Y04792D2*G1X14805Y04802D1*G1X14805Y04742D1*G1X14805Y04742D2*G1X14799Y04742D2*G1X14812Y04742D1*G1X14812Y04742D2*G1X14842Y04792D2*G1X14842Y04802D1*G1X14869Y04802D1*G1X14849Y04742D1*G1X14849Y04742D2*G1X16267Y04568D2*G1X16260Y04578D1*G1X16247Y04578D1*G1X16240Y04568D1*G1X16240Y04528D1*G1X16247Y04518D1*G1X16260Y04518D1*G1X16267Y04528D1*G1X16267Y04528D2*G1X16290Y04568D2*G1X16297Y04578D1*G1X16310Y04578D1*G1X16317Y04568D1*G1X16317Y04558D1*G1X16310Y04548D1*G1X16310Y04548D2*G1X16297Y04548D2*G1X16310Y04548D1*G1X16317Y04538D1*G1X16317Y04528D1*G1X16310Y04518D1*G1X16297Y04518D1*G1X16290Y04528D1*G1X16290Y04528D2*G1X16347Y04578D2*G1X16360Y04578D1*G1X16367Y04568D1*G1X16367Y04528D1*G1X16360Y04518D1*G1X16347Y04518D1*G1X16340Y04528D1*G1X16340Y04568D1*G1X16347Y04578D1*G1X16347Y04578D2*G1X16367Y04578D2*G1X16340Y04518D1*G1X16340Y04518D2*G1X16733Y05054D2*G1X16726Y05064D1*G1X16713Y05064D1*G1X16706Y05054D1*G1X16706Y05014D1*G1X16713Y05004D1*G1X16726Y05004D1*G1X16733Y05014D1*G1X16733Y05014D2*G1X16756Y05054D2*G1X16763Y05064D1*G1X16776Y05064D1*G1X16783Y05054D1*G1X16783Y05044D1*G1X16776Y05034D1*G1X16776Y05034D2*G1X16763Y05034D2*G1X16776Y05034D1*G1X16783Y05024D1*G1X16783Y05014D1*G1X16776Y05004D1*G1X16763Y05004D1*G1X16756Y05014D1*G1X16756Y05014D2*G1X16806Y05054D2*G1X16813Y05064D1*G1X16826Y05064D1*G1X16833Y05054D1*G1X16833Y05044D1*G1X16826Y05034D1*G1X16826Y05034D2*G1X16813Y05034D2*G1X16826Y05034D1*G1X16833Y05024D1*G1X16833Y05014D1*G1X16826Y05004D1*G1X16813Y05004D1*G1X16806Y05014D1*G1X16806Y05014D2*G1X15321Y09724D2*G1X15311Y09717D1*G1X15311Y09704D1*G1X15321Y09697D1*G1X15361Y09697D1*G1X15371Y09704D1*G1X15371Y09717D1*G1X15361Y09724D1*G1X15361Y09724D2*G1X15311Y09760D2*G1X15351Y09747D1*G1X15351Y09774D1*G1X15351Y09774D2*G1X15341Y09760D2*G1X15371Y09760D1*G1X15371Y09760D2*G1X15321Y09797D2*G1X15311Y09804D1*G1X15311Y09817D1*G1X15321Y09824D1*G1X15331Y09824D1*G1X15341Y09817D1*G1X15341Y09817D2*G1X15341Y09804D2*G1X15341Y09817D1*G1X15351Y09824D1*G1X15361Y09824D1*G1X15371Y09817D1*G1X15371Y09804D1*G1X15361Y09797D1*G1X15361Y09797D2*G1X14474Y08124D2*G1X14464Y08117D1*G1X14464Y08104D1*G1X14474Y08097D1*G1X14514Y08097D1*G1X14524Y08104D1*G1X14524Y08117D1*G1X14514Y08124D1*G1X14514Y08124D2*G1X14474Y08147D2*G1X14464Y08154D1*G1X14464Y08167D1*G1X14474Y08174D1*G1X14484Y08174D1*G1X14524Y08147D1*G1X14524Y08174D1*G1X14524Y08174D2*G1X14474Y08224D2*G1X14464Y08217D1*G1X14464Y08204D1*G1X14474Y08197D1*G1X14514Y08197D1*G1X14524Y08204D1*G1X14524Y08217D1*G1X14514Y08224D1*G1X14504Y08224D1*G1X14494Y08217D1*G1X14494Y08204D1*G1X14504Y08197D1*G1X14504Y08197D2*G1X13135Y04650D2*G1X13128Y04660D1*G1X13115Y04660D1*G1X13108Y04650D1*G1X13108Y04610D1*G1X13115Y04600D1*G1X13128Y04600D1*G1X13135Y04610D1*G1X13135Y04610D2*G1X13158Y04650D2*G1X13165Y04660D1*G1X13178Y04660D1*G1X13185Y04650D1*G1X13185Y04640D1*G1X13178Y04630D1*G1X13178Y04630D2*G1X13165Y04630D2*G1X13178Y04630D1*G1X13185Y04620D1*G1X13185Y04610D1*G1X13178Y04600D1*G1X13165Y04600D1*G1X13158Y04610D1*G1X13158Y04610D2*G1X13215Y04650D2*G1X13221Y04660D1*G1X13221Y04600D1*G1X13221Y04600D2*G1X13215Y04600D2*G1X13228Y04600D1*G1X13228Y04600D2*G1X12971Y05284D2*G1X12964Y05294D1*G1X12951Y05294D1*G1X12944Y05284D1*G1X12944Y05244D1*G1X12951Y05234D1*G1X12964Y05234D1*G1X12971Y05244D1*G1X12971Y05244D2*G1X12994Y05284D2*G1X13001Y05294D1*G1X13014Y05294D1*G1X13021Y05284D1*G1X13021Y05274D1*G1X13014Y05264D1*G1X13014Y05264D2*G1X13001Y05264D2*G1X13014Y05264D1*G1X13021Y05254D1*G1X13021Y05244D1*G1X13014Y05234D1*G1X13001Y05234D1*G1X12994Y05244D1*G1X12994Y05244D2*G1X13071Y05284D2*G1X13064Y05294D1*G1X13051Y05294D1*G1X13044Y05284D1*G1X13044Y05244D1*G1X13051Y05234D1*G1X13064Y05234D1*G1X13071Y05244D1*G1X13071Y05254D1*G1X13064Y05264D1*G1X13051Y05264D1*G1X13044Y05254D1*G1X13044Y05254D2*G1X11505Y05015D2*G1X11555Y05015D1*G1X11565Y05009D1*G1X11565Y04995D1*G1X11555Y04989D1*G1X11555Y04989D2*G1X11515Y05045D2*G1X11505Y05052D1*G1X11565Y05052D1*G1X11565Y05052D2*G1X11565Y05045D2*G1X11565Y05059D1*G1X11565Y05059D2*G1X11515Y05095D2*G1X11505Y05102D1*G1X11565Y05102D1*G1X11565Y05102D2*G1X11565Y05095D2*G1X11565Y05109D1*G1X11565Y05109D2*G1X10941Y04990D2*G1X10934Y05000D1*G1X10921Y05000D1*G1X10914Y04990D1*G1X10914Y04950D1*G1X10921Y04940D1*G1X10934Y04940D1*G1X10941Y04950D1*G1X10941Y04950D2*G1X10964Y04990D2*G1X10971Y05000D1*G1X10984Y05000D1*G1X10991Y04990D1*G1X10991Y04980D1*G1X10964Y04940D1*G1X10991Y04940D1*G1X10991Y04940D2*G1X11014Y04990D2*G1X11014Y05000D1*G1X11041Y05000D1*G1X11021Y04940D1*G1X11021Y04940D2*G1X11461Y05222D2*G1X11451Y05215D1*G1X11451Y05202D1*G1X11461Y05195D1*G1X11501Y05195D1*G1X11511Y05202D1*G1X11511Y05215D1*G1X11501Y05222D1*G1X11501Y05222D2*G1X11461Y05252D2*G1X11451Y05258D1*G1X11511Y05258D1*G1X11511Y05258D2*G1X11511Y05252D2*G1X11511Y05265D1*G1X11511Y05265D2*G1X11451Y05302D2*G1X11451Y05315D1*G1X11461Y05322D1*G1X11471Y05322D1*G1X11481Y05315D1*G1X11491Y05322D1*G1X11501Y05322D1*G1X11511Y05315D1*G1X11511Y05302D1*G1X11501Y05295D1*G1X11491Y05295D1*G1X11481Y05302D1*G1X11471Y05295D1*G1X11461Y05295D1*G1X11451Y05302D1*G1X11451Y05302D2*G1X11481Y05302D2*G1X11481Y05315D1*G1X11481Y05315D2*G1X08950Y05296D2*G1X08936Y05296D1*G1X08936Y05296D2*G1X08963Y05326D2*G1X08936Y05326D1*G1X08936Y05266D1*G1X08936Y05266D2*G1X08993Y05316D2*G1X09000Y05326D1*G1X09000Y05266D1*G1X09000Y05266D2*G1X08993Y05266D2*G1X09006Y05266D1*G1X09006Y05266D2*G1X07984Y05872D2*G1X07984Y05822D1*G1X07991Y05812D1*G1X08004Y05812D1*G1X08011Y05822D1*G1X08011Y05872D1*G1X08011Y05872D2*G1X08041Y05862D2*G1X08048Y05872D1*G1X08048Y05812D1*G1X08048Y05812D2*G1X08041Y05812D2*G1X08054Y05812D1*G1X08054Y05812D2*G1X07917Y06246D2*G1X07910Y06256D1*G1X07897Y06256D1*G1X07890Y06246D1*G1X07890Y06206D1*G1X07897Y06196D1*G1X07910Y06196D1*G1X07917Y06206D1*G1X07917Y06206D2*G1X07940Y06246D2*G1X07947Y06256D1*G1X07960Y06256D1*G1X07967Y06246D1*G1X07967Y06236D1*G1X07940Y06196D1*G1X07967Y06196D1*G1X07967Y06196D2*G1X08101Y06244D2*G1X08094Y06254D1*G1X08081Y06254D1*G1X08074Y06244D1*G1X08074Y06204D1*G1X08081Y06194D1*G1X08094Y06194D1*G1X08101Y06204D1*G1X08101Y06204D2*G1X08131Y06244D2*G1X08137Y06254D1*G1X08137Y06194D1*G1X08137Y06194D2*G1X08131Y06194D2*G1X08144Y06194D1*G1X08144Y06194D2*G1X07677Y06616D2*G1X07670Y06626D1*G1X07657Y06626D1*G1X07650Y06616D1*G1X07650Y06576D1*G1X07657Y06566D1*G1X07670Y06566D1*G1X07677Y06576D1*G1X07677Y06576D2*G1X07713Y06626D2*G1X07700Y06586D1*G1X07727Y06586D1*G1X07727Y06586D2*G1X07713Y06596D2*G1X07713Y06566D1*G1X07713Y06566D2*G1X08355Y06604D2*G1X08348Y06614D1*G1X08335Y06614D1*G1X08328Y06604D1*G1X08328Y06564D1*G1X08335Y06554D1*G1X08348Y06554D1*G1X08355Y06564D1*G1X08355Y06564D2*G1X08378Y06604D2*G1X08385Y06614D1*G1X08398Y06614D1*G1X08405Y06604D1*G1X08405Y06594D1*G1X08398Y06584D1*G1X08398Y06584D2*G1X08385Y06584D2*G1X08398Y06584D1*G1X08405Y06574D1*G1X08405Y06564D1*G1X08398Y06554D1*G1X08385Y06554D1*G1X08378Y06564D1*G1X08378Y06564D2*G1X04509Y08890D2*G1X04502Y08900D1*G1X04489Y08900D1*G1X04482Y08890D1*G1X04482Y08850D1*G1X04489Y08840D1*G1X04502Y08840D1*G1X04509Y08850D1*G1X04509Y08850D2*G1X04532Y08890D2*G1X04539Y08900D1*G1X04552Y08900D1*G1X04559Y08890D1*G1X04559Y08880D1*G1X04552Y08870D1*G1X04552Y08870D2*G1X04539Y08870D2*G1X04552Y08870D1*G1X04559Y08860D1*G1X04559Y08850D1*G1X04552Y08840D1*G1X04539Y08840D1*G1X04532Y08850D1*G1X04532Y08850D2*G1X04589Y08900D2*G1X04602Y08900D1*G1X04609Y08890D1*G1X04609Y08880D1*G1X04602Y08870D1*G1X04609Y08860D1*G1X04609Y08850D1*G1X04602Y08840D1*G1X04589Y08840D1*G1X04582Y08850D1*G1X04582Y08860D1*G1X04589Y08870D1*G1X04582Y08880D1*G1X04582Y08890D1*G1X04589Y08900D1*G1X04589Y08900D2*G1X04589Y08870D2*G1X04602Y08870D1*G1X04602Y08870D2*G1X05739Y08902D2*G1X05732Y08912D1*G1X05719Y08912D1*G1X05712Y08902D1*G1X05712Y08862D1*G1X05719Y08852D1*G1X05732Y08852D1*G1X05739Y08862D1*G1X05739Y08862D2*G1X05762Y08902D2*G1X05769Y08912D1*G1X05782Y08912D1*G1X05789Y08902D1*G1X05789Y08892D1*G1X05782Y08882D1*G1X05782Y08882D2*G1X05769Y08882D2*G1X05782Y08882D1*G1X05789Y08872D1*G1X05789Y08862D1*G1X05782Y08852D1*G1X05769Y08852D1*G1X05762Y08862D1*G1X05762Y08862D2*G1X05839Y08892D2*G1X05832Y08882D1*G1X05819Y08882D1*G1X05812Y08892D1*G1X05812Y08902D1*G1X05819Y08912D1*G1X05832Y08912D1*G1X05839Y08902D1*G1X05839Y08862D1*G1X05832Y08852D1*G1X05819Y08852D1*G1X05812Y08862D1*G1X05812Y08862D2*G1X05109Y09200D2*G1X05122Y09200D1*G1X05129Y09190D1*G1X05129Y09150D1*G1X05122Y09140D1*G1X05109Y09140D1*G1X05102Y09150D1*G1X05102Y09190D1*G1X05109Y09200D1*G1X05109Y09200D2*G1X05122Y09150D2*G1X05129Y09140D1*G1X05129Y09140D2*G1X05152Y09190D2*G1X05159Y09200D1*G1X05172Y09200D1*G1X05179Y09190D1*G1X05179Y09180D1*G1X05172Y09170D1*G1X05172Y09170D2*G1X05159Y09170D2*G1X05172Y09170D1*G1X05179Y09160D1*G1X05179Y09150D1*G1X05172Y09140D1*G1X05159Y09140D1*G1X05152Y09150D1*G1X05152Y09150D2*G1X06197Y09254D2*G1X06197Y09241D1*G1X06197Y09241D2*G1X06167Y09268D2*G1X06167Y09241D1*G1X06227Y09241D1*G1X06227Y09241D2*G1X06177Y09291D2*G1X06167Y09298D1*G1X06167Y09311D1*G1X06177Y09318D1*G1X06187Y09318D1*G1X06197Y09311D1*G1X06197Y09311D2*G1X06197Y09298D2*G1X06197Y09311D1*G1X06207Y09318D1*G1X06217Y09318D1*G1X06227Y09311D1*G1X06227Y09298D1*G1X06217Y09291D1*G1X06217Y09291D2*G1X04142Y08752D2*G1X04142Y08812D1*G1X04162Y08812D1*G1X04169Y08802D1*G1X04169Y08792D1*G1X04162Y08782D1*G1X04142Y08782D1*G1X04169Y08752D1*G1X04169Y08752D2*G1X04219Y08812D2*G1X04192Y08812D1*G1X04192Y08792D1*G1X04212Y08792D1*G1X04219Y08782D1*G1X04219Y08762D1*G1X04212Y08752D1*G1X04199Y08752D1*G1X04192Y08762D1*G1X04192Y08762D2*G1X04269Y08792D2*G1X04262Y08782D1*G1X04249Y08782D1*G1X04242Y08792D1*G1X04242Y08802D1*G1X04249Y08812D1*G1X04262Y08812D1*G1X04269Y08802D1*G1X04269Y08762D1*G1X04262Y08752D1*G1X04249Y08752D1*G1X04242Y08762D1*G1X04242Y08762D2*G1X04201Y09184D2*G1X04214Y09184D1*G1X04221Y09174D1*G1X04221Y09134D1*G1X04214Y09124D1*G1X04201Y09124D1*G1X04194Y09134D1*G1X04194Y09174D1*G1X04201Y09184D1*G1X04201Y09184D2*G1X04214Y09134D2*G1X04221Y09124D1*G1X04221Y09124D2*G1X04244Y09174D2*G1X04251Y09184D1*G1X04264Y09184D1*G1X04271Y09174D1*G1X04271Y09164D1*G1X04244Y09124D1*G1X04271Y09124D1*G1X04271Y09124D2*G1X05314Y11056D2*G1X05334Y11056D1*G1X05341Y11046D1*G1X05341Y11006D1*G1X05334Y10996D1*G1X05314Y10996D1*G1X05314Y11056D1*G1X05314Y11056D2*G1X05371Y11046D2*G1X05378Y11056D1*G1X05378Y10996D1*G1X05378Y10996D2*G1X05371Y10996D2*G1X05384Y10996D1*G1X05384Y10996D2*G1X13739Y07612D2*G1X13726Y07612D1*G1X13726Y07612D2*G1X13753Y07642D2*G1X13726Y07642D1*G1X13726Y07582D1*G1X13726Y07582D2*G1X13776Y07632D2*G1X13783Y07642D1*G1X13796Y07642D1*G1X13803Y07632D1*G1X13803Y07622D1*G1X13776Y07582D1*G1X13803Y07582D1*G1X13803Y07582D2*G1X14567Y07418D2*G1X14560Y07428D1*G1X14547Y07428D1*G1X14540Y07418D1*G1X14540Y07378D1*G1X14547Y07368D1*G1X14560Y07368D1*G1X14567Y07378D1*G1X14567Y07378D2*G1X14597Y07428D2*G1X14610Y07428D1*G1X14617Y07418D1*G1X14617Y07408D1*G1X14610Y07398D1*G1X14617Y07388D1*G1X14617Y07378D1*G1X14610Y07368D1*G1X14597Y07368D1*G1X14590Y07378D1*G1X14590Y07388D1*G1X14597Y07398D1*G1X14590Y07408D1*G1X14590Y07418D1*G1X14597Y07428D1*G1X14597Y07428D2*G1X14597Y07398D2*G1X14610Y07398D1*G1X14610Y07398D2*G1X14384Y09815D2*G1X14324Y09815D1*G1X14324Y09835D1*G1X14334Y09842D1*G1X14344Y09842D1*G1X14354Y09835D1*G1X14354Y09815D1*G1X14384Y09842D1*G1X14384Y09842D2*G1X14324Y09878D2*G1X14364Y09865D1*G1X14364Y09892D1*G1X14364Y09892D2*G1X14354Y09878D2*G1X14384Y09878D1*G1X14384Y09878D2*G1X14324Y09928D2*G1X14364Y09915D1*G1X14364Y09942D1*G1X14364Y09942D2*G1X14354Y09928D2*G1X14384Y09928D1*G1X14384Y09928D2*G1X14064Y09825D2*G1X14004Y09825D1*G1X14004Y09845D1*G1X14014Y09852D1*G1X14024Y09852D1*G1X14034Y09845D1*G1X14034Y09825D1*G1X14064Y09852D1*G1X14064Y09852D2*G1X14381Y06438D2*G1X14181Y06438D1*G1X14181Y06438D1*G1X14181Y06146D1*G1X14381Y06146D1*G1X14381Y06438D1*G1X14381Y06438D2*G1X15760Y09836D2*G1X15760Y09809D1*G1X15780Y09809D1*G1X15780Y09829D1*G1X15790Y09836D1*G1X15810Y09836D1*G1X15820Y09829D1*G1X15820Y09816D1*G1X15810Y09809D1*G1X15810Y09809D2*G1X15750Y10302D2*G1X15740Y10295D1*G1X15740Y10282D1*G1X15750Y10275D1*G1X15790Y10275D1*G1X15800Y10282D1*G1X15800Y10295D1*G1X15790Y10302D1*G1X15790Y10302D2*G1X15740Y10338D2*G1X15780Y10325D1*G1X15780Y10352D1*G1X15780Y10352D2*G1X15770Y10338D2*G1X15800Y10338D1*G1X15800Y10338D2*G1X15750Y10375D2*G1X15740Y10382D1*G1X15740Y10395D1*G1X15750Y10402D1*G1X15760Y10402D1*G1X15800Y10375D1*G1X15800Y10402D1*G1X15800Y10402D2*G1X15704Y10243D2*G1X15644Y10243D1*G1X15644Y10263D1*G1X15654Y10270D1*G1X15664Y10270D1*G1X15674Y10263D1*G1X15674Y10243D1*G1X15704Y10270D1*G1X15704Y10270D2*G1X15654Y10320D2*G1X15644Y10313D1*G1X15644Y10300D1*G1X15654Y10293D1*G1X15694Y10293D1*G1X15704Y10300D1*G1X15704Y10313D1*G1X15694Y10320D1*G1X15684Y10320D1*G1X15674Y10313D1*G1X15674Y10300D1*G1X15684Y10293D1*G1X15684Y10293D2*G1X15664Y10370D2*G1X15674Y10363D1*G1X15674Y10350D1*G1X15664Y10343D1*G1X15654Y10343D1*G1X15644Y10350D1*G1X15644Y10363D1*G1X15654Y10370D1*G1X15694Y10370D1*G1X15704Y10363D1*G1X15704Y10350D1*G1X15694Y10343D1*G1X15694Y10343D2*G1X14631Y04834D2*G1X14631Y05103D1*G1X14631Y05103D1*G1X15021Y05103D1*G1X15021Y05103D2*G1X15020Y05103D2*G1X15020Y04834D1*G1X14631Y04834D1*G1X14631Y04834D2*G1X15520Y10287D2*G1X15460Y10287D1*G1X15460Y10307D1*G1X15470Y10314D1*G1X15480Y10314D1*G1X15490Y10307D1*G1X15490Y10287D1*G1X15520Y10314D1*G1X15520Y10314D2*G1X15470Y10364D2*G1X15460Y10357D1*G1X15460Y10344D1*G1X15470Y10337D1*G1X15510Y10337D1*G1X15520Y10344D1*G1X15520Y10357D1*G1X15510Y10364D1*G1X15500Y10364D1*G1X15490Y10357D1*G1X15490Y10344D1*G1X15500Y10337D1*G1X15500Y10337D2*G1X15470Y10387D2*G1X15460Y10387D1*G1X15460Y10414D1*G1X15520Y10394D1*G1X15520Y10394D2*G1X12268Y04972D2*G1X12258Y04965D1*G1X12258Y04952D1*G1X12268Y04945D1*G1X12308Y04945D1*G1X12318Y04952D1*G1X12318Y04965D1*G1X12308Y04972D1*G1X12308Y04972D2*G1X12258Y05008D2*G1X12298Y04995D1*G1X12298Y05022D1*G1X12298Y05022D2*G1X12288Y05008D2*G1X12318Y05008D1*G1X12318Y05008D2*G1X12258Y05052D2*G1X12258Y05065D1*G1X12268Y05072D1*G1X12278Y05072D1*G1X12288Y05065D1*G1X12298Y05072D1*G1X12308Y05072D1*G1X12318Y05065D1*G1X12318Y05052D1*G1X12308Y05045D1*G1X12298Y05045D1*G1X12288Y05052D1*G1X12278Y05045D1*G1X12268Y05045D1*G1X12258Y05052D1*G1X12258Y05052D2*G1X12288Y05052D2*G1X12288Y05065D1*G1X12288Y05065D2*G1X09628Y05166D2*G1X09628Y05100D1*G1X09618Y05086D1*G1X09598Y05086D1*G1X09588Y05100D1*G1X09588Y05100D2*G1X17397Y11005D2*G1X17397Y11685D1*G1X17476Y11686D1*G1X17552Y11685D1*G1X17552Y11885D1*G1X16531Y11886D1*G1X16531Y11686D1*G1X16685Y11686D1*G1X16687Y11395D1*G1X16685Y11006D1*G1X17397Y11005D1*G1X17397Y11005D2*G1X04349Y04447D2*G1X04342Y04457D1*G1X04329Y04457D1*G1X04322Y04447D1*G1X04322Y04407D1*G1X04329Y04397D1*G1X04342Y04397D1*G1X04349Y04407D1*G1X04349Y04417D1*G1X04342Y04427D1*G1X04329Y04427D1*G1X04322Y04417D1*G1X04322Y04417D2*G1X04279Y04397D2*G1X04292Y04397D1*G1X04292Y04397D2*G1X04279Y04447D2*G1X04286Y04457D1*G1X04286Y04397D1*G1X04286Y04397D2*G1X04249Y04457D2*G1X04222Y04397D1*G1X04222Y04397D2*G1X04229Y04457D2*G1X04242Y04457D1*G1X04249Y04447D1*G1X04249Y04407D1*G1X04242Y04397D1*G1X04229Y04397D1*G1X04222Y04407D1*G1X04222Y04447D1*G1X04229Y04457D1*G1X04229Y04457D2*G1X04172Y04447D2*G1X04179Y04457D1*G1X04192Y04457D1*G1X04199Y04447D1*G1X04199Y04437D1*G1X04172Y04397D1*G1X04199Y04397D1*G1X04199Y04397D2*G1X04122Y04427D2*G1X04149Y04427D1*G1X04149Y04427D2*G1X04072Y04457D2*G1X04072Y04397D1*G1X04099Y04397D1*G1X04099Y04397D2*G1X04036Y04457D2*G1X04036Y04397D1*G1X04036Y04397D2*G1X03972Y04397D2*G1X03972Y04457D1*G1X03992Y04457D1*G1X03999Y04447D1*G1X03999Y04437D1*G1X03992Y04427D1*G1X03972Y04427D1*G1X03999Y04397D1*G1X03999Y04397D2*G1X03922Y04397D2*G1X03922Y04457D1*G1X03942Y04457D1*G1X03949Y04447D1*G1X03949Y04437D1*G1X03942Y04427D1*G1X03922Y04427D1*G1X03922Y04427D2*G1X03899Y04427D2*G1X03872Y04427D1*G1X03872Y04427D2*G1X03872Y04397D2*G1X03872Y04447D1*G1X03879Y04457D1*G1X03892Y04457D1*G1X03899Y04447D1*G1X03899Y04397D1*G1X03899Y04397D2*G1X03822Y04427D2*G1X03849Y04427D1*G1X03849Y04427D2*G1X03779Y04397D2*G1X03792Y04397D1*G1X03792Y04397D2*G1X03779Y04447D2*G1X03786Y04457D1*G1X03786Y04397D1*G1X03786Y04397D2*G1X03736Y04407D2*G1X03736Y04417D1*G1X03736Y04417D2*G1X03686Y04427D2*G1X03686Y04397D1*G1X03686Y04397D2*G1X03686Y04457D2*G1X03672Y04417D1*G1X03699Y04417D1*G1X03699Y04417D2*G1X03586Y04407D2*G1X03586Y04417D1*G1X03586Y04417D2*G1X03522Y04457D2*G1X03536Y04397D1*G1X03549Y04457D1*G1X03549Y04457D2*G1X03499Y04457D2*G1X03472Y04457D1*G1X03472Y04397D1*G1X03499Y04397D1*G1X03499Y04397D2*G1X03486Y04427D2*G1X03472Y04427D1*G1X03472Y04427D2*G1X03422Y04397D2*G1X03422Y04457D1*G1X03442Y04457D1*G1X03449Y04447D1*G1X03449Y04437D1*G1X03442Y04427D1*G1X03422Y04427D1*G1X03449Y04397D1*G1X03449Y04397D2*G1X03372Y04427D2*G1X03399Y04427D1*G1X03399Y04427D2*G1X03349Y04457D2*G1X03322Y04397D1*G1X03322Y04397D2*G1X03322Y04457D2*G1X03349Y04397D1*G1X03349Y04397D2*G1X03279Y04457D2*G1X03292Y04457D1*G1X03299Y04447D1*G1X03299Y04407D1*G1X03292Y04397D1*G1X03279Y04397D1*G1X03272Y04407D1*G1X03272Y04447D1*G1X03279Y04457D1*G1X03279Y04457D2*G1X03222Y04427D2*G1X03242Y04427D1*G1X03242Y04427D2*G1X03222Y04397D2*G1X03222Y04457D1*G1X03242Y04457D1*G1X03249Y04447D1*G1X03249Y04437D1*G1X03242Y04427D1*G1X03249Y04417D1*G1X03249Y04407D1*G1X03242Y04397D1*G1X03222Y04397D1*G1X03222Y04397D2*G1X03122Y04457D2*G1X03122Y04397D1*G1X03149Y04397D1*G1X03149Y04397D2*G1X03079Y04457D2*G1X03092Y04457D1*G1X03099Y04447D1*G1X03099Y04407D1*G1X03092Y04397D1*G1X03079Y04397D1*G1X03072Y04407D1*G1X03072Y04447D1*G1X03079Y04457D1*G1X03079Y04457D2*G1X03022Y04397D2*G1X03022Y04457D1*G1X03042Y04457D1*G1X03049Y04447D1*G1X03049Y04437D1*G1X03042Y04427D1*G1X03022Y04427D1*G1X03049Y04397D1*G1X03049Y04397D2*G1X02986Y04457D2*G1X02986Y04397D1*G1X02986Y04397D2*G1X02972Y04457D2*G1X02999Y04457D1*G1X02999Y04457D2*G1X02922Y04397D2*G1X02922Y04457D1*G1X02949Y04397D1*G1X02949Y04457D1*G1X02949Y04457D2*G1X02879Y04457D2*G1X02892Y04457D1*G1X02899Y04447D1*G1X02899Y04407D1*G1X02892Y04397D1*G1X02879Y04397D1*G1X02872Y04407D1*G1X02872Y04447D1*G1X02879Y04457D1*G1X02879Y04457D2*G1X02849Y04447D2*G1X02842Y04457D1*G1X02829Y04457D1*G1X02822Y04447D1*G1X02822Y04407D1*G1X02829Y04397D1*G1X02842Y04397D1*G1X02849Y04407D1*G1X02849Y04407D2*G1X03825Y04533D2*G1X03825Y04593D1*G1X03845Y04593D1*G1X03852Y04583D1*G1X03852Y04573D1*G1X03845Y04563D1*G1X03825Y04563D1*G1X03825Y04563D2*G1X03775Y04533D2*G1X03775Y04593D1*G1X03795Y04593D1*G1X03802Y04583D1*G1X03802Y04573D1*G1X03795Y04563D1*G1X03775Y04563D1*G1X03802Y04533D1*G1X03802Y04533D2*G1X03732Y04593D2*G1X03745Y04593D1*G1X03752Y04583D1*G1X03752Y04543D1*G1X03745Y04533D1*G1X03732Y04533D1*G1X03725Y04543D1*G1X03725Y04583D1*G1X03732Y04593D1*G1X03732Y04593D2*G1X03702Y04583D2*G1X03695Y04593D1*G1X03682Y04593D1*G1X03675Y04583D1*G1X03675Y04543D1*G1X03682Y04533D1*G1X03695Y04533D1*G1X03702Y04543D1*G1X03702Y04543D2*G1X03575Y04533D2*G1X03575Y04593D1*G1X03595Y04593D1*G1X03602Y04583D1*G1X03602Y04573D1*G1X03595Y04563D1*G1X03575Y04563D1*G1X03575Y04563D2*G1X03525Y04593D2*G1X03525Y04543D1*G1X03532Y04533D1*G1X03545Y04533D1*G1X03552Y04543D1*G1X03552Y04593D1*G1X03552Y04593D2*G1X03482Y04593D2*G1X03495Y04593D1*G1X03502Y04583D1*G1X03502Y04543D1*G1X03495Y04533D1*G1X03482Y04533D1*G1X03475Y04543D1*G1X03475Y04583D1*G1X03482Y04593D1*G1X03482Y04593D2*G1X03425Y04533D2*G1X03425Y04593D1*G1X03445Y04593D1*G1X03452Y04583D1*G1X03452Y04573D1*G1X03445Y04563D1*G1X03425Y04563D1*G1X03452Y04533D1*G1X03452Y04533D2*G1X03402Y04583D2*G1X03395Y04593D1*G1X03382Y04593D1*G1X03375Y04583D1*G1X03375Y04543D1*G1X03382Y04533D1*G1X03395Y04533D1*G1X03402Y04543D1*G1X03402Y04563D1*G1X03375Y04563D1*G1X03375Y04563D2*G1X03275Y04593D2*G1X03275Y04533D1*G1X03302Y04533D1*G1X03302Y04533D2*G1X03252Y04563D2*G1X03225Y04563D1*G1X03225Y04563D2*G1X03225Y04533D2*G1X03225Y04583D1*G1X03232Y04593D1*G1X03245Y04593D1*G1X03252Y04583D1*G1X03252Y04533D1*G1X03252Y04533D2*G1X03175Y04533D2*G1X03175Y04593D1*G1X03202Y04533D1*G1X03202Y04593D1*G1X03202Y04593D2*G1X03152Y04583D2*G1X03145Y04593D1*G1X03132Y04593D1*G1X03125Y04583D1*G1X03125Y04543D1*G1X03132Y04533D1*G1X03145Y04533D1*G1X03152Y04543D1*G1X03152Y04563D1*G1X03125Y04563D1*G1X03125Y04563D2*G1X03089Y04593D2*G1X03089Y04533D1*G1X03089Y04533D2*G1X03025Y04543D2*G1X03032Y04533D1*G1X03045Y04533D1*G1X03052Y04543D1*G1X03052Y04553D1*G1X03045Y04563D1*G1X03032Y04563D1*G1X03025Y04573D1*G1X03025Y04583D1*G1X03032Y04593D1*G1X03045Y04593D1*G1X03052Y04583D1*G1X03052Y04583D2*G1X02975Y04563D2*G1X03002Y04563D1*G1X03002Y04563D2*G1X02932Y04593D2*G1X02945Y04593D1*G1X02952Y04583D1*G1X02952Y04543D1*G1X02945Y04533D1*G1X02932Y04533D1*G1X02925Y04543D1*G1X02925Y04583D1*G1X02932Y04593D1*G1X02932Y04593D2*G1X02889Y04593D2*G1X02889Y04533D1*G1X02889Y04533D2*G1X02825Y04563D2*G1X02845Y04563D1*G1X02845Y04563D2*G1X02825Y04533D2*G1X02825Y04593D1*G1X02845Y04593D1*G1X02852Y04583D1*G1X02852Y04573D1*G1X02845Y04563D1*G1X02852Y04553D1*G1X02852Y04543D1*G1X02845Y04533D1*G1X02825Y04533D1*G1X02825Y04533D2*G1X09658Y05153D2*G1X09668Y05166D1*G1X09688Y05166D1*G1X09698Y05153D1*G1X09698Y05140D1*G1X09658Y05086D1*G1X09698Y05086D1*G1X09698Y05086D2*G54D14*G1X14202Y05301D2*G1X14202Y04836D1*G1X14202Y04836D2*G1X09204Y05710D2*G1X06839Y05710D1*G1X06839Y06340D1*G1X07389Y06340D1*G1X07389Y06340D2*G1X07390Y06339D2*G1X07390Y05874D1*G1X07390Y05874D2*G1X08546Y05044D2*G1X08546Y04786D1*G1X10606Y04786D1*G1X10606Y05040D1*G1X08554Y05040D1*G1X08554Y05040D2*G1X15618Y08118D2*G1X17118Y08118D1*G1X17118Y08118D2*G1X07390Y05875D2*G1X08653Y05875D1*G1X08653Y06340D1*G1X09204Y06340D1*G1X09204Y05710D1*G1X09204Y05710D2*G1X14283Y06029D2*G1X14283Y06042D1*G1X14316Y06042D1*G1X14291Y05962D1*G1X14291Y05962D2*G1X14376Y06042D2*G1X14343Y06042D1*G1X14343Y06016D1*G1X14368Y06016D1*G1X14376Y06002D1*G1X14376Y05976D1*G1X14368Y05962D1*G1X14351Y05962D1*G1X14343Y05976D1*G1X14343Y05976D2*G1X15597Y06044D2*G1X15614Y06044D1*G1X15622Y06031D1*G1X15622Y05978D1*G1X15614Y05964D1*G1X15597Y05964D1*G1X15589Y05978D1*G1X15589Y06031D1*G1X15597Y06044D1*G1X15597Y06044D2*G1X15622Y06044D2*G1X15589Y05964D1*G1X15589Y05964D2*G1X16086Y06040D2*G1X16053Y05960D1*G1X16053Y05960D2*G1X16061Y06040D2*G1X16078Y06040D1*G1X16086Y06027D1*G1X16086Y05974D1*G1X16078Y05960D1*G1X16061Y05960D1*G1X16053Y05974D1*G1X16053Y06027D1*G1X16061Y06040D1*G1X16061Y06040D2*G1X16026Y06040D2*G1X15993Y06040D1*G1X15993Y06014D1*G1X16018Y06014D1*G1X16026Y06000D1*G1X16026Y05974D1*G1X16018Y05960D1*G1X16001Y05960D1*G1X15993Y05974D1*G1X15993Y05974D2*G1X15950Y05974D2*G1X15950Y05987D1*G1X15950Y05987D2*G1X15906Y06040D2*G1X15873Y05960D1*G1X15873Y05960D2*G1X15881Y06040D2*G1X15898Y06040D1*G1X15906Y06027D1*G1X15906Y05974D1*G1X15898Y05960D1*G1X15881Y05960D1*G1X15873Y05974D1*G1X15873Y06027D1*G1X15881Y06040D1*G1X15881Y06040D2*G1X15665Y05978D2*G1X15665Y05991D1*G1X15665Y05991D2*G1X15709Y06031D2*G1X15709Y06044D1*G1X15742Y06044D1*G1X15717Y05964D1*G1X15717Y05964D2*G1X15802Y06044D2*G1X15769Y06044D1*G1X15769Y06018D1*G1X15794Y06018D1*G1X15802Y06004D1*G1X15802Y05978D1*G1X15794Y05964D1*G1X15777Y05964D1*G1X15769Y05978D1*G1X15769Y05978D2*G1X15343Y06023D2*G1X15351Y06036D1*G1X15351Y05956D1*G1X15351Y05956D2*G1X15343Y05956D2*G1X15360Y05956D1*G1X15360Y05956D2*G1X15411Y05970D2*G1X15411Y05983D1*G1X15411Y05983D2*G1X15463Y06036D2*G1X15480Y06036D1*G1X15488Y06023D1*G1X15488Y05970D1*G1X15480Y05956D1*G1X15463Y05956D1*G1X15455Y05970D1*G1X15455Y06023D1*G1X15463Y06036D1*G1X15463Y06036D2*G1X15488Y06036D2*G1X15455Y05956D1*G1X15455Y05956D2*G1X15063Y06021D2*G1X15072Y06034D1*G1X15072Y05954D1*G1X15072Y05954D2*G1X15063Y05954D2*G1X15080Y05954D1*G1X15080Y05954D2*G1X15132Y05968D2*G1X15132Y05981D1*G1X15132Y05981D2*G1X15208Y06034D2*G1X15175Y06034D1*G1X15175Y06008D1*G1X15200Y06008D1*G1X15208Y05994D1*G1X15208Y05968D1*G1X15200Y05954D1*G1X15183Y05954D1*G1X15175Y05968D1*G1X15175Y05968D2*G1X14775Y06025D2*G1X14783Y06038D1*G1X14800Y06038D1*G1X14808Y06025D1*G1X14808Y06012D1*G1X14775Y05958D1*G1X14808Y05958D1*G1X14808Y05958D2*G1X14852Y05972D2*G1X14852Y05985D1*G1X14852Y05985D2*G1X14903Y06038D2*G1X14920Y06038D1*G1X14928Y06025D1*G1X14928Y05972D1*G1X14920Y05958D1*G1X14903Y05958D1*G1X14895Y05972D1*G1X14895Y06025D1*G1X14903Y06038D1*G1X14903Y06038D2*G1X14928Y06038D2*G1X14895Y05958D1*G1X14895Y05958D2*G1X14463Y06025D2*G1X14471Y06038D1*G1X14488Y06038D1*G1X14496Y06025D1*G1X14496Y06012D1*G1X14463Y05958D1*G1X14496Y05958D1*G1X14496Y05958D2*G1X15540Y09106D2*G1X15836Y09106D1*G1X15836Y08974D1*G1X15535Y08974D1*G1X15535Y09107D1*G1X15535Y09107D2*G1X16017Y04670D2*G1X13652Y04670D1*G1X13652Y05301D1*G1X14202Y05301D1*G1X14202Y05301D2*G1X14202Y04836D2*G1X15466Y04836D1*G1X15466Y05301D1*G1X16016Y05301D1*G1X16016Y04671D1*G1X16016Y04671D2*G1X14240Y05976D2*G1X14240Y05989D1*G1X14240Y05989D2*G1X14163Y06029D2*G1X14171Y06042D1*G1X14188Y06042D1*G1X14196Y06029D1*G1X14196Y06016D1*G1X14163Y05962D1*G1X14196Y05962D1*G1X14196Y05962D2*G1X04514Y10927D2*G1X04514Y11715D1*G1X03530Y11715D1*G1X03530Y10927D1*G1X04514Y10927D1*G1X04514Y10927D2*G1X14616Y06038D2*G1X14583Y06038D1*G1X14583Y06012D1*G1X14608Y06012D1*G1X14616Y05998D1*G1X14616Y05972D1*G1X14608Y05958D1*G1X14591Y05958D1*G1X14583Y05972D1*G1X14583Y05972D2*G1X14539Y05972D2*G1X14539Y05985D1*G1X14539Y05985D2*G54D15*G1X06335Y11513D2*G1X06905Y11513D1*G1X06905Y11343D1*G1X06755Y11193D1*G1X06480Y11193D1*G1X06479Y11194D1*G1X06470Y11194D1*G1X06320Y11344D1*G1X06320Y11513D1*G1X06320Y11513D1*G1X06332Y11513D1*G1X06332Y11513D2*G1X05198Y11196D2*G1X05533Y11196D1*G1X05533Y11085D1*G1X05198Y11085D1*G1X05198Y11087D1*G1X05144Y11140D1*G1X05144Y11143D1*G1X05198Y11196D1*G1X05198Y11196D2*G1X05492Y11195D2*G1X05492Y11086D1*G1X05492Y11086D2*G1X08115Y06649D2*G1X08611Y06649D1*G1X08647Y06685D1*G1X08647Y07144D1*G1X08646Y07144D1*G1X08610Y07180D1*G1X08115Y07180D1*G1X08115Y06649D1*G1X08114Y06649D1*G1X08114Y06649D2*G1X08580Y06688D2*G1X08580Y06787D1*G1X08580Y06787D2*G1X08627Y06739D2*G1X08536Y06739D1*G1X08536Y06739D2*G1X07932Y07180D2*G1X07436Y07180D1*G1X07400Y07144D1*G1X07400Y06684D1*G1X07400Y06684D1*G1X07437Y06648D1*G1X07932Y06648D1*G1X07932Y07179D1*G1X07933Y07180D1*G1X07933Y07180D2*G1X07466Y07140D2*G1X07466Y07042D1*G1X07466Y07042D2*G1X07420Y07089D2*G1X07511Y07089D1*G1X07511Y07089D2*G1X17338Y06345D2*G1X17338Y06200D1*G1X17363Y06175D1*G1X17485Y06175D1*G1X17485Y06181D1*G1X17509Y06204D1*G1X17509Y06345D1*G1X17338Y06345D1*G1X17338Y06345D2*G1X17349Y06212D2*G1X17378Y06212D1*G1X17378Y06212D2*G1X17364Y06190D2*G1X17364Y06240D1*G1X17364Y06240D2*G1X17319Y06154D2*G1X17354Y06154D1*G1X17354Y06154D2*G1X17335Y06131D2*G1X17335Y06175D1*G1X17335Y06175D2*G1X16076Y07063D2*G1X16076Y07349D1*G1X16075Y07349D1*G1X16032Y07391D1*G1X15785Y07391D1*G1X15748Y07354D1*G1X15748Y07063D1*G1X16076Y07063D1*G1X16076Y07063D2*G1X16052Y07333D2*G1X15987Y07333D1*G1X15987Y07333D1*G1X15987Y07333D2*G1X16017Y07372D2*G1X16017Y07299D1*G1X16017Y07299D2*G1X16276Y04927D2*G1X16276Y04641D1*G1X16278Y04641D1*G1X16320Y04599D1*G1X16567Y04599D1*G1X16605Y04637D1*G1X16605Y04927D1*G1X16277Y04927D1*G1X16277Y04927D2*G1X16300Y04657D2*G1X16365Y04657D1*G1X16366Y04657D1*G1X16366Y04657D2*G1X16336Y04619D2*G1X16336Y04692D1*G1X16336Y04692D2*G1X13437Y05217D2*G1X12941Y05217D1*G1X12905Y05181D1*G1X12905Y04722D1*G1X12905Y04722D1*G1X12942Y04686D1*G1X13437Y04686D1*G1X13437Y05216D1*G1X13438Y05217D1*G1X13438Y05217D2*G1X12972Y05178D2*G1X12972Y05079D1*G1X12972Y05079D2*G1X12925Y05127D2*G1X13016Y05127D1*G1X13016Y05127D2*G1X14391Y05310D2*G1X14391Y05122D1*G1X14392Y05122D1*G1X14413Y05100D1*G1X14570Y05100D1*G1X14601Y05131D1*G1X14601Y05310D1*G1X14392Y05310D1*G1X14392Y05310D2*G1X14406Y05145D2*G1X14449Y05145D1*G1X14449Y05145D2*G1X14426Y05114D2*G1X14426Y05177D1*G1X14426Y05177D2*G1X17011Y05625D2*G1X16515Y05625D1*G1X16479Y05589D1*G1X16479Y05130D1*G1X16479Y05130D1*G1X16516Y05094D1*G1X17011Y05094D1*G1X17011Y05624D1*G1X17012Y05625D1*G1X17012Y05625D2*G1X16546Y05586D2*G1X16546Y05487D1*G1X16546Y05487D2*G1X16499Y05534D2*G1X16590Y05534D1*G1X16590Y05534D2*G1X04314Y09663D2*G1X04650Y09663D1*G1X04650Y09552D1*G1X04314Y09552D1*G1X04314Y09554D1*G1X04261Y09607D1*G1X04261Y09610D1*G1X04314Y09663D1*G1X04314Y09663D2*G1X04609Y09662D2*G1X04609Y09553D1*G1X04609Y09553D2*G1X17179Y06121D2*G1X17179Y06617D1*G1X17143Y06654D1*G1X16684Y06654D1*G1X16684Y06653D1*G1X16647Y06617D1*G1X16647Y06121D1*G1X17178Y06121D1*G1X17179Y06120D1*G1X17179Y06120D2*G1X17139Y06587D2*G1X17041Y06587D1*G1X17041Y06587D2*G1X17088Y06633D2*G1X17088Y06543D1*G1X17088Y06543D2*G1X05002Y09666D2*G1X05338Y09666D1*G1X05338Y09555D1*G1X05002Y09555D1*G1X05002Y09557D1*G1X04949Y09610D1*G1X04949Y09613D1*G1X05002Y09666D1*G1X05002Y09666D2*G1X05297Y09666D2*G1X05297Y09556D1*G1X05297Y09556D2*G1X02528Y11796D2*G1X17825Y11795D1*G1X17825Y04236D1*G1X02529Y04236D1*G1X02528Y11796D1*G1X02528Y11796D2*G1X11251Y05020D2*G1X11251Y05306D1*G1X11250Y05306D1*G1X11208Y05348D1*G1X10960Y05348D1*G1X10923Y05310D1*G1X10923Y05020D1*G1X11251Y05020D1*G1X11251Y05020D2*G1X11227Y05289D2*G1X11162Y05289D1*G1X11162Y05290D1*G1X11162Y05290D2*G1X11192Y05328D2*G1X11192Y05255D1*G1X11192Y05255D2*G1X17126Y08863D2*G1X17126Y09242D1*G1X16926Y09242D1*G1X16926Y08862D1*G1X17126Y08862D1*G1X17126Y08862D2*G1X17126Y08928D2*G1X17095Y08928D1*G1X17095Y08886D1*G1X17126Y08886D1*G1X17126Y08886D2*G1X15737Y09457D2*G1X16117Y09457D1*G1X16117Y09657D1*G1X15737Y09657D1*G1X15737Y09457D1*G1X15737Y09457D2*G1X15803Y09457D2*G1X15803Y09488D1*G1X15761Y09488D1*G1X15761Y09457D1*G1X15761Y09457D2*G1X04956Y08915D2*G1X04956Y09411D1*G1X04920Y09448D1*G1X04461Y09448D1*G1X04461Y09447D1*G1X04425Y09411D1*G1X04425Y08915D1*G1X04956Y08915D1*G1X04956Y08915D1*G1X04956Y08915D2*G1X04866Y09428D2*G1X04866Y09337D1*G1X04866Y09337D2*G1X05855Y08920D2*G1X05855Y09416D1*G1X05819Y09452D1*G1X05360Y09452D1*G1X05360Y09451D1*G1X05324Y09415D1*G1X05324Y08920D1*G1X05854Y08920D1*G1X05855Y08919D1*G1X05855Y08919D2*G1X05816Y09385D2*G1X05717Y09385D1*G1X05717Y09385D2*G1X05765Y09432D2*G1X05765Y09341D1*G1X05765Y09341D2*G1X14149Y07989D2*G1X14149Y07493D1*G1X14185Y07456D1*G1X14644Y07456D1*G1X14644Y07457D1*G1X14680Y07493D1*G1X14680Y07989D1*G1X14149Y07989D1*G1X14149Y07989D1*G1X14149Y07989D2*G1X14188Y07523D2*G1X14287Y07523D1*G1X14287Y07523D2*G1X14239Y07476D2*G1X14239Y07567D1*G1X14239Y07567D2*G1X04917Y09381D2*G1X04818Y09381D1*G1X04818Y09381D2*G54D17*G1X05651Y10468D2*G1X06093Y10468D1*G1X06093Y10036D1*G1X05648Y10036D1*G1X05648Y10468D1*G1X05648Y10468D1*G1X05648Y10468D2*M2*