%
M48
M72
T01C0.0354
T02C0.0400
T03C0.0512
T04C0.0866
T05C0.1772
%
T01
X9946Y12352
X9946Y13336
X10773Y13336
X10773Y12352
X11639Y12352
X11797Y13336
X12624Y13336
X12624Y12352
T02
X16978Y26439
X16978Y27439
X16978Y28439
X16978Y29439
X16978Y30439
X16978Y31439
X16978Y32439
X16978Y33439
X16978Y34439
X16978Y35439
X17978Y35439
X17978Y34439
X17978Y33439
X17978Y32439
X17978Y31439
X17978Y30439
X17978Y29439
X17978Y28439
X17978Y27439
X17978Y26439
T03
X17340Y17722
X17340Y15722
X17340Y13722
X17340Y11722
X17340Y9722
X17340Y7722
X17340Y5722
X17340Y3722
T04
X13923Y14517
X11285Y14832
X8647Y14517
T05
X4037Y12698
X4037Y31596
M30
