G75*
%MOIN*%
%OFA0B0*%
%FSLAX24Y24*%
%IPPOS*%
%LPD*%
%AMOC8*
5,1,8,0,0,1.08239X$1,22.5*
%
%ADD10C,0.0000*%
%ADD11C,0.0060*%
%ADD12C,0.0050*%
%ADD13C,0.0040*%
D10*
X000100Y000100D02*
X000100Y039970D01*
X020092Y039970D01*
X020092Y000100D01*
X000100Y000100D01*
X003151Y012698D02*
X003153Y012757D01*
X003159Y012816D01*
X003169Y012874D01*
X003182Y012932D01*
X003200Y012989D01*
X003221Y013044D01*
X003246Y013098D01*
X003275Y013150D01*
X003307Y013199D01*
X003342Y013247D01*
X003380Y013292D01*
X003421Y013335D01*
X003465Y013375D01*
X003511Y013411D01*
X003560Y013445D01*
X003611Y013475D01*
X003664Y013502D01*
X003719Y013525D01*
X003774Y013544D01*
X003832Y013560D01*
X003890Y013572D01*
X003948Y013580D01*
X004007Y013584D01*
X004067Y013584D01*
X004126Y013580D01*
X004184Y013572D01*
X004242Y013560D01*
X004300Y013544D01*
X004355Y013525D01*
X004410Y013502D01*
X004463Y013475D01*
X004514Y013445D01*
X004563Y013411D01*
X004609Y013375D01*
X004653Y013335D01*
X004694Y013292D01*
X004732Y013247D01*
X004767Y013199D01*
X004799Y013150D01*
X004828Y013098D01*
X004853Y013044D01*
X004874Y012989D01*
X004892Y012932D01*
X004905Y012874D01*
X004915Y012816D01*
X004921Y012757D01*
X004923Y012698D01*
X004921Y012639D01*
X004915Y012580D01*
X004905Y012522D01*
X004892Y012464D01*
X004874Y012407D01*
X004853Y012352D01*
X004828Y012298D01*
X004799Y012246D01*
X004767Y012197D01*
X004732Y012149D01*
X004694Y012104D01*
X004653Y012061D01*
X004609Y012021D01*
X004563Y011985D01*
X004514Y011951D01*
X004463Y011921D01*
X004410Y011894D01*
X004355Y011871D01*
X004300Y011852D01*
X004242Y011836D01*
X004184Y011824D01*
X004126Y011816D01*
X004067Y011812D01*
X004007Y011812D01*
X003948Y011816D01*
X003890Y011824D01*
X003832Y011836D01*
X003774Y011852D01*
X003719Y011871D01*
X003664Y011894D01*
X003611Y011921D01*
X003560Y011951D01*
X003511Y011985D01*
X003465Y012021D01*
X003421Y012061D01*
X003380Y012104D01*
X003342Y012149D01*
X003307Y012197D01*
X003275Y012246D01*
X003246Y012298D01*
X003221Y012352D01*
X003200Y012407D01*
X003182Y012464D01*
X003169Y012522D01*
X003159Y012580D01*
X003153Y012639D01*
X003151Y012698D01*
X003151Y031596D02*
X003153Y031655D01*
X003159Y031714D01*
X003169Y031772D01*
X003182Y031830D01*
X003200Y031887D01*
X003221Y031942D01*
X003246Y031996D01*
X003275Y032048D01*
X003307Y032097D01*
X003342Y032145D01*
X003380Y032190D01*
X003421Y032233D01*
X003465Y032273D01*
X003511Y032309D01*
X003560Y032343D01*
X003611Y032373D01*
X003664Y032400D01*
X003719Y032423D01*
X003774Y032442D01*
X003832Y032458D01*
X003890Y032470D01*
X003948Y032478D01*
X004007Y032482D01*
X004067Y032482D01*
X004126Y032478D01*
X004184Y032470D01*
X004242Y032458D01*
X004300Y032442D01*
X004355Y032423D01*
X004410Y032400D01*
X004463Y032373D01*
X004514Y032343D01*
X004563Y032309D01*
X004609Y032273D01*
X004653Y032233D01*
X004694Y032190D01*
X004732Y032145D01*
X004767Y032097D01*
X004799Y032048D01*
X004828Y031996D01*
X004853Y031942D01*
X004874Y031887D01*
X004892Y031830D01*
X004905Y031772D01*
X004915Y031714D01*
X004921Y031655D01*
X004923Y031596D01*
X004921Y031537D01*
X004915Y031478D01*
X004905Y031420D01*
X004892Y031362D01*
X004874Y031305D01*
X004853Y031250D01*
X004828Y031196D01*
X004799Y031144D01*
X004767Y031095D01*
X004732Y031047D01*
X004694Y031002D01*
X004653Y030959D01*
X004609Y030919D01*
X004563Y030883D01*
X004514Y030849D01*
X004463Y030819D01*
X004410Y030792D01*
X004355Y030769D01*
X004300Y030750D01*
X004242Y030734D01*
X004184Y030722D01*
X004126Y030714D01*
X004067Y030710D01*
X004007Y030710D01*
X003948Y030714D01*
X003890Y030722D01*
X003832Y030734D01*
X003774Y030750D01*
X003719Y030769D01*
X003664Y030792D01*
X003611Y030819D01*
X003560Y030849D01*
X003511Y030883D01*
X003465Y030919D01*
X003421Y030959D01*
X003380Y031002D01*
X003342Y031047D01*
X003307Y031095D01*
X003275Y031144D01*
X003246Y031196D01*
X003221Y031250D01*
X003200Y031305D01*
X003182Y031362D01*
X003169Y031420D01*
X003159Y031478D01*
X003153Y031537D01*
X003151Y031596D01*
D11*
X003900Y005377D02*
X003900Y005271D01*
X003900Y005057D02*
X003793Y005057D01*
X003900Y005057D02*
X003900Y004630D01*
X003793Y004630D02*
X004007Y004630D01*
X004223Y004737D02*
X004223Y004950D01*
X004330Y005057D01*
X004650Y005057D01*
X004650Y004523D01*
X004543Y004416D01*
X004437Y004416D01*
X004330Y004630D02*
X004650Y004630D01*
X004868Y004630D02*
X004868Y005057D01*
X005188Y005057D01*
X005295Y004950D01*
X005295Y004630D01*
X005512Y004737D02*
X005619Y004844D01*
X005939Y004844D01*
X005939Y004950D02*
X005939Y004630D01*
X005619Y004630D01*
X005512Y004737D01*
X005619Y005057D02*
X005832Y005057D01*
X005939Y004950D01*
X006157Y004630D02*
X006370Y004630D01*
X006263Y004630D02*
X006263Y005271D01*
X006157Y005271D01*
X007231Y005164D02*
X007231Y004737D01*
X007338Y004630D01*
X007551Y004630D01*
X007658Y004737D01*
X007658Y004950D01*
X007444Y004950D01*
X007231Y005164D02*
X007338Y005271D01*
X007551Y005271D01*
X007658Y005164D01*
X007875Y005057D02*
X007875Y004630D01*
X007875Y004844D02*
X008089Y005057D01*
X008196Y005057D01*
X008413Y004950D02*
X008413Y004737D01*
X008519Y004630D01*
X008733Y004630D01*
X008840Y004737D01*
X008840Y004950D01*
X008733Y005057D01*
X008519Y005057D01*
X008413Y004950D01*
X009057Y005057D02*
X009057Y004737D01*
X009164Y004630D01*
X009484Y004630D01*
X009484Y005057D01*
X009702Y005057D02*
X009702Y004416D01*
X009702Y004630D02*
X010022Y004630D01*
X010129Y004737D01*
X010129Y004950D01*
X010022Y005057D01*
X009702Y005057D01*
X010991Y005164D02*
X010991Y004737D01*
X011098Y004630D01*
X011311Y004630D01*
X011418Y004737D01*
X011635Y004737D02*
X011635Y004950D01*
X011742Y005057D01*
X011956Y005057D01*
X012062Y004950D01*
X012062Y004737D01*
X011956Y004630D01*
X011742Y004630D01*
X011635Y004737D01*
X011418Y005164D02*
X011311Y005271D01*
X011098Y005271D01*
X010991Y005164D01*
X012280Y005057D02*
X012280Y004630D01*
X012280Y004844D02*
X012493Y005057D01*
X012600Y005057D01*
X012817Y005057D02*
X012817Y004416D01*
X012817Y004630D02*
X013137Y004630D01*
X013244Y004737D01*
X013244Y004950D01*
X013137Y005057D01*
X012817Y005057D01*
X012816Y002371D02*
X012602Y002371D01*
X012709Y002371D02*
X012709Y001730D01*
X012602Y001730D02*
X012816Y001730D01*
X013032Y001837D02*
X013032Y002264D01*
X013139Y002371D01*
X013352Y002371D01*
X013459Y002264D01*
X013459Y001837D01*
X013352Y001730D01*
X013139Y001730D01*
X013032Y001837D01*
X013676Y001730D02*
X013676Y002371D01*
X014103Y001730D01*
X014103Y002371D01*
X014966Y002371D02*
X014966Y001730D01*
X015286Y001730D01*
X015393Y001837D01*
X015393Y001944D01*
X015286Y002050D01*
X014966Y002050D01*
X015286Y002050D02*
X015393Y002157D01*
X015393Y002264D01*
X015286Y002371D01*
X014966Y002371D01*
X015610Y002264D02*
X015610Y001837D01*
X015717Y001730D01*
X015930Y001730D01*
X016037Y001837D01*
X016037Y002264D01*
X015930Y002371D01*
X015717Y002371D01*
X015610Y002264D01*
X016255Y002157D02*
X016255Y001730D01*
X016255Y002050D02*
X016682Y002050D01*
X016682Y002157D02*
X016682Y001730D01*
X016899Y001730D02*
X016899Y002371D01*
X017219Y002371D01*
X017326Y002264D01*
X017326Y002050D01*
X017219Y001944D01*
X016899Y001944D01*
X017113Y001944D02*
X017326Y001730D01*
X017544Y001730D02*
X017544Y002371D01*
X017864Y002371D01*
X017971Y002264D01*
X017971Y001837D01*
X017864Y001730D01*
X017544Y001730D01*
X016682Y002157D02*
X016468Y002371D01*
X016255Y002157D01*
X018929Y002050D02*
X018929Y001837D01*
X019036Y001730D01*
X019463Y001730D01*
X019570Y001837D01*
X019570Y002050D01*
X019463Y002157D01*
X019250Y002157D01*
X019250Y001944D01*
X019036Y002157D02*
X018929Y002050D01*
X018929Y002375D02*
X019570Y002802D01*
X018929Y002802D01*
X018929Y003019D02*
X018929Y003339D01*
X019036Y003446D01*
X019463Y003446D01*
X019570Y003339D01*
X019570Y003019D01*
X018929Y003019D01*
X018929Y002375D02*
X019570Y002375D01*
X019570Y004308D02*
X018929Y004308D01*
X018929Y004953D02*
X019570Y004953D01*
X019570Y005380D01*
X019570Y005597D02*
X019570Y005918D01*
X019463Y006024D01*
X019036Y006024D01*
X018929Y005918D01*
X018929Y005597D01*
X019570Y005597D01*
X019250Y005166D02*
X019250Y004953D01*
X019570Y004735D02*
X019570Y004308D01*
X018929Y004953D02*
X018929Y005380D01*
X019250Y006242D02*
X019250Y006669D01*
X019463Y006455D02*
X019036Y006455D01*
X018929Y007531D02*
X019570Y007531D01*
X019570Y007958D01*
X019570Y008175D02*
X019570Y008603D01*
X019570Y008820D02*
X019570Y009140D01*
X019463Y009247D01*
X019036Y009247D01*
X018929Y009140D01*
X018929Y008820D01*
X019570Y008820D01*
X019250Y009465D02*
X019250Y009892D01*
X018929Y008603D02*
X018929Y008175D01*
X019570Y008175D01*
X019250Y008175D02*
X019250Y008389D01*
X019036Y013332D02*
X019463Y013332D01*
X019570Y013439D01*
X019570Y013652D01*
X019463Y013759D01*
X019250Y013759D01*
X019250Y013545D01*
X019036Y013332D02*
X018929Y013439D01*
X018929Y013652D01*
X019036Y013759D01*
X018929Y013976D02*
X018929Y014297D01*
X019036Y014403D01*
X019250Y014403D01*
X019356Y014297D01*
X019356Y013976D01*
X019356Y014190D02*
X019570Y014403D01*
X019570Y014621D02*
X019570Y014835D01*
X019570Y014728D02*
X018929Y014728D01*
X018929Y014621D02*
X018929Y014835D01*
X018929Y015051D02*
X018929Y015371D01*
X019036Y015478D01*
X019463Y015478D01*
X019570Y015371D01*
X019570Y015051D01*
X018929Y015051D01*
X018929Y013976D02*
X019570Y013976D01*
X018228Y025939D02*
X016728Y025939D01*
X016478Y026189D01*
X016478Y026689D01*
X016728Y026939D01*
X018228Y026939D01*
X018478Y027189D01*
X018478Y027689D01*
X018228Y027939D01*
X016728Y027939D01*
X016478Y028189D01*
X016478Y028689D01*
X016728Y028939D01*
X018228Y028939D01*
X018478Y029189D01*
X018478Y029689D01*
X018228Y029939D01*
X016728Y029939D01*
X016478Y030189D01*
X016478Y030689D01*
X016728Y030939D01*
X018228Y030939D01*
X018478Y031189D01*
X018478Y031689D01*
X018228Y031939D01*
X016728Y031939D01*
X016478Y032189D01*
X016478Y032689D01*
X016728Y032939D01*
X018228Y032939D01*
X018478Y032689D01*
X018478Y032189D01*
X018228Y031939D01*
X018228Y030939D02*
X018478Y030689D01*
X018478Y030189D01*
X018228Y029939D01*
X018228Y028939D02*
X018478Y028689D01*
X018478Y028189D01*
X018228Y027939D01*
X018228Y026939D02*
X018478Y026689D01*
X018478Y026189D01*
X018228Y025939D01*
X016728Y026939D02*
X016478Y027189D01*
X016478Y027689D01*
X016728Y027939D01*
X016728Y028939D02*
X016478Y029189D01*
X016478Y029689D01*
X016728Y029939D01*
X016728Y030939D02*
X016478Y031189D01*
X016478Y031689D01*
X016728Y031939D01*
X016728Y032939D02*
X016478Y033189D01*
X016478Y033689D01*
X016728Y033939D01*
X018228Y033939D01*
X018478Y033689D01*
X018478Y033189D01*
X018228Y032939D01*
X018228Y033939D02*
X018478Y034189D01*
X018478Y034689D01*
X018228Y034939D01*
X018478Y035189D01*
X018478Y035689D01*
X018228Y035939D01*
X016728Y035939D01*
X016478Y035689D01*
X016478Y035189D01*
X016728Y034939D01*
X018228Y034939D01*
X016728Y034939D02*
X016478Y034689D01*
X016478Y034189D01*
X016728Y033939D01*
X003469Y005271D02*
X003256Y005271D01*
X003149Y005164D01*
X003149Y005057D01*
X003256Y004950D01*
X003469Y004950D01*
X003576Y004844D01*
X003576Y004737D01*
X003469Y004630D01*
X003256Y004630D01*
X003149Y004737D01*
X002931Y004737D02*
X002931Y004950D01*
X002825Y005057D01*
X002611Y005057D01*
X002504Y004950D01*
X002504Y004737D01*
X002611Y004630D01*
X002825Y004630D01*
X002931Y004737D01*
X002288Y004630D02*
X002075Y004630D01*
X002181Y004630D02*
X002181Y005057D01*
X002075Y005057D01*
X001857Y005057D02*
X001750Y004950D01*
X001430Y004950D01*
X001430Y004630D02*
X001750Y004630D01*
X001857Y004737D01*
X001857Y004844D01*
X001750Y004950D01*
X001857Y005057D02*
X001857Y005164D01*
X001750Y005271D01*
X001430Y005271D01*
X001430Y004630D01*
X002181Y005271D02*
X002181Y005377D01*
X003469Y005271D02*
X003576Y005164D01*
X004223Y004737D02*
X004330Y004630D01*
X004435Y002371D02*
X004435Y001837D01*
X004328Y001730D01*
X004115Y001730D01*
X004008Y001837D01*
X004008Y002371D01*
X003791Y002264D02*
X003791Y001837D01*
X003684Y001730D01*
X003470Y001730D01*
X003364Y001837D01*
X003364Y002264D01*
X003470Y002371D01*
X003684Y002371D01*
X003791Y002264D01*
X004222Y001271D02*
X004222Y000630D01*
X004435Y000630D02*
X004008Y000630D01*
X004008Y001057D02*
X004222Y001271D01*
X004653Y000737D02*
X004760Y000737D01*
X004760Y000630D01*
X004653Y000630D01*
X004653Y000737D01*
X004975Y000630D02*
X005402Y000630D01*
X005189Y000630D02*
X005189Y001271D01*
X004975Y001057D01*
X004973Y001730D02*
X004760Y001730D01*
X004653Y001837D01*
X004760Y002050D02*
X004973Y002050D01*
X005080Y001944D01*
X005080Y001837D01*
X004973Y001730D01*
X004760Y002050D02*
X004653Y002157D01*
X004653Y002264D01*
X004760Y002371D01*
X004973Y002371D01*
X005080Y002264D01*
X005297Y002371D02*
X005297Y001730D01*
X005724Y001730D01*
X005942Y001730D02*
X005942Y002371D01*
X005724Y002371D02*
X005297Y002371D01*
X005297Y002050D02*
X005511Y002050D01*
X005942Y001730D02*
X006369Y001730D01*
X007231Y001730D02*
X007551Y001730D01*
X007658Y001837D01*
X007658Y002264D01*
X007551Y002371D01*
X007231Y002371D01*
X007231Y001730D01*
X007875Y001730D02*
X008089Y001730D01*
X007982Y001730D02*
X007982Y002371D01*
X007875Y002371D02*
X008089Y002371D01*
X008305Y002264D02*
X008305Y002157D01*
X008412Y002050D01*
X008625Y002050D01*
X008732Y001944D01*
X008732Y001837D01*
X008625Y001730D01*
X008412Y001730D01*
X008305Y001837D01*
X008305Y002264D02*
X008412Y002371D01*
X008625Y002371D01*
X008732Y002264D01*
X008950Y002371D02*
X009377Y002371D01*
X009163Y002371D02*
X009163Y001730D01*
X009594Y001730D02*
X009594Y002371D01*
X009915Y002371D01*
X010021Y002264D01*
X010021Y002050D01*
X009915Y001944D01*
X009594Y001944D01*
X009808Y001944D02*
X010021Y001730D01*
X010239Y001730D02*
X010452Y001730D01*
X010346Y001730D02*
X010346Y002371D01*
X010452Y002371D02*
X010239Y002371D01*
X010669Y002371D02*
X010669Y001730D01*
X010989Y001730D01*
X011096Y001837D01*
X011096Y001944D01*
X010989Y002050D01*
X010669Y002050D01*
X010669Y002371D02*
X010989Y002371D01*
X011096Y002264D01*
X011096Y002157D01*
X010989Y002050D01*
X011313Y001837D02*
X011420Y001730D01*
X011633Y001730D01*
X011740Y001837D01*
X011740Y002371D01*
X011958Y002371D02*
X012385Y002371D01*
X012171Y002371D02*
X012171Y001730D01*
X011313Y001837D02*
X011313Y002371D01*
X003146Y002264D02*
X003146Y002050D01*
X003039Y001944D01*
X002719Y001944D01*
X002933Y001944D02*
X003146Y001730D01*
X003146Y002264D02*
X003039Y002371D01*
X002719Y002371D01*
X002719Y001730D01*
X002502Y001730D02*
X002502Y002157D01*
X002288Y002371D01*
X002075Y002157D01*
X002075Y001730D01*
X001857Y001837D02*
X001750Y001730D01*
X001537Y001730D01*
X001430Y001837D01*
X001430Y002264D01*
X001537Y002371D01*
X001750Y002371D01*
X001857Y002264D01*
X002075Y002050D02*
X002502Y002050D01*
X002395Y001057D02*
X002181Y001057D01*
X002075Y000950D01*
X002075Y000737D01*
X002181Y000630D01*
X002395Y000630D01*
X002502Y000844D02*
X002075Y000844D01*
X001857Y000950D02*
X001750Y000844D01*
X001430Y000844D01*
X001644Y000844D02*
X001857Y000630D01*
X001857Y000950D02*
X001857Y001164D01*
X001750Y001271D01*
X001430Y001271D01*
X001430Y000630D01*
X002395Y001057D02*
X002502Y000950D01*
X002502Y000844D01*
X002719Y001057D02*
X002933Y000630D01*
X003146Y001057D01*
D12*
X007978Y011486D02*
X014592Y011486D01*
X014592Y017076D01*
X009435Y017076D01*
X009395Y017076D02*
X007978Y017076D01*
X007978Y011486D01*
X015828Y025964D02*
X016128Y025964D01*
X016203Y026039D01*
X016203Y026189D01*
X016128Y026264D01*
X015978Y026264D01*
X015978Y026114D01*
X015828Y026264D02*
X015753Y026189D01*
X015753Y026039D01*
X015828Y025964D01*
X015753Y026424D02*
X015753Y026649D01*
X015828Y026724D01*
X015978Y026724D01*
X016053Y026649D01*
X016053Y026424D01*
X016203Y026424D02*
X015753Y026424D01*
X016053Y026574D02*
X016203Y026724D01*
X016203Y026884D02*
X016203Y027034D01*
X016203Y026959D02*
X015753Y026959D01*
X015753Y026884D02*
X015753Y027034D01*
X015753Y027191D02*
X015753Y027416D01*
X015828Y027492D01*
X016128Y027492D01*
X016203Y027416D01*
X016203Y027191D01*
X015753Y027191D01*
X016220Y004438D02*
X016145Y004363D01*
X016145Y004213D01*
X016220Y004138D01*
X016220Y003978D02*
X016145Y003903D01*
X016145Y003677D01*
X016595Y003677D01*
X016445Y003677D02*
X016445Y003903D01*
X016370Y003978D01*
X016220Y003978D01*
X016145Y003517D02*
X016145Y003367D01*
X016145Y003442D02*
X016520Y003442D01*
X016595Y003367D01*
X016595Y003292D01*
X016520Y003217D01*
X016595Y004138D02*
X016295Y004438D01*
X016220Y004438D01*
X016595Y004438D02*
X016595Y004138D01*
D13*
X011065Y017333D02*
X011142Y017409D01*
X011142Y017563D01*
X010988Y017563D01*
X010835Y017716D02*
X010835Y017409D01*
X010912Y017333D01*
X011065Y017333D01*
X011142Y017716D02*
X011065Y017793D01*
X010912Y017793D01*
X010835Y017716D01*
X010682Y017793D02*
X010682Y017333D01*
X010375Y017793D01*
X010375Y017333D01*
X010221Y017333D02*
X010068Y017333D01*
X010144Y017333D02*
X010144Y017793D01*
X010068Y017793D02*
X010221Y017793D01*
X009914Y017716D02*
X009914Y017563D01*
X009838Y017486D01*
X009607Y017486D01*
X009607Y017333D02*
X009607Y017793D01*
X009838Y017793D01*
X009914Y017716D01*
X009761Y017486D02*
X009914Y017333D01*
X009454Y017563D02*
X009377Y017486D01*
X009147Y017486D01*
X009147Y017333D02*
X009147Y017793D01*
X009377Y017793D01*
X009454Y017716D01*
X009454Y017563D01*
X008993Y017793D02*
X008840Y017793D01*
X008917Y017793D02*
X008917Y017333D01*
X008993Y017333D02*
X008840Y017333D01*
X008687Y017333D02*
X008380Y017333D01*
X008380Y017793D01*
X008226Y017716D02*
X008149Y017793D01*
X007996Y017793D01*
X007919Y017716D01*
X007919Y017640D01*
X007996Y017563D01*
X008149Y017563D01*
X008226Y017486D01*
X008226Y017409D01*
X008149Y017333D01*
X007996Y017333D01*
X007919Y017409D01*
M02*
