G75*
%MOIN*%
%OFA0B0*%
%FSLAX24Y24*%
%IPPOS*%
%LPD*%
%AMOC8*
5,1,8,0,0,1.08239X$1,22.5*
%
%ADD10OC8,0.0600*%
%ADD11C,0.1000*%
%ADD12C,0.0554*%
%ADD13C,0.1266*%
%ADD14C,0.0100*%
%ADD15C,0.0160*%
D10*
X016978Y026439D03*
X016978Y027439D03*
X016978Y028439D03*
X016978Y029439D03*
X016978Y030439D03*
X016978Y031439D03*
X016978Y032439D03*
X016978Y033439D03*
X016978Y034439D03*
X016978Y035439D03*
X017978Y035439D03*
X017978Y034439D03*
X017978Y033439D03*
X017978Y032439D03*
X017978Y031439D03*
X017978Y030439D03*
X017978Y029439D03*
X017978Y028439D03*
X017978Y027439D03*
X017978Y026439D03*
D11*
X017340Y017722D03*
X017340Y015722D03*
X017340Y013722D03*
X017340Y011722D03*
X017340Y009722D03*
X017340Y007722D03*
X017340Y005722D03*
X017340Y003722D03*
D12*
X012624Y012352D03*
X012624Y013336D03*
X011797Y013336D03*
X011639Y012352D03*
X010773Y012352D03*
X010773Y013336D03*
X009946Y013336D03*
X009946Y012352D03*
D13*
X008647Y014517D03*
X011285Y014832D03*
X013923Y014517D03*
D14*
X015100Y012400D02*
X012700Y012400D01*
X012624Y012352D01*
X012200Y011800D02*
X016000Y011800D01*
X016700Y015100D01*
X017300Y015700D01*
X017340Y015722D01*
X017400Y015800D01*
X019200Y017500D01*
X019100Y031900D01*
X018000Y032400D01*
X017978Y032439D01*
X017900Y032500D01*
X017000Y032500D01*
X016978Y032439D01*
X017000Y032500D02*
X017000Y033400D01*
X016978Y033439D01*
X016900Y034400D02*
X016978Y034439D01*
X017000Y034500D01*
X017900Y034500D01*
X017978Y034439D01*
X018000Y034500D01*
X018000Y035400D01*
X017978Y035439D01*
X017000Y035400D02*
X017000Y034500D01*
X016900Y034400D02*
X015100Y034400D01*
X015100Y017600D01*
X017300Y017700D01*
X017340Y017722D01*
X015100Y017600D02*
X015100Y012400D01*
X013900Y007800D02*
X017300Y007800D01*
X017340Y007722D01*
X017400Y005800D02*
X017340Y005722D01*
X017400Y005800D02*
X018500Y005300D01*
X018500Y002000D01*
X017340Y003722D02*
X017100Y004100D01*
X009100Y012000D01*
X009100Y013800D01*
X010300Y013800D01*
X010700Y013400D01*
X010773Y013336D01*
X009946Y013336D02*
X009900Y013300D01*
X009500Y012900D01*
X009500Y012200D01*
X013900Y007800D01*
X012200Y011800D02*
X011700Y012300D01*
X011639Y012352D01*
X011700Y013300D02*
X011797Y013336D01*
X011700Y013300D02*
X008700Y015900D01*
X007400Y015900D01*
X007400Y009500D01*
X016978Y026439D02*
X017000Y026500D01*
X017900Y026500D01*
X017978Y026439D01*
X018000Y026500D01*
X018000Y027400D01*
X017978Y027439D01*
X017978Y028439D02*
X017900Y028500D01*
X017000Y028500D01*
X016978Y028439D01*
X017000Y028500D02*
X017000Y029400D01*
X016978Y029439D01*
X016978Y030439D02*
X017000Y030500D01*
X017900Y030500D01*
X017978Y030439D01*
X018000Y030500D01*
X018000Y031400D01*
X017978Y031439D01*
X017978Y032439D02*
X018000Y032500D01*
X018000Y033400D01*
X017978Y033439D01*
X017000Y035400D02*
X016978Y035439D01*
X016978Y031439D02*
X017000Y031400D01*
X017000Y030500D01*
X017978Y029439D02*
X018000Y029400D01*
X018000Y028500D01*
X017978Y028439D01*
X016978Y027439D02*
X017000Y027400D01*
X017000Y026500D01*
D15*
X007400Y009500D02*
X015100Y002000D01*
X018400Y002000D01*
M02*
